<?xml version="1.0" encoding="utf-8"?>
<!-- Generator: Adobe Illustrator 27.0.1, SVG Export Plug-In . SVG Version: 6.00 Build 0)  -->
<svg version="1.1" id="Layer_1" xmlns="http://www.w3.org/2000/svg" xmlns:xlink="http://www.w3.org/1999/xlink" x="0px" y="0px"
	 width="1080px" height="1080px" viewBox="0 0 1080 1080" enable-background="new 0 0 1080 1080" xml:space="preserve">
<g>
	<g>
		<g>
			<polygon points="352.896,347.836 321.433,286.371 258.505,409.3 195.577,409.3 258.505,286.371 321.433,286.371 289.969,224.907 
				227.041,224.907 132.65,409.3 164.113,470.765 289.969,470.765 			"/>
			<polygon points="1019.072,621.238 956.144,621.238 987.608,682.703 			"/>
			<polygon points="337.578,559.774 400.507,559.774 369.043,498.309 306.115,498.309 243.187,621.238 274.651,682.703 			"/>
			<polygon points="337.578,682.703 274.651,682.703 306.115,744.167 369.043,744.167 431.971,621.238 400.507,559.774 			"/>
			<polygon points="1050.537,682.703 924.68,682.703 956.144,621.238 987.608,559.774 1050.537,559.774 1019.072,498.309 
				956.144,498.309 861.753,682.703 893.217,744.167 1082,744.167 			"/>
			<polygon points="641.505,621.238 610.041,559.774 547.113,682.703 484.185,682.703 515.649,744.167 641.505,744.167 
				610.041,682.703 			"/>
			<polygon points="578.577,498.309 515.649,498.309 452.721,621.238 484.185,682.703 			"/>
			<polygon points="604.609,470.765 636.073,409.3 699,409.3 667.536,347.836 699,286.371 761.928,286.371 730.464,224.907 
				667.536,224.907 573.144,409.3 			"/>
			<polygon points="699,409.3 730.464,470.765 793.393,470.765 761.928,409.3 793.393,347.836 761.928,286.371 			"/>
			<polygon points="949.241,470.765 1012.169,470.765 980.705,409.3 982.176,409.3 1013.639,347.836 982.176,286.371 919.248,409.3 
				887.784,347.836 950.712,224.907 887.784,224.907 793.393,409.3 824.856,470.765 856.32,409.3 917.777,409.3 			"/>
			<polygon points="384.361,470.765 415.825,409.3 478.753,409.3 510.216,470.765 573.144,347.836 541.68,286.371 478.753,409.3 
				447.289,347.836 478.753,286.371 541.68,286.371 510.216,224.907 447.289,224.907 352.896,409.3 			"/>
			<polygon points="127.856,682.703 96.392,621.238 159.32,498.309 96.392,498.309 2,682.703 33.465,744.167 64.928,682.703 
				127.856,682.703 159.32,744.167 222.248,621.238 190.784,559.774 			"/>
		</g>
	</g>
	<polygon points="744.572,621.238 776.035,559.774 838.963,559.774 807.499,498.309 807.497,498.313 807.499,498.309 
		744.572,498.309 681.643,621.238 743.101,621.238 774.564,682.703 648.709,682.703 680.172,744.167 806.029,744.167 
		837.492,682.703 806.029,621.238 	"/>
</g>
<g>
</g>
<g>
</g>
<g>
</g>
<g>
</g>
<g>
</g>
<g>
</g>
<g>
</g>
<g>
</g>
<g>
</g>
<g>
</g>
<g>
</g>
<g>
</g>
<g>
</g>
<g>
</g>
<g>
</g>
</svg>
