<?xml version="1.0" encoding="utf-8"?>
<!-- Generator: Adobe Illustrator 27.0.1, SVG Export Plug-In . SVG Version: 6.00 Build 0)  -->
<svg version="1.1" id="Layer_1" xmlns="http://www.w3.org/2000/svg" xmlns:xlink="http://www.w3.org/1999/xlink" x="0px" y="0px"
	 width="1080px" height="1080px" viewBox="0 0 1080 1080" enable-background="new 0 0 1080 1080" xml:space="preserve">
<g>
	<g>
		<path fill="#788771" d="M364.867,369.06c6.271,0,11.402-5.131,11.402-11.402V312.05c0-6.271-5.131-11.402-11.402-11.402H11.402
			C5.131,300.647,0,305.778,0,312.05v456.084c0,6.271,5.131,11.402,11.402,11.402h62.712c6.271,0,11.402-5.131,11.402-11.402
			V654.113c0-6.271,5.131-11.402,11.402-11.402h182.434c6.271,0,11.402-5.131,11.402-11.402V585.7
			c0-6.271-5.131-11.402-11.402-11.402H96.918c-6.271,0-11.402-5.131-11.402-11.402V380.462c0-6.271,5.131-11.402,11.402-11.402
			H364.867z"/>
		<path fill="#91AD76" d="M182.434,437.473c-6.271,0-11.402,5.131-11.402,11.402v45.608c0,6.271,5.131,11.402,11.402,11.402h182.434
			c6.271,0,11.402,5.131,11.402,11.402v182.434c0,6.271-5.131,11.402-11.402,11.402H182.434c-6.271,0-11.402,5.131-11.402,11.402
			v45.608c0,6.271,5.131,11.402,11.402,11.402h267.949c6.271,0,11.402-5.131,11.402-11.402V448.875
			c0-6.271-5.131-11.402-11.402-11.402H182.434z"/>
	</g>
	<g>
		<g>
			<path fill="#91AD76" d="M548.985,747.873v-7.96c0-1.621,0.811-2.432,2.435-2.432h6.412c1.621,0,2.432,0.811,2.432,2.432v7.302
				c0,14.744,7.15,22.113,21.455,22.113h23c14.299,0,21.452-7.442,21.452-22.339v-9.289c0-6.485-2.651-11.568-7.96-15.256
				s-11.721-6.339-19.243-7.967c-7.518-1.621-15.077-3.316-22.668-5.083c-7.598-1.767-14.047-5.01-19.352-9.734
				c-5.309-4.718-7.964-11.057-7.964-19.017v-12.166c0-9.734,2.801-17.396,8.405-23.004c5.601-5.601,13.193-8.399,22.781-8.399
				h25.655c9.581,0,17.176,2.797,22.781,8.399c5.601,5.608,8.402,13.269,8.402,23.004v6.193c0,1.621-0.811,2.432-2.432,2.432h-6.412
				c-1.625,0-2.435-0.811-2.435-2.432v-5.528c0-14.744-7.153-22.12-21.452-22.12h-22.781c-14.153,0-21.233,7.522-21.233,22.558
				v11.063c0,10.173,9.07,17.03,27.206,20.565c7.518,1.475,15.073,3.176,22.668,5.09c7.591,1.914,14.043,5.382,19.352,10.392
				c5.309,5.017,7.96,11.801,7.96,20.352v10.831c0,9.734-2.801,17.402-8.402,23.004c-5.605,5.608-13.199,8.405-22.781,8.405h-26.097
				c-9.588,0-17.18-2.797-22.781-8.405C551.785,765.276,548.985,757.608,548.985,747.873z"/>
			<path fill="#91AD76" d="M672.394,676.438h-13.489c-1.625,0-2.435-0.731-2.435-2.213v-5.302c0-1.621,0.811-2.439,2.435-2.439
				h13.489c1.329,0,1.99-0.658,1.99-1.987v-17.914c0-1.767,0.811-2.658,2.435-2.658h6.412c1.621,0,2.435,0.89,2.435,2.658v17.914
				c0,1.329,0.661,1.987,1.99,1.987h26.319c1.618,0,2.432,0.817,2.432,2.439v5.302c0,1.482-0.814,2.213-2.432,2.213h-26.319
				c-1.329,0-1.99,0.664-1.99,1.993v69.669c0,6.784,1.914,12.02,5.748,15.701c3.834,3.688,9.216,5.528,16.146,5.528h8.625
				c1.621,0,2.435,0.811,2.435,2.432v5.09c0,1.621-0.814,2.432-2.435,2.432h-9.508c-9.731,0-17.548-2.724-23.445-8.186
				c-5.897-5.449-8.847-12.97-8.847-22.558v-70.107C674.385,677.102,673.723,676.438,672.394,676.438z"/>
			<path fill="#91AD76" d="M788.283,779.282h-14.595c-9.439,0-16.887-2.797-22.339-8.405c-5.455-5.601-8.183-13.269-8.183-23.004
				v-78.732c0-1.767,0.738-2.658,2.213-2.658h6.412c1.621,0,2.432,0.89,2.432,2.658v78.293c0,6.93,1.771,12.312,5.309,16.146
				c3.538,3.834,8.698,5.748,15.482,5.748h14.376c7.076,0,12.641-1.88,16.698-5.641c4.053-3.754,6.083-9.103,6.083-16.033v-78.512
				c0-1.767,0.807-2.658,2.432-2.658h6.415c1.472,0,2.213,0.89,2.213,2.658v107.49c0,1.767-0.741,2.651-2.213,2.651h-6.415
				c-1.625,0-2.432-0.884-2.432-2.651v-8.851h-0.884C807.449,775.448,799.784,779.282,788.283,779.282z"/>
			<path fill="#91AD76" d="M895.104,779.282h-14.817c-9.439,0-16.884-2.797-22.339-8.405c-5.455-5.601-8.183-13.269-8.183-23.004
				v-49.981c0-9.734,2.728-17.396,8.183-23.004c5.455-5.601,12.9-8.405,22.339-8.405h14.817c11.352,0,19.093,3.841,23.223,11.502
				h0.884v-51.529c0-1.767,0.738-2.658,2.213-2.658h6.415c1.618,0,2.432,0.89,2.432,2.658v150.174c0,1.767-0.814,2.651-2.432,2.651
				h-6.415c-1.475,0-2.213-0.884-2.213-2.651v-8.851h-0.884C914.198,775.448,906.457,779.282,895.104,779.282z M919.211,747.654
				v-49.542c0-6.924-2.027-12.273-6.08-16.033c-4.06-3.761-9.621-5.641-16.698-5.641h-14.821c-6.784,0-11.944,1.92-15.482,5.754
				c-3.538,3.834-5.306,9.216-5.306,16.146v49.097c0,6.93,1.767,12.312,5.306,16.146c3.538,3.834,8.698,5.748,15.482,5.748h14.821
				c7.076,0,12.638-1.88,16.698-5.641C917.184,759.933,919.211,754.584,919.211,747.654z"/>
			<path fill="#91AD76" d="M960.128,647.912v-21.236c0-1.621,0.734-2.432,2.209-2.432h6.635c1.475,0,2.213,0.811,2.213,2.432v21.236
				c0,1.767-0.738,2.651-2.213,2.651h-6.635C960.863,650.563,960.128,649.68,960.128,647.912z M960.128,776.631v-107.49
				c0-1.767,0.734-2.658,2.209-2.658h6.415c1.621,0,2.432,0.89,2.432,2.658v107.49c0,1.767-0.738,2.651-2.213,2.651h-6.635
				C960.863,779.282,960.128,778.399,960.128,776.631z"/>
			<path fill="#91AD76" d="M1048.814,779.282h-19.02c-9.585,0-17.14-2.797-22.671-8.405c-5.528-5.601-8.292-13.269-8.292-23.004
				v-49.981c0-9.734,2.764-17.396,8.292-23.004c5.532-5.601,13.086-8.405,22.671-8.405h19.02c9.582,0,17.176,2.804,22.781,8.405
				c5.601,5.608,8.405,13.269,8.405,23.004v49.981c0,9.734-2.804,17.402-8.405,23.004
				C1065.99,776.485,1058.395,779.282,1048.814,779.282z M1030.677,769.329h17.253c6.781,0,11.977-1.88,15.592-5.641
				c3.611-3.754,5.419-9.103,5.419-16.033v-49.542c0-6.924-1.807-12.273-5.419-16.033c-3.615-3.761-8.811-5.641-15.592-5.641
				h-17.253c-6.784,0-11.944,1.88-15.482,5.641c-3.538,3.761-5.306,9.11-5.306,16.033v49.542c0,6.93,1.767,12.279,5.306,16.033
				C1018.734,767.448,1023.893,769.329,1030.677,769.329z"/>
		</g>
		<g>
			<path fill="#788771" d="M564.907,594.344h-13.93c-2.508,0-3.76-1.252-3.76-3.757V442.617c0-2.505,1.252-3.757,3.76-3.757h69.433
				c2.505,0,3.763,1.252,3.763,3.757v11.277c0,2.511-1.258,3.757-3.763,3.757h-49.09c-1.77,0-2.653,0.744-2.653,2.214v48.408
				c0,1.621,0.883,2.432,2.653,2.432h42.677c2.656,0,3.981,1.252,3.981,3.757v11.059c0,2.65-1.325,3.975-3.981,3.975H571.32
				c-1.77,0-2.653,0.744-2.653,2.214v58.875C568.667,593.091,567.412,594.344,564.907,594.344z"/>
			<path fill="#788771" d="M681.66,594.344h-8.621c-10.908,0-19.348-3.019-25.319-9.069c-5.971-6.038-8.954-14.441-8.954-25.204
				v-44.225c0-10.908,2.983-19.348,8.954-25.319c5.971-5.971,14.411-8.954,25.319-8.954h49.531c2.656,0,3.981,1.252,3.981,3.757
				v105.257c0,2.505-1.325,3.757-3.981,3.757h-13.927c-2.511,0-3.763-1.252-3.763-3.757v-7.962h-0.883
				C700.457,590.441,693.009,594.344,681.66,594.344z M704.879,556.755v-54.178c0-1.47-0.811-2.214-2.432-2.214h-26.311
				c-10.618,0-15.924,5.457-15.924,16.365v42.459c0,10.908,5.306,16.359,15.924,16.359h10.612
				C698.836,575.546,704.879,569.285,704.879,556.755z"/>
			<path fill="#788771" d="M768.562,594.344h-13.933c-2.505,0-3.757-1.252-3.757-3.757V442.653c0-2.505,1.252-3.757,3.757-3.757
				h13.933c2.505,0,3.757,1.252,3.757,3.757v147.934C772.319,593.091,771.066,594.344,768.562,594.344z"/>
			<path fill="#788771" d="M820.083,594.344H806.15c-2.511,0-3.757-1.252-3.757-3.757V442.653c0-2.505,1.246-3.757,3.757-3.757
				h13.933c2.505,0,3.757,1.252,3.757,3.757v147.934C823.84,593.091,822.588,594.344,820.083,594.344z"/>
			<path fill="#788771" d="M899.906,594.344h-19.463c-10.908,0-19.348-3.019-25.319-9.069c-5.971-6.038-8.954-14.441-8.954-25.204
				v-44.225c0-10.908,2.983-19.348,8.954-25.319c5.971-5.971,14.411-8.954,25.319-8.954h19.463c10.757,0,19.197,2.983,25.319,8.954
				c6.11,5.971,9.172,14.411,9.172,25.319v44.225c0,10.763-3.061,19.166-9.172,25.204
				C919.103,591.325,910.663,594.344,899.906,594.344z M883.541,575.546h13.491c10.612,0,15.917-5.378,15.917-16.141v-42.894
				c0-10.763-5.306-16.147-15.917-16.147h-13.491c-5.608,0-9.656,1.295-12.16,3.872c-2.511,2.583-3.763,6.673-3.763,12.275v42.894
				c0,5.602,1.252,9.698,3.763,12.275C873.885,574.258,877.933,575.546,883.541,575.546z"/>
			<path fill="#788771" d="M973.099,594.344h-13.933c-2.511,0-3.757-1.252-3.757-3.757V485.329c0-2.505,1.246-3.757,3.757-3.757
				h13.933c2.505,0,3.757,1.252,3.757,3.757v7.962h0.883c3.539-7.811,10.981-11.719,22.337-11.719h9.728
				c10.757,0,19.015,2.946,24.763,8.845c5.754,5.899,8.627,14.369,8.627,25.428v74.741c0,2.505-1.331,3.757-3.981,3.757h-13.933
				c-2.505,0-3.757-1.252-3.757-3.757v-73.858c0-10.908-5.384-16.365-16.141-16.365h-10.394c-12.088,0-18.132,6.268-18.132,18.797
				v71.426C976.856,593.091,975.604,594.344,973.099,594.344z"/>
		</g>
	</g>
</g>
<g>
</g>
<g>
</g>
<g>
</g>
<g>
</g>
<g>
</g>
<g>
</g>
<g>
</g>
<g>
</g>
<g>
</g>
<g>
</g>
<g>
</g>
<g>
</g>
<g>
</g>
<g>
</g>
<g>
</g>
</svg>
