<?xml version="1.0" encoding="utf-8"?>
<!-- Generator: Adobe Illustrator 27.0.1, SVG Export Plug-In . SVG Version: 6.00 Build 0)  -->
<svg version="1.1" id="Layer_1" xmlns="http://www.w3.org/2000/svg" xmlns:xlink="http://www.w3.org/1999/xlink" x="0px" y="0px"
	 width="1080px" height="1080px" viewBox="0 0 1080 1080" enable-background="new 0 0 1080 1080" xml:space="preserve">
<g>
	<rect x="225.679" y="112.285" fill="#FE000C" width="631.005" height="631.007"/>
	<g>
		<path fill="#FFFFFF" d="M333.274,226.19h14.364v1.207c-1.589,0-2.668,0.161-3.233,0.493c-0.565,0.324-0.939,0.864-1.118,1.633
			c-0.179,0.767-0.266,2.624-0.266,5.56v3.632c-0.395-0.067-0.745-0.098-1.057-0.098c-1.261,0-2.912,0.39-4.96,1.182
			c-2.78,1.073-5.359,1.609-7.729,1.609c-4.765,0-8.723-1.609-11.88-4.828c-3.159-3.213-4.739-7.293-4.739-12.235
			c0-4.895,1.506-9.174,4.518-12.858c3.012-3.675,7.104-5.52,12.266-5.52c4.451,0,8.135,1.682,11.05,5.045
			c0.54-1.174,0.883-2.445,1.033-3.813h1.176v11.419h-1.176c-0.475-3.505-1.776-6.294-3.893-8.342
			c-2.117-2.046-4.694-3.077-7.722-3.077c-3.126,0-5.85,1.198-8.17,3.585c-2.327,2.385-3.489,6.615-3.489,12.706
			c0,6.062,1.12,10.361,3.364,12.891c2.245,2.532,5.029,3.795,8.347,3.795c1.707,0,3.251-0.361,4.638-1.073
			c1.392-0.712,2.338-1.584,2.847-2.61c0.509-1.026,0.763-2.32,0.763-3.878c0-1.834-0.12-3.059-0.357-3.67
			c-0.239-0.616-0.6-1.02-1.093-1.238c-0.486-0.207-1.388-0.31-2.699-0.31h-0.785V226.19z"/>
		<path fill="#FFFFFF" d="M413.726,230.144h1.174l-0.71,10.638h-27.565v-1.156h0.687c1.653,0,2.72-0.239,3.197-0.683
			c0.482-0.453,0.794-1.033,0.928-1.731c0.134-0.696,0.196-2.472,0.196-5.332v-16.76c0-2.612-0.067-4.322-0.21-5.145
			c-0.138-0.821-0.462-1.397-0.959-1.723c-0.5-0.328-1.555-0.495-3.153-0.495v-1.158h23.785l0.781,8.52h-1.149
			c-0.524-2.389-1.167-4.081-1.93-5.082c-0.758-1.002-1.664-1.622-2.711-1.888c-1.055-0.265-2.735-0.393-5.06-0.393h-4.609v14.346
			h3.536c1.611,0,2.753-0.143,3.391-0.43c0.649-0.284,1.078-0.716,1.281-1.296c0.205-0.585,0.312-1.713,0.312-3.391h1.149v11.689
			h-1.149c0-1.892-0.161-3.163-0.469-3.811c-0.312-0.645-0.772-1.069-1.365-1.263c-0.594-0.19-1.607-0.288-3.03-0.288h-3.657v8.088
			c0,4.054,0.254,6.441,0.754,7.151c0.515,0.714,1.876,1.075,4.103,1.075h2.483c1.751,0,3.188-0.239,4.317-0.696
			c1.124-0.46,2.209-1.41,3.226-2.856C412.325,234.644,413.14,232.667,413.726,230.144z"/>
		<path fill="#FFFFFF" d="M481.334,230.144h1.18l-0.716,10.638h-27.565v-1.156h0.683c1.658,0,2.724-0.239,3.208-0.683
			c0.482-0.453,0.785-1.033,0.921-1.731c0.129-0.696,0.196-2.472,0.196-5.332v-16.76c0-2.612-0.074-4.322-0.212-5.145
			c-0.134-0.821-0.451-1.397-0.957-1.723c-0.495-0.328-1.546-0.495-3.157-0.495v-1.158h23.792l0.785,8.52h-1.153
			c-0.522-2.389-1.167-4.081-1.934-5.082c-0.754-1.002-1.66-1.622-2.708-1.888s-2.738-0.393-5.056-0.393h-4.607v14.346h3.527
			c1.624,0,2.753-0.143,3.398-0.43c0.649-0.284,1.073-0.716,1.278-1.296c0.205-0.585,0.308-1.713,0.308-3.391h1.151v11.689h-1.151
			c0-1.892-0.156-3.163-0.469-3.811c-0.308-0.645-0.763-1.069-1.363-1.263c-0.593-0.19-1.609-0.288-3.032-0.288h-3.648v8.088
			c0,4.054,0.245,6.441,0.752,7.151c0.509,0.714,1.879,1.075,4.101,1.075h2.477c1.754,0,3.195-0.239,4.328-0.696
			c1.125-0.46,2.202-1.41,3.224-2.856C479.94,234.644,480.738,232.667,481.334,230.144z"/>
		<path fill="#FFFFFF" d="M550.192,230.715l-0.245,10.066h-28.272v-1.156h0.984c1.423,0,2.407-0.192,2.951-0.558
			c0.556-0.37,0.904-0.95,1.06-1.727c0.154-0.788,0.236-2.601,0.236-5.462v-16.76c0-2.731-0.082-4.482-0.236-5.265
			c-0.156-0.796-0.48-1.339-0.986-1.642c-0.493-0.306-1.589-0.455-3.275-0.455h-0.734v-1.158h15.979v1.158h-1.468
			c-1.647,0-2.718,0.136-3.224,0.415c-0.502,0.283-0.846,0.799-1.015,1.555c-0.174,0.75-0.254,2.546-0.254,5.392v17.898
			c0,2.468,0.062,4.016,0.192,4.641c0.132,0.62,0.486,1.102,1.069,1.446c0.58,0.343,1.83,0.522,3.742,0.522h2.535
			c2.039,0,3.561-0.192,4.547-0.558c0.991-0.37,1.934-1.176,2.824-2.425c0.886-1.238,1.705-3.217,2.441-5.928H550.192z"/>
		<path fill="#FFFFFF" d="M585.413,223.468c0-5.279,1.711-9.518,5.147-12.71c3.44-3.197,7.731-4.79,12.869-4.79
			c5.185,0,9.522,1.578,12.998,4.743c3.476,3.155,5.212,7.465,5.212,12.929c0,5.294-1.674,9.58-4.996,12.853
			c-3.331,3.277-7.711,4.915-13.143,4.915c-5.288,0-9.616-1.638-13.007-4.915C587.104,233.22,585.413,228.872,585.413,223.468z
			 M591.034,223.64c0,5.491,1.064,9.618,3.204,12.376c2.129,2.762,5.341,4.139,9.607,4.139c3.748,0,6.706-1.376,8.884-4.139
			c2.171-2.758,3.262-6.863,3.262-12.329c0-5.306-1.069-9.377-3.213-12.206c-2.142-2.836-5.252-4.259-9.321-4.259
			c-4.02,0-7.09,1.392-9.219,4.15C592.098,214.136,591.034,218.232,591.034,223.64z"/>
		<path fill="#FFFFFF" d="M686.313,241.56l-23.547-32.036v23.718c0,1.968,0.098,3.262,0.286,3.884
			c0.187,0.625,0.729,1.194,1.609,1.713c0.886,0.518,2.209,0.785,3.978,0.785v1.156h-12.423v-1.156
			c1.589-0.116,2.793-0.417,3.637-0.897c0.83-0.484,1.33-1,1.482-1.553c0.156-0.556,0.236-1.87,0.236-3.933V215.12
			c0-2.626-0.125-4.38-0.359-5.265c-0.239-0.895-0.613-1.461-1.127-1.718c-0.518-0.252-1.669-0.379-3.452-0.379v-1.158h9.814
			l19.714,26.746V212.9c0-1.51-0.154-2.572-0.451-3.172c-0.308-0.611-0.924-1.085-1.859-1.439c-0.928-0.355-2.05-0.531-3.362-0.531
			v-1.158h12.079v1.158c-1.408,0.118-2.525,0.4-3.324,0.835c-0.812,0.437-1.325,0.957-1.548,1.575
			c-0.219,0.611-0.33,1.651-0.33,3.11v28.283H686.313z"/>
		<path fill="#FFFFFF" d="M549.669,378.157l-23.536-32.043v23.718c0,1.97,0.096,3.26,0.277,3.884
			c0.192,0.616,0.727,1.194,1.609,1.713c0.888,0.524,2.218,0.783,3.978,0.783v1.156h-12.42v-1.156
			c1.584-0.116,2.802-0.419,3.637-0.895c0.832-0.48,1.33-1.004,1.486-1.553c0.156-0.553,0.228-1.867,0.228-3.933v-18.132
			c0-2.612-0.112-4.373-0.348-5.265c-0.25-0.89-0.618-1.455-1.133-1.711c-0.513-0.248-1.669-0.379-3.449-0.379v-1.162h9.817
			l19.707,26.75v-20.448c0-1.508-0.152-2.575-0.453-3.175c-0.299-0.602-0.924-1.087-1.849-1.439
			c-0.937-0.35-2.064-0.527-3.362-0.527v-1.162h12.072v1.162c-1.406,0.125-2.514,0.402-3.322,0.837
			c-0.812,0.428-1.33,0.959-1.548,1.577c-0.219,0.605-0.335,1.647-0.335,3.108v28.29H549.669z"/>
		<path fill="#FFFFFF" d="M741.795,226.824v14.352h-1.218c0-1.58-0.154-2.662-0.48-3.226c-0.33-0.565-0.879-0.935-1.647-1.118
			c-0.758-0.181-2.619-0.27-5.557-0.27h-3.628c0.063-0.392,0.096-0.743,0.096-1.06c0-1.254-0.388-2.905-1.18-4.946
			c-1.071-2.793-1.611-5.363-1.611-7.733c0-4.768,1.611-8.728,4.828-11.887c3.217-3.157,7.298-4.737,12.235-4.737
			c4.89,0,9.181,1.508,12.86,4.518c3.677,3.014,5.515,7.101,5.515,12.273c0,4.451-1.678,8.13-5.038,11.044
			c1.178,0.54,2.445,0.879,3.806,1.035v1.174h-11.414v-1.174c3.507-0.477,6.287-1.776,8.34-3.891
			c2.05-2.126,3.074-4.694,3.074-7.717c0-3.13-1.194-5.852-3.579-8.177c-2.387-2.327-6.62-3.485-12.704-3.485
			c-6.071,0-10.365,1.12-12.895,3.364c-2.53,2.236-3.797,5.015-3.797,8.344c0,1.698,0.366,3.242,1.075,4.634
			c0.714,1.388,1.584,2.34,2.606,2.853c1.026,0.5,2.316,0.756,3.884,0.756c1.827,0,3.052-0.118,3.663-0.355
			c0.616-0.234,1.029-0.607,1.243-1.093c0.207-0.491,0.303-1.395,0.303-2.695v-0.785H741.795z"/>
		<path fill="#FFFFFF" d="M467.767,342.063c5.279,0,9.513,1.722,12.71,5.16c3.188,3.425,4.786,7.722,4.786,12.855
			c0,5.189-1.58,9.52-4.741,13c-3.153,3.476-7.467,5.212-12.933,5.21c-5.288,0.007-9.58-1.662-12.849-4.993
			c-3.284-3.331-4.928-7.706-4.928-13.143c0.009-5.285,1.644-9.62,4.928-13.003C458.008,343.749,462.357,342.063,467.767,342.063z
			 M467.589,347.683c-5.493,0.002-9.621,1.064-12.374,3.204c-2.758,2.137-4.132,5.339-4.132,9.607c0,3.746,1.374,6.711,4.132,8.886
			c2.749,2.177,6.867,3.259,12.329,3.264c5.31-0.005,9.379-1.073,12.217-3.217c2.829-2.142,4.243-5.25,4.248-9.324
			c-0.005-4.009-1.388-7.079-4.154-9.216C477.084,348.756,473.001,347.683,467.589,347.683z"/>
		<path fill="#FFFFFF" d="M449.673,439.629l32.034-23.538h-23.721c-1.963,0-3.262,0.091-3.875,0.281
			c-0.627,0.19-1.198,0.727-1.716,1.609c-0.529,0.883-0.79,2.209-0.79,3.976h-1.162v-12.423h1.162
			c0.125,1.593,0.424,2.807,0.897,3.639c0.482,0.837,1,1.328,1.551,1.482c0.562,0.161,1.869,0.234,3.933,0.239l18.125-0.005
			c2.619,0.005,4.377-0.118,5.27-0.355c0.883-0.241,1.464-0.616,1.713-1.127c0.254-0.515,0.379-1.671,0.379-3.454l1.158-0.005v9.817
			l-26.744,19.72h20.445c1.51,0,2.57-0.156,3.175-0.46c0.605-0.303,1.082-0.917,1.435-1.854c0.357-0.928,0.526-2.052,0.535-3.36
			h1.154v12.081h-1.162c-0.111-1.412-0.392-2.526-0.83-3.329c-0.433-0.812-0.964-1.33-1.569-1.553
			c-0.618-0.214-1.655-0.326-3.115-0.321l-28.283-0.005V439.629z"/>
		<path fill="#FFFFFF" d="M470.67,500.109h14.361v1.209c-1.588,0-2.664,0.165-3.226,0.495c-0.571,0.326-0.939,0.872-1.116,1.64
			c-0.187,0.763-0.277,2.617-0.272,5.553l-0.005,3.632c-0.386-0.062-0.745-0.096-1.053-0.103c-1.251,0-2.914,0.397-4.966,1.187
			c-2.776,1.073-5.341,1.617-7.719,1.617c-4.757,0-8.728-1.617-11.883-4.83c-3.161-3.219-4.734-7.293-4.73-12.244
			c0-4.893,1.495-9.167,4.511-12.855c3.007-3.679,7.106-5.526,12.271-5.526c4.458,0,8.134,1.689,11.046,5.056
			c0.544-1.18,0.881-2.448,1.031-3.808l1.171,0.005l0.007,11.414h-1.178c-0.475-3.514-1.771-6.294-3.889-8.344
			c-2.12-2.05-4.703-3.07-7.728-3.07c-3.112,0-5.848,1.182-8.175,3.572c-2.32,2.389-3.48,6.617-3.476,12.701
			c-0.005,6.071,1.124,10.368,3.355,12.9c2.249,2.521,5.027,3.793,8.353,3.784c1.704,0.009,3.248-0.35,4.636-1.066
			c1.39-0.712,2.338-1.578,2.847-2.608c0.509-1.024,0.768-2.32,0.768-3.887c0-1.825-0.121-3.043-0.357-3.663
			c-0.241-0.616-0.607-1.026-1.098-1.234c-0.491-0.212-1.392-0.317-2.704-0.317h-0.783V500.109z"/>
		<path fill="#FFFFFF" d="M393.192,373.494l-10.062-0.246v-28.276h1.16v0.984c0,1.428,0.188,2.412,0.558,2.954
			c0.366,0.551,0.944,0.904,1.727,1.055c0.779,0.154,2.599,0.237,5.453,0.237h16.769c2.717,0,4.476-0.083,5.265-0.237
			c0.794-0.152,1.343-0.48,1.642-0.981c0.299-0.498,0.451-1.586,0.451-3.275v-0.736h1.158v15.983h-1.158v-1.472
			c0-1.644-0.136-2.706-0.415-3.222c-0.272-0.502-0.794-0.846-1.548-1.017c-0.759-0.165-2.557-0.252-5.395-0.252H390.9
			c-2.474,0-4.018,0.063-4.641,0.19c-0.62,0.132-1.104,0.486-1.452,1.073c-0.344,0.573-0.518,1.823-0.518,3.739v2.532
			c0,2.041,0.188,3.556,0.558,4.547c0.366,0.991,1.176,1.939,2.414,2.825c1.249,0.897,3.217,1.709,5.93,2.441V373.494z"/>
		<path fill="#FFFFFF" d="M400.456,409.987c5.272,0,9.507,1.727,12.702,5.158c3.188,3.438,4.79,7.717,4.79,12.86
			c0,5.192-1.582,9.52-4.745,12.994c-3.157,3.483-7.465,5.221-12.924,5.221c-5.297,0-9.589-1.667-12.86-4.995
			c-3.28-3.331-4.92-7.713-4.92-13.143c0-5.29,1.64-9.618,4.92-13.009C390.688,411.683,395.039,409.987,400.456,409.987z
			 M400.278,415.608c-5.5,0-9.629,1.075-12.38,3.208c-2.755,2.137-4.134,5.337-4.134,9.609c0,3.744,1.379,6.704,4.134,8.886
			c2.751,2.175,6.865,3.259,12.322,3.259c5.317,0,9.384-1.062,12.219-3.208c2.831-2.153,4.241-5.258,4.241-9.335
			c0-4.005-1.374-7.075-4.145-9.212C409.771,416.683,405.681,415.608,400.278,415.608z"/>
		<path fill="#FFFFFF" d="M382.349,510.742l32.043-23.538h-23.73c-1.957,0-3.253,0.094-3.873,0.29
			c-0.627,0.183-1.194,0.716-1.713,1.604c-0.527,0.884-0.785,2.209-0.785,3.974h-1.16v-12.416h1.16
			c0.121,1.582,0.419,2.796,0.893,3.634c0.484,0.828,1.002,1.33,1.557,1.477c0.549,0.159,1.861,0.234,3.922,0.234h18.134
			c2.621,0,4.384-0.116,5.265-0.355c0.888-0.236,1.468-0.616,1.718-1.122c0.252-0.524,0.375-1.664,0.375-3.449h1.158v9.81
			L390.572,510.6h20.445c1.506,0,2.566-0.15,3.173-0.455c0.602-0.305,1.084-0.919,1.437-1.854c0.35-0.933,0.527-2.057,0.527-3.355
			h1.158v12.072h-1.158c-0.114-1.412-0.388-2.521-0.83-3.331c-0.437-0.81-0.964-1.325-1.58-1.544
			c-0.604-0.212-1.649-0.332-3.106-0.332h-28.29V510.742z"/>
		<path fill="#FFFFFF" d="M403.354,568.801h14.357v1.211c-1.584,0-2.659,0.161-3.226,0.489c-0.562,0.33-0.937,0.875-1.111,1.633
			c-0.185,0.768-0.277,2.628-0.277,5.564v3.628c-0.39-0.058-0.741-0.094-1.051-0.094c-1.263,0-2.912,0.395-4.96,1.18
			c-2.78,1.082-5.359,1.617-7.733,1.617c-4.761,0-8.728-1.613-11.874-4.833c-3.168-3.217-4.743-7.295-4.743-12.237
			c0-4.89,1.499-9.17,4.516-12.86c3.012-3.677,7.104-5.522,12.275-5.522c4.444,0,8.135,1.684,11.044,5.044
			c0.54-1.176,0.888-2.439,1.031-3.799h1.178v11.412h-1.178c-0.477-3.512-1.769-6.289-3.895-8.337
			c-2.108-2.048-4.69-3.074-7.715-3.074c-3.126,0-5.845,1.187-8.175,3.574c-2.323,2.383-3.485,6.622-3.485,12.706
			c0,6.062,1.118,10.368,3.36,12.893c2.249,2.535,5.031,3.797,8.349,3.797c1.707,0,3.248-0.359,4.641-1.076
			c1.39-0.712,2.338-1.58,2.847-2.61c0.513-1.024,0.758-2.318,0.758-3.887c0-1.821-0.116-3.048-0.353-3.666
			c-0.241-0.609-0.598-1.02-1.093-1.232c-0.491-0.205-1.392-0.312-2.699-0.312h-0.788V568.801z"/>
		<path fill="#FFFFFF" d="M323.462,303.356l-0.004,1.176l-10.64-0.716v-27.554l1.165-0.009l-0.004,0.687
			c0,1.66,0.228,2.724,0.676,3.208c0.464,0.477,1.035,0.792,1.736,0.917c0.696,0.134,2.477,0.196,5.323,0.196h16.773
			c2.604-0.007,4.313-0.069,5.136-0.205c0.828-0.145,1.401-0.459,1.729-0.959c0.328-0.5,0.493-1.548,0.493-3.157H347l0.009,23.79
			l-8.527,0.783l0.005-1.153c2.383-0.524,4.074-1.169,5.076-1.928c1-0.761,1.626-1.662,1.896-2.713
			c0.261-1.053,0.386-2.733,0.386-5.06v-4.605h-14.346v3.53c0,1.62,0.147,2.758,0.424,3.396c0.286,0.647,0.716,1.069,1.307,1.278
			c0.578,0.207,1.705,0.31,3.387,0.31v1.151h-11.695v-1.151c1.899,0,3.164-0.158,3.815-0.469c0.654-0.31,1.073-0.761,1.265-1.365
			c0.192-0.594,0.288-1.6,0.279-3.023v-3.657l-8.083-0.007c-4.049,0.007-6.432,0.254-7.144,0.763
			c-0.712,0.507-1.075,1.869-1.071,4.094l-0.004,2.485c0,1.756,0.236,3.188,0.698,4.31c0.451,1.133,1.415,2.211,2.845,3.242
			C318.964,301.959,320.932,302.769,323.462,303.356z"/>
		<path fill="#FFFFFF" d="M323.458,372.242l0.004,1.178l-10.644-0.712v-27.556h1.16l0.004,0.678c0,1.655,0.228,2.72,0.676,3.195
			c0.46,0.493,1.031,0.801,1.727,0.933c0.7,0.125,2.477,0.192,5.332,0.192h16.769c2.599,0,4.313-0.074,5.136-0.205
			c0.823-0.138,1.401-0.46,1.729-0.962c0.337-0.498,0.493-1.546,0.502-3.153h1.156L347,369.616l-8.514,0.788v-1.16
			c2.378-0.511,4.074-1.16,5.076-1.919c1-0.768,1.626-1.664,1.896-2.713c0.257-1.049,0.395-2.738,0.395-5.06l-0.009-4.612h-14.346
			v3.527c0,1.629,0.147,2.76,0.424,3.407c0.286,0.652,0.723,1.064,1.307,1.276c0.578,0.205,1.705,0.303,3.387,0.303l-0.004,1.158
			h-11.691l0.005-1.162c1.894,0.004,3.159-0.154,3.815-0.466c0.649-0.303,1.069-0.754,1.26-1.361c0.192-0.598,0.279-1.6,0.292-3.025
			l-0.005-3.657h-8.092c-4.049,0-6.432,0.254-7.148,0.765c-0.712,0.504-1.071,1.865-1.071,4.094l0.004,2.477
			c0,1.747,0.223,3.195,0.698,4.322c0.451,1.133,1.41,2.206,2.84,3.228C318.96,370.85,320.936,371.658,323.458,372.242z"/>
		<path fill="#FFFFFF" d="M322.882,440.33l-10.064-0.241v-28.277h1.165l-0.004,0.986c0.004,1.421,0.187,2.405,0.555,2.954
			c0.368,0.549,0.946,0.904,1.727,1.055c0.785,0.154,2.606,0.234,5.457,0.234h16.769c2.72,0,4.473-0.08,5.265-0.234
			c0.792-0.154,1.334-0.48,1.644-0.98c0.297-0.502,0.448-1.597,0.448-3.282v-0.734h1.165L347,427.784l-1.156,0.009l0.009-1.475
			c0-1.64-0.147-2.704-0.426-3.217c-0.279-0.504-0.796-0.846-1.551-1.015c-0.754-0.174-2.555-0.257-5.395-0.257h-17.902
			c-2.461,0-4.016,0.065-4.627,0.199c-0.625,0.125-1.113,0.482-1.459,1.064c-0.348,0.582-0.511,1.827-0.511,3.739l-0.004,2.532
			c0,2.042,0.187,3.563,0.551,4.547c0.373,0.993,1.178,1.939,2.427,2.827c1.247,0.888,3.222,1.709,5.926,2.441V440.33z"/>
		<path fill="#FFFFFF" d="M330.137,480.221c5.279,0,9.518,1.718,12.702,5.158c3.201,3.438,4.794,7.724,4.799,12.864
			c0,5.183-1.58,9.515-4.746,12.996c-3.161,3.476-7.467,5.21-12.931,5.21c-5.292,0.005-9.574-1.658-12.853-4.986
			c-3.282-3.333-4.919-7.711-4.919-13.148c0.004-5.285,1.633-9.618,4.919-13.003C320.387,481.915,324.727,480.221,330.137,480.221z
			 M329.961,485.846c-5.495,0-9.623,1.066-12.374,3.204c-2.758,2.129-4.145,5.337-4.141,9.607c0,3.746,1.383,6.713,4.134,8.889
			c2.758,2.169,6.876,3.262,12.333,3.266c5.314-0.004,9.384-1.075,12.206-3.219c2.84-2.142,4.25-5.252,4.25-9.326
			c0-4.011-1.383-7.079-4.139-9.217C339.459,486.912,335.376,485.846,329.961,485.846z"/>
		<path fill="#FFFFFF" d="M312.039,577.987l32.04-23.54l-23.727,0.009c-1.968,0-3.257,0.085-3.873,0.268
			c-0.625,0.201-1.196,0.732-1.722,1.62c-0.52,0.879-0.774,2.202-0.774,3.976h-1.165v-12.425h1.165
			c0.118,1.591,0.408,2.802,0.895,3.639c0.482,0.834,0.986,1.33,1.548,1.481c0.558,0.156,1.863,0.239,3.927,0.239h18.134
			c2.61,0,4.375-0.127,5.265-0.355c0.892-0.243,1.459-0.618,1.711-1.129c0.265-0.522,0.382-1.667,0.39-3.456H347l0.009,9.817
			l-26.755,19.716h20.45c1.51,0,2.559-0.156,3.179-0.457c0.598-0.303,1.073-0.917,1.426-1.856c0.357-0.933,0.536-2.055,0.536-3.362
			h1.165L347,584.249h-1.156c-0.112-1.41-0.395-2.517-0.83-3.327c-0.442-0.81-0.966-1.323-1.575-1.551
			c-0.618-0.214-1.66-0.326-3.112-0.326l-28.288-0.004V577.987z"/>
		<path fill="#FFFFFF" d="M333.042,636.414l14.359,0.004v1.211c-1.584,0-2.664,0.158-3.233,0.489
			c-0.562,0.323-0.93,0.872-1.102,1.638c-0.192,0.761-0.283,2.621-0.283,5.558l-0.005,3.637c-0.379-0.074-0.736-0.101-1.044-0.109
			c-1.261,0-2.918,0.397-4.967,1.191c-2.775,1.071-5.354,1.609-7.728,1.609c-4.757,0-8.728-1.609-11.874-4.828
			c-3.173-3.21-4.746-7.298-4.746-12.237c0-4.89,1.508-9.167,4.518-12.86c3.012-3.683,7.099-5.52,12.271-5.515
			c4.457,0,8.134,1.684,11.048,5.04c0.54-1.171,0.879-2.443,1.031-3.806h1.176v11.414h-1.176c-0.471-3.507-1.763-6.29-3.893-8.342
			c-2.113-2.048-4.69-3.072-7.717-3.072c-3.121,0-5.85,1.191-8.17,3.581c-2.332,2.381-3.487,6.615-3.483,12.697
			c0,6.062,1.116,10.37,3.362,12.893c2.236,2.539,5.02,3.799,8.335,3.799c1.709,0,3.257-0.359,4.645-1.069
			c1.39-0.709,2.338-1.586,2.845-2.61c0.507-1.031,0.761-2.323,0.761-3.884c0.004-1.832-0.12-3.055-0.357-3.668
			c-0.241-0.609-0.602-1.024-1.098-1.234c-0.486-0.212-1.383-0.31-2.686-0.31h-0.79V636.414z"/>
		<path fill="#FFFFFF" d="M411.772,299.331h1.171l-0.712,10.64h-27.563v-1.16h0.692c1.651,0,2.72-0.225,3.204-0.683
			c0.477-0.453,0.788-1.026,0.921-1.724c0.125-0.703,0.192-2.481,0.192-5.33v-16.762c0-2.612-0.071-4.328-0.207-5.147
			c-0.145-0.821-0.462-1.394-0.959-1.72c-0.5-0.33-1.549-0.498-3.15-0.498v-1.156h23.783l0.783,8.52h-1.154
			c-0.522-2.387-1.16-4.083-1.919-5.08c-0.765-1.006-1.671-1.629-2.722-1.894c-1.044-0.259-2.726-0.39-5.056-0.39h-4.616v14.346
			h3.541c1.62,0,2.751-0.141,3.396-0.433c0.649-0.283,1.075-0.712,1.281-1.303c0.201-0.573,0.303-1.707,0.303-3.38h1.151v11.693
			h-1.151c0-1.903-0.156-3.173-0.46-3.822c-0.319-0.643-0.774-1.069-1.37-1.263c-0.598-0.19-1.606-0.283-3.03-0.283h-3.661v8.085
			c0,4.054,0.259,6.436,0.756,7.155c0.513,0.712,1.876,1.069,4.11,1.069h2.479c1.749,0,3.184-0.232,4.315-0.696
			c1.131-0.457,2.211-1.408,3.235-2.851C410.375,303.825,411.179,301.85,411.772,299.331z"/>
		<path fill="#FFFFFF" d="M480.631,299.911l-0.245,10.06h-28.272v-1.16h0.977c1.426,0,2.414-0.185,2.958-0.549
			c0.549-0.375,0.897-0.955,1.055-1.731c0.156-0.783,0.232-2.608,0.232-5.457v-16.762c0-2.724-0.076-4.484-0.232-5.272
			c-0.158-0.788-0.48-1.332-0.979-1.635c-0.504-0.303-1.589-0.457-3.28-0.457h-0.732v-1.156h15.974v1.156h-1.468
			c-1.64,0-2.708,0.141-3.217,0.417c-0.509,0.281-0.848,0.797-1.022,1.553c-0.17,0.75-0.259,2.552-0.259,5.395v17.891
			c0,2.47,0.067,4.025,0.203,4.643c0.125,0.625,0.48,1.102,1.066,1.446c0.578,0.346,1.825,0.52,3.746,0.52h2.521
			c2.048,0,3.567-0.185,4.551-0.549c0.991-0.375,1.928-1.185,2.827-2.423c0.897-1.249,1.707-3.219,2.443-5.928H480.631z"/>
		<path fill="#FFFFFF" d="M515.844,292.651c0-5.276,1.72-9.511,5.156-12.708c3.436-3.19,7.719-4.786,12.86-4.786
			c5.19,0,9.522,1.582,12.998,4.743c3.481,3.15,5.216,7.467,5.216,12.929c0,5.29-1.664,9.578-4.991,12.849
			c-3.336,3.288-7.715,4.922-13.148,4.922c-5.283,0-9.623-1.633-13.007-4.922C517.538,302.408,515.844,298.062,515.844,292.651z
			 M521.464,292.83c0,5.495,1.073,9.62,3.204,12.376c2.135,2.755,5.341,4.134,9.612,4.134c3.744,0,6.711-1.379,8.884-4.134
			c2.182-2.755,3.269-6.867,3.269-12.329c0-5.312-1.073-9.377-3.219-12.208c-2.146-2.833-5.252-4.25-9.326-4.25
			c-4.003,0-7.084,1.388-9.219,4.147C522.537,283.328,521.464,287.417,521.464,292.83z"/>
		<path fill="#FFFFFF" d="M616.744,310.747l-23.529-32.031v23.716c0,1.965,0.085,3.257,0.281,3.882
			c0.183,0.623,0.718,1.194,1.606,1.713c0.879,0.524,2.209,0.783,3.971,0.783v1.16h-12.42v-1.16c1.584-0.123,2.804-0.415,3.63-0.893
			c0.835-0.484,1.334-1.002,1.49-1.551c0.154-0.56,0.23-1.867,0.23-3.935v-18.121c0-2.63-0.118-4.386-0.355-5.272
			c-0.234-0.888-0.611-1.459-1.124-1.711c-0.518-0.254-1.673-0.382-3.451-0.382v-1.156h9.819l19.705,26.739v-20.443
			c0-1.506-0.145-2.566-0.455-3.17c-0.308-0.611-0.919-1.084-1.845-1.437c-0.939-0.357-2.064-0.533-3.367-0.533v-1.156h12.079v1.156
			c-1.41,0.116-2.517,0.399-3.329,0.834c-0.805,0.437-1.33,0.957-1.544,1.578c-0.223,0.605-0.334,1.644-0.334,3.11v28.279H616.744z"
			/>
		<path fill="#FFFFFF" d="M677.86,295.371h14.357v1.214c-1.586,0-2.657,0.158-3.23,0.484c-0.562,0.33-0.937,0.875-1.111,1.647
			c-0.183,0.756-0.277,2.619-0.277,5.555v3.632c-0.384-0.065-0.736-0.098-1.048-0.098c-1.261,0-2.916,0.39-4.958,1.18
			c-2.784,1.073-5.359,1.611-7.737,1.611c-4.757,0-8.714-1.611-11.878-4.83c-3.155-3.213-4.734-7.293-4.734-12.229
			c0-4.899,1.508-9.181,4.516-12.86c3.012-3.683,7.099-5.529,12.271-5.529c4.455,0,8.13,1.682,11.046,5.051
			c0.538-1.182,0.879-2.448,1.033-3.811h1.174v11.421h-1.174c-0.477-3.512-1.776-6.292-3.893-8.344
			c-2.117-2.048-4.692-3.076-7.717-3.076c-3.126,0-5.85,1.196-8.175,3.574c-2.32,2.394-3.48,6.626-3.48,12.713
			c0,6.066,1.12,10.363,3.365,12.887c2.24,2.537,5.013,3.802,8.335,3.802c1.709,0,3.251-0.361,4.641-1.073
			c1.392-0.712,2.347-1.584,2.851-2.615c0.504-1.022,0.758-2.309,0.758-3.88c0-1.825-0.12-3.05-0.353-3.664
			c-0.243-0.613-0.607-1.029-1.097-1.236c-0.491-0.21-1.388-0.312-2.695-0.312h-0.788V295.371z"/>
		<path fill="#FFFFFF" d="M742.964,296.85v-12.639l-2.173-0.866c-3.146-1.276-5.196-1.912-6.144-1.912
			c-1.026,0-1.812,0.337-2.338,1.017c-0.529,0.676-0.799,1.555-0.799,2.612h-1.158v-9.888h1.158
			c0.239,1.472,0.772,2.568,1.602,3.293c0.835,0.716,2.593,1.584,5.256,2.597c0.25,0.08,1.229,0.477,2.927,1.183l23.716,9.667v0.962
			l-27.143,11.115l-3.579,1.519c-0.808,0.35-1.446,0.808-1.91,1.388c-0.462,0.587-0.747,1.452-0.87,2.619h-1.158v-13.087h1.158
			c0,1.604,0.13,2.686,0.366,3.253c0.241,0.564,0.732,0.841,1.455,0.841c0.37,0,1.468-0.37,3.302-1.122L742.964,296.85z
			 M744.089,296.431l14.573-5.895l-14.573-5.861V296.431z"/>
		<path fill="#FFFFFF" d="M740.417,373.476l-10.064-0.255v-28.27h1.158v0.986c0,1.419,0.19,2.405,0.553,2.952
			c0.379,0.549,0.951,0.902,1.727,1.058c0.79,0.15,2.606,0.232,5.459,0.232h16.767c2.722,0,4.48-0.082,5.27-0.232
			c0.792-0.156,1.336-0.486,1.637-0.986c0.299-0.495,0.46-1.586,0.46-3.275v-0.734h1.151v15.974h-1.151v-1.461
			c0-1.649-0.143-2.711-0.419-3.226c-0.279-0.497-0.799-0.846-1.557-1.015c-0.745-0.169-2.546-0.254-5.39-0.254h-17.9
			c-2.465,0-4.014,0.065-4.634,0.19c-0.629,0.132-1.106,0.491-1.457,1.069c-0.341,0.578-0.515,1.832-0.515,3.746v2.532
			c0,2.042,0.19,3.559,0.553,4.545c0.379,0.993,1.182,1.936,2.427,2.824c1.238,0.892,3.217,1.709,5.926,2.443V373.476z"/>
		<path fill="#FFFFFF" d="M740.417,440.879l-10.064-0.245v-28.27h1.158v0.986c0,1.414,0.19,2.403,0.553,2.947
			c0.379,0.556,0.951,0.908,1.727,1.06c0.79,0.154,2.606,0.234,5.459,0.234h16.767c2.722,0,4.48-0.08,5.27-0.234
			c0.792-0.152,1.336-0.482,1.637-0.984c0.299-0.495,0.46-1.591,0.46-3.275v-0.734h1.151v15.974h-1.151v-1.47
			c0-1.642-0.143-2.713-0.419-3.215c-0.279-0.509-0.799-0.854-1.557-1.019c-0.745-0.17-2.546-0.25-5.39-0.25h-17.9
			c-2.465,0-4.014,0.058-4.634,0.19c-0.629,0.129-1.106,0.489-1.457,1.069c-0.341,0.571-0.515,1.829-0.515,3.735v2.539
			c0,2.039,0.19,3.561,0.553,4.545c0.379,0.991,1.182,1.937,2.427,2.829c1.238,0.883,3.217,1.702,5.926,2.439V440.879z"/>
		<path fill="#FFFFFF" d="M740.992,510.238v1.18l-10.64-0.712v-27.562h1.158v0.683c0,1.651,0.232,2.72,0.678,3.204
			c0.46,0.486,1.04,0.792,1.736,0.924c0.696,0.132,2.472,0.194,5.325,0.194h16.767c2.61,0,4.328-0.071,5.145-0.21
			c0.821-0.134,1.399-0.453,1.722-0.953c0.33-0.502,0.5-1.553,0.5-3.159h1.151v23.785l-8.518,0.788v-1.154
			c2.387-0.522,4.078-1.165,5.082-1.93c0.997-0.761,1.626-1.667,1.89-2.713c0.261-1.04,0.395-2.726,0.395-5.051v-4.62h-14.355v3.534
			c0,1.622,0.143,2.758,0.433,3.411c0.29,0.638,0.718,1.062,1.305,1.267c0.573,0.203,1.705,0.308,3.387,0.308v1.151H742.46v-1.151
			c1.896,0,3.173-0.156,3.815-0.466c0.647-0.308,1.071-0.761,1.258-1.363c0.19-0.596,0.286-1.611,0.286-3.032v-3.659h-8.09
			c-4.045,0-6.43,0.257-7.144,0.763c-0.716,0.506-1.076,1.874-1.076,4.103v2.474c0,1.753,0.232,3.195,0.696,4.324
			c0.46,1.133,1.415,2.207,2.854,3.226C736.494,508.846,738.467,509.647,740.992,510.238z"/>
		<path fill="#FFFFFF" d="M730.352,582.656v-8.958c1.14-1.595,4.139-4.02,8.973-7.296c1.551-1.044,3.032-2.135,4.453-3.259
			c1.421-1.131,2.285-1.912,2.595-2.329c0.312-0.433,0.466-1.091,0.466-1.995v-1.325h-7.59c-2.684,0-4.446,0.06-5.281,0.185
			c-0.83,0.125-1.45,0.451-1.852,0.984c-0.404,0.526-0.607,1.548-0.607,3.054v1.595h-1.158V547.39h1.158v1.071
			c0,1.426,0.19,2.416,0.553,2.961c0.379,0.547,0.951,0.897,1.727,1.044c0.79,0.145,2.606,0.219,5.459,0.219h16.767
			c2.722,0,4.48-0.074,5.27-0.219c0.792-0.147,1.336-0.475,1.637-0.986c0.299-0.504,0.46-1.606,0.46-3.286v-0.571h1.151l0.259,4.768
			c0.147,3.172,0.219,5.693,0.219,7.559c0,3.179-0.299,5.756-0.901,7.742c-0.607,1.995-1.602,3.596-2.976,4.824
			c-1.379,1.238-3.021,1.845-4.94,1.845c-2.238,0-4.143-0.806-5.722-2.403c-1.582-1.604-2.564-3.964-2.947-7.072
			c-0.698,1.397-3.177,3.634-7.465,6.724c-3.48,2.525-5.752,4.5-6.827,5.941c-1.084,1.443-1.651,3.139-1.723,5.107H730.352z
			 M747.998,557.494c0.036,1.232,0.085,2.497,0.152,3.808c0.071,1.303,0.254,2.441,0.558,3.411c0.299,0.964,0.745,1.747,1.325,2.34
			c0.578,0.596,1.341,1.066,2.278,1.414c0.941,0.344,2.102,0.511,3.483,0.511c2.4,0,4.324-0.587,5.769-1.751
			c1.441-1.167,2.173-3.719,2.173-7.648c0-0.6-0.036-1.294-0.107-2.086H747.998z"/>
		<path fill="#FFFFFF" d="M408.091,638.419h-12.646l-0.854,2.169c-1.278,3.141-1.912,5.194-1.912,6.147
			c0,1.029,0.335,1.809,1.013,2.336c0.683,0.529,1.546,0.801,2.612,0.801v1.16h-9.886v-1.16c1.466-0.245,2.566-0.772,3.291-1.604
			c0.716-0.839,1.586-2.59,2.604-5.265c0.076-0.241,0.469-1.218,1.174-2.914l9.669-23.725h0.957l11.117,27.15l1.524,3.574
			c0.346,0.814,0.814,1.443,1.383,1.907c0.587,0.462,1.457,0.75,2.617,0.877v1.16H407.68v-1.16c1.6,0,2.677-0.127,3.244-0.37
			c0.56-0.241,0.852-0.732,0.852-1.452c0-0.371-0.377-1.466-1.133-3.298L408.091,638.419z M407.68,637.286l-5.899-14.573
			l-5.868,14.573H407.68z"/>
		<path fill="#FFFFFF" d="M538.804,429.712h14.366v1.209c-1.586,0-2.666,0.163-3.228,0.489c-0.562,0.323-0.933,0.872-1.106,1.633
			c-0.188,0.765-0.277,2.628-0.277,5.562v3.63c-0.388-0.067-0.743-0.098-1.06-0.107c-1.254,0-2.916,0.404-4.96,1.196
			c-2.775,1.073-5.354,1.611-7.737,1.611c-4.752,0-8.715-1.611-11.86-4.828c-3.173-3.215-4.75-7.3-4.75-12.242
			c0-4.884,1.51-9.172,4.516-12.853c3.017-3.686,7.102-5.524,12.273-5.52c4.455,0,8.13,1.68,11.044,5.042
			c0.544-1.176,0.886-2.443,1.04-3.806h1.169v11.416h-1.169c-0.477-3.514-1.769-6.294-3.9-8.342
			c-2.115-2.048-4.683-3.074-7.715-3.074c-3.128,0-5.85,1.189-8.173,3.577c-2.331,2.387-3.489,6.619-3.485,12.701
			c0,6.066,1.114,10.37,3.358,12.898c2.244,2.532,5.024,3.797,8.353,3.797c1.696,0,3.248-0.361,4.634-1.071
			c1.39-0.716,2.341-1.589,2.845-2.613c0.513-1.026,0.758-2.318,0.763-3.884c0.005-1.825-0.12-3.054-0.352-3.666
			c-0.241-0.611-0.602-1.024-1.1-1.231c-0.486-0.212-1.381-0.315-2.693-0.315h-0.794V429.712z"/>
		<path fill="#FFFFFF" d="M540.406,501.519h-12.641l-0.857,2.171c-1.285,3.139-1.912,5.187-1.912,6.14
			c0,1.031,0.337,1.807,1.011,2.338c0.683,0.524,1.555,0.796,2.619,0.796v1.156h-9.893v-1.156c1.472-0.241,2.57-0.765,3.293-1.604
			c0.721-0.832,1.58-2.586,2.602-5.256c0.08-0.254,0.475-1.227,1.176-2.925l9.672-23.716h0.955l11.12,27.141l1.526,3.581
			c0.344,0.806,0.803,1.439,1.383,1.908c0.585,0.466,1.45,0.752,2.619,0.872v1.156h-13.092v-1.156c1.606,0,2.686-0.125,3.257-0.37
			c0.558-0.243,0.848-0.727,0.848-1.443c0-0.373-0.375-1.473-1.127-3.311L540.406,501.519z M539.987,500.381l-5.888-14.571
			l-5.865,14.571H539.987z"/>
		<path fill="#FFFFFF" d="M485.571,640.963l-0.252,10.069h-28.274v-1.16h0.984c1.419,0,2.407-0.19,2.961-0.562
			c0.542-0.37,0.897-0.948,1.053-1.725c0.156-0.787,0.236-2.601,0.236-5.457v-16.764c0-2.724-0.08-4.48-0.236-5.27
			c-0.156-0.792-0.488-1.332-0.986-1.635c-0.491-0.308-1.595-0.466-3.273-0.466h-0.739v-1.149h15.979v1.149h-1.464
			c-1.647,0-2.717,0.147-3.222,0.422c-0.5,0.281-0.848,0.803-1.017,1.553c-0.174,0.756-0.259,2.554-0.259,5.397v17.897
			c0,2.463,0.071,4.016,0.196,4.641c0.125,0.625,0.486,1.107,1.062,1.448c0.584,0.341,1.834,0.522,3.744,0.522h2.535
			c2.042,0,3.563-0.19,4.549-0.562c0.993-0.37,1.932-1.176,2.825-2.421c0.895-1.245,1.702-3.217,2.445-5.926H485.571z"/>
		<path fill="#FFFFFF" d="M552.124,640.963l-0.245,10.069h-28.277v-1.16h0.986c1.417,0,2.398-0.19,2.956-0.562
			c0.542-0.37,0.895-0.948,1.055-1.725c0.152-0.787,0.232-2.601,0.232-5.457v-16.764c0-2.724-0.08-4.48-0.232-5.27
			c-0.161-0.792-0.491-1.332-0.986-1.635c-0.498-0.308-1.595-0.466-3.275-0.466h-0.736v-1.149h15.979v1.149h-1.468
			c-1.642,0-2.717,0.147-3.217,0.422c-0.504,0.281-0.852,0.803-1.022,1.553c-0.174,0.756-0.257,2.554-0.257,5.397v17.897
			c0,2.463,0.069,4.016,0.194,4.641c0.129,0.625,0.486,1.107,1.066,1.448c0.584,0.341,1.834,0.522,3.746,0.522h2.532
			c2.039,0,3.565-0.19,4.549-0.562c0.993-0.37,1.925-1.176,2.827-2.421c0.888-1.245,1.7-3.217,2.441-5.926H552.124z"/>
		<path fill="#FFFFFF" d="M618.433,640.387h1.176l-0.712,10.644h-27.558v-1.16h0.678c1.658,0,2.724-0.232,3.206-0.683
			c0.482-0.46,0.788-1.037,0.917-1.734c0.141-0.694,0.203-2.472,0.203-5.328v-16.764c0-2.61-0.076-4.324-0.212-5.147
			c-0.136-0.821-0.457-1.397-0.957-1.722c-0.5-0.326-1.548-0.502-3.157-0.502v-1.149h23.788l0.785,8.52h-1.151
			c-0.533-2.392-1.171-4.078-1.93-5.08c-0.759-1.008-1.669-1.624-2.718-1.892c-1.042-0.261-2.731-0.399-5.051-0.399h-4.609v14.352
			h3.529c1.62,0,2.753-0.141,3.4-0.424c0.642-0.288,1.066-0.723,1.281-1.303c0.205-0.578,0.299-1.709,0.299-3.389h1.151v11.695
			h-1.151c0-1.901-0.156-3.173-0.46-3.815c-0.321-0.652-0.765-1.073-1.361-1.263c-0.6-0.192-1.611-0.286-3.039-0.286h-3.65v8.083
			c0,4.052,0.248,6.437,0.763,7.153c0.502,0.714,1.87,1.075,4.096,1.075h2.472c1.754,0,3.199-0.232,4.324-0.701
			c1.127-0.46,2.209-1.408,3.23-2.854C617.036,644.889,617.837,642.904,618.433,640.387z"/>
		<path fill="#FFFFFF" d="M473.258,569.047h-12.635l-0.87,2.169c-1.272,3.144-1.912,5.196-1.912,6.149
			c0,1.024,0.341,1.807,1.024,2.334c0.669,0.536,1.548,0.799,2.606,0.799v1.16h-9.89v-1.16c1.479-0.236,2.57-0.772,3.289-1.597
			c0.718-0.837,1.595-2.593,2.604-5.265c0.089-0.245,0.475-1.227,1.183-2.918l9.665-23.723h0.964l11.115,27.15l1.513,3.574
			c0.348,0.81,0.812,1.441,1.388,1.91c0.589,0.46,1.461,0.75,2.628,0.87v1.16h-13.092v-1.16c1.598,0,2.695-0.125,3.248-0.361
			c0.571-0.245,0.854-0.741,0.854-1.461c0-0.366-0.382-1.459-1.131-3.297L473.258,569.047z M472.836,567.918l-5.894-14.575
			l-5.863,14.575H472.836z"/>
		<path fill="#FFFFFF" d="M550.731,571.59l-0.248,10.066h-28.279v-1.16h0.991c1.428,0,2.407-0.187,2.954-0.553
			c0.553-0.37,0.904-0.95,1.06-1.729c0.147-0.785,0.232-2.602,0.232-5.455v-16.773c0-2.715-0.085-4.476-0.232-5.265
			c-0.156-0.79-0.484-1.334-0.986-1.633c-0.5-0.308-1.586-0.462-3.277-0.462h-0.741v-1.156h15.992v1.156h-1.477
			c-1.647,0-2.708,0.145-3.224,0.417c-0.5,0.281-0.843,0.803-1.015,1.555c-0.165,0.752-0.255,2.554-0.255,5.388v17.904
			c0,2.463,0.063,4.016,0.188,4.636c0.143,0.627,0.491,1.104,1.077,1.448c0.58,0.348,1.827,0.522,3.737,0.522h2.535
			c2.041,0,3.565-0.187,4.547-0.553c0.995-0.37,1.939-1.185,2.824-2.425c0.89-1.245,1.707-3.217,2.441-5.928H550.731z"/>
		<path fill="#FFFFFF" d="M604.554,363.753v14.359h-1.216c0-1.586-0.167-2.66-0.493-3.224c-0.328-0.569-0.87-0.944-1.638-1.118
			c-0.763-0.19-2.615-0.272-5.56-0.272h-3.628c0.065-0.395,0.103-0.747,0.103-1.06c0-1.258-0.397-2.912-1.187-4.955
			c-1.075-2.78-1.615-5.352-1.615-7.733c0-4.759,1.606-8.726,4.832-11.874c3.217-3.166,7.291-4.748,12.24-4.748
			c4.888,0,9.167,1.508,12.86,4.518c3.677,3.01,5.515,7.104,5.515,12.277c0,4.453-1.682,8.139-5.042,11.042
			c1.178,0.542,2.445,0.888,3.802,1.033v1.178h-11.418v-1.178c3.518-0.473,6.296-1.767,8.349-3.893
			c2.048-2.111,3.07-4.692,3.07-7.715c0-3.124-1.191-5.845-3.579-8.177c-2.387-2.32-6.617-3.485-12.701-3.485
			c-6.064,0-10.363,1.12-12.898,3.358c-2.525,2.251-3.793,5.026-3.793,8.351c0,1.709,0.359,3.248,1.071,4.643
			c0.714,1.385,1.593,2.338,2.615,2.842c1.022,0.513,2.316,0.765,3.882,0.765c1.827,0,3.052-0.123,3.668-0.353
			c0.611-0.248,1.022-0.605,1.229-1.102c0.208-0.486,0.317-1.383,0.317-2.693v-0.788H604.554z"/>
		<path fill="#FFFFFF" d="M604.299,433.652v-12.639l-2.164-0.864c-3.141-1.272-5.194-1.912-6.151-1.912
			c-1.02,0-1.805,0.341-2.331,1.02c-0.531,0.678-0.799,1.542-0.799,2.608h-1.156v-9.886h1.156c0.246,1.477,0.772,2.563,1.598,3.282
			c0.839,0.725,2.588,1.597,5.261,2.61c0.257,0.085,1.227,0.473,2.925,1.176l23.716,9.672v0.957l-27.141,11.12l-3.579,1.515
			c-0.808,0.346-1.441,0.817-1.905,1.39c-0.464,0.587-0.759,1.453-0.875,2.622h-1.156v-13.09h1.156c0,1.602,0.125,2.691,0.371,3.251
			c0.241,0.567,0.732,0.852,1.446,0.852c0.37,0,1.47-0.379,3.302-1.129L604.299,433.652z M605.433,433.233l14.573-5.897
			l-14.573-5.859V433.233z"/>
		<path fill="#FFFFFF" d="M601.758,511.128l-10.06-0.245v-28.272h1.156v0.982c0,1.419,0.185,2.405,0.558,2.954
			c0.37,0.551,0.946,0.904,1.727,1.06c0.785,0.152,2.597,0.23,5.457,0.23h16.764c2.722,0,4.48-0.078,5.27-0.23
			c0.785-0.156,1.336-0.491,1.638-0.988c0.304-0.495,0.451-1.591,0.451-3.275v-0.732h1.165v15.981h-1.165v-1.472
			c0-1.644-0.134-2.715-0.411-3.222c-0.277-0.502-0.799-0.846-1.557-1.02c-0.75-0.167-2.552-0.252-5.39-0.252h-17.902
			c-2.463,0-4.014,0.067-4.632,0.19c-0.625,0.134-1.102,0.489-1.45,1.073c-0.348,0.578-0.522,1.827-0.522,3.739v2.53
			c0,2.044,0.185,3.567,0.558,4.549c0.37,0.995,1.174,1.936,2.419,2.827c1.24,0.888,3.221,1.7,5.928,2.443V511.128z"/>
		<path fill="#FFFFFF" d="M617.284,571.59l-0.248,10.066h-28.27v-1.16h0.986c1.426,0,2.41-0.187,2.952-0.553
			c0.556-0.37,0.912-0.95,1.06-1.729c0.156-0.785,0.228-2.602,0.228-5.455v-16.773c0-2.715-0.071-4.476-0.228-5.265
			c-0.147-0.79-0.482-1.334-0.984-1.633c-0.502-0.308-1.586-0.462-3.278-0.462h-0.736v-1.156h15.983v1.156h-1.475
			c-1.644,0-2.706,0.145-3.219,0.417c-0.502,0.281-0.848,0.803-1.017,1.555c-0.165,0.752-0.259,2.554-0.259,5.388v17.904
			c0,2.463,0.067,4.016,0.196,4.636c0.134,0.627,0.486,1.104,1.078,1.448c0.569,0.348,1.821,0.522,3.733,0.522h2.53
			c2.046,0,3.565-0.187,4.547-0.553c0.995-0.37,1.945-1.185,2.833-2.425c0.883-1.245,1.702-3.217,2.445-5.928H617.284z"/>
		<path fill="#FFFFFF" d="M669.27,366.013V353.37l-2.166-0.857c-3.141-1.274-5.203-1.917-6.153-1.917
			c-1.024,0-1.798,0.344-2.329,1.024c-0.527,0.678-0.803,1.546-0.803,2.612h-1.149v-9.893h1.149
			c0.241,1.477,0.772,2.561,1.606,3.284c0.83,0.721,2.581,1.595,5.261,2.604c0.246,0.091,1.223,0.48,2.918,1.183l23.723,9.669v0.959
			l-27.15,11.111l-3.579,1.522c-0.806,0.348-1.435,0.81-1.905,1.392c-0.469,0.58-0.754,1.452-0.875,2.612h-1.149v-13.081h1.149
			c0,1.602,0.129,2.689,0.366,3.246c0.246,0.569,0.732,0.852,1.455,0.852c0.366,0,1.472-0.377,3.306-1.129L669.27,366.013z
			 M670.401,365.596l14.573-5.897l-14.573-5.861V365.596z"/>
		<path fill="#FFFFFF" d="M666.724,441.289l-10.055-0.239v-28.274h1.149v0.984c0,1.421,0.196,2.405,0.562,2.954
			c0.37,0.556,0.946,0.906,1.722,1.051c0.785,0.158,2.602,0.234,5.462,0.234h16.769c2.722,0,4.475-0.076,5.265-0.234
			c0.785-0.145,1.334-0.473,1.638-0.979c0.304-0.502,0.453-1.588,0.453-3.273v-0.736h1.162v15.981h-1.162v-1.484
			c0-1.633-0.13-2.699-0.413-3.213c-0.286-0.507-0.794-0.846-1.557-1.011c-0.754-0.172-2.552-0.263-5.386-0.263h-17.911
			c-2.459,0-4.007,0.063-4.63,0.199c-0.622,0.132-1.109,0.482-1.452,1.066c-0.348,0.58-0.522,1.825-0.522,3.741v2.53
			c0,2.039,0.196,3.561,0.562,4.547c0.37,0.993,1.178,1.941,2.418,2.829c1.24,0.888,3.219,1.707,5.926,2.445V441.289z"/>
		<path fill="#FFFFFF" d="M666.724,511.177l-10.055-0.25v-28.274h1.149v0.986c0,1.423,0.196,2.407,0.562,2.956
			c0.37,0.551,0.946,0.904,1.722,1.06c0.785,0.149,2.602,0.23,5.462,0.23h16.769c2.722,0,4.475-0.08,5.265-0.23
			c0.785-0.156,1.334-0.482,1.638-0.988c0.304-0.495,0.453-1.586,0.453-3.273v-0.741h1.162v15.986h-1.162v-1.475
			c0-1.638-0.13-2.702-0.413-3.217c-0.286-0.507-0.794-0.848-1.557-1.02c-0.754-0.163-2.552-0.254-5.386-0.254h-17.911
			c-2.459,0-4.007,0.062-4.63,0.192c-0.622,0.134-1.109,0.488-1.452,1.073c-0.348,0.576-0.522,1.823-0.522,3.739v2.53
			c0,2.042,0.196,3.563,0.562,4.554c0.37,0.991,1.178,1.937,2.418,2.82c1.24,0.895,3.219,1.707,5.926,2.443V511.177z"/>
		<path fill="#FFFFFF" d="M664.186,577.518v1.174l-10.64-0.705v-27.563h1.158l0.005,0.687c0,1.647,0.225,2.72,0.674,3.204
			c0.46,0.48,1.035,0.779,1.734,0.917c0.698,0.125,2.474,0.192,5.328,0.196l16.762-0.004c2.615,0,4.319-0.067,5.147-0.201
			c0.823-0.143,1.399-0.464,1.727-0.962c0.332-0.504,0.493-1.553,0.493-3.15h1.156v23.779l-8.523,0.785v-1.156
			c2.392-0.513,4.087-1.162,5.078-1.921c1.011-0.768,1.631-1.673,1.905-2.715c0.254-1.046,0.388-2.735,0.388-5.058v-4.614h-14.355
			v3.532c0,1.626,0.152,2.758,0.433,3.405c0.286,0.645,0.714,1.075,1.299,1.272c0.584,0.21,1.709,0.312,3.389,0.312v1.151h-11.689
			l-0.005-1.151c1.901-0.005,3.168-0.159,3.817-0.469c0.645-0.31,1.069-0.761,1.261-1.361c0.192-0.602,0.288-1.613,0.288-3.03
			v-3.661h-8.088c-4.052,0-6.437,0.257-7.148,0.765c-0.714,0.509-1.071,1.872-1.075,4.099v2.477c0.005,1.754,0.23,3.19,0.696,4.319
			c0.455,1.133,1.41,2.206,2.847,3.235C659.683,576.126,661.658,576.929,664.186,577.518z"/>
		<path fill="#FFFFFF" d="M693.89,651.031h-8.951c-1.593-1.147-4.016-4.143-7.291-8.976c-1.049-1.553-2.137-3.034-3.269-4.455
			c-1.131-1.419-1.903-2.282-2.327-2.597c-0.428-0.312-1.093-0.469-1.986-0.469h-1.334v7.592c0,2.688,0.067,4.451,0.183,5.276
			c0.134,0.832,0.462,1.455,0.986,1.856c0.535,0.402,1.553,0.611,3.061,0.611h1.595v1.16H658.63v-1.16h1.071
			c1.424,0,2.407-0.19,2.963-0.562c0.544-0.37,0.897-0.948,1.042-1.725c0.145-0.787,0.228-2.601,0.228-5.457v-16.764
			c0-2.724-0.083-4.48-0.228-5.27c-0.145-0.792-0.471-1.332-0.984-1.635c-0.502-0.308-1.602-0.466-3.282-0.466h-0.573v-1.149
			l4.77-0.259c3.168-0.145,5.689-0.221,7.554-0.221c3.175,0,5.758,0.301,7.744,0.901c1.988,0.611,3.596,1.609,4.821,2.983
			c1.232,1.374,1.838,3.021,1.838,4.937c0,2.242-0.799,4.141-2.401,5.718c-1.597,1.586-3.962,2.566-7.068,2.956
			c1.392,0.69,3.632,3.173,6.724,7.461c2.526,3.483,4.498,5.749,5.944,6.827c1.441,1.087,3.137,1.651,5.096,1.725V651.031z
			 M668.732,633.379c1.236-0.038,2.499-0.087,3.811-0.15c1.312-0.071,2.443-0.259,3.413-0.562c0.966-0.297,1.745-0.741,2.341-1.323
			c0.596-0.575,1.071-1.336,1.414-2.276c0.35-0.941,0.515-2.104,0.515-3.478c0-2.405-0.587-4.328-1.763-5.776
			c-1.162-1.446-3.719-2.171-7.637-2.171c-0.613,0-1.305,0.036-2.095,0.111V633.379z"/>
		<path fill="#FFFFFF" d="M745.305,634.234l11.314,6.555c1.856,1.08,3.161,1.62,3.935,1.62c0.705,0,1.348-0.29,1.939-0.861
			c0.593-0.573,0.89-1.595,0.89-3.07h1.151v10.872h-1.151c-0.228-1.501-0.799-2.72-1.736-3.646
			c-0.928-0.917-2.626-2.102-5.073-3.545l-12.78-7.463h-4.545c-2.9,0-4.759,0.085-5.549,0.263c-0.808,0.172-1.361,0.535-1.7,1.102
			c-0.321,0.562-0.491,1.673-0.491,3.331h-1.158v-14.189h1.158v0.54c0,1.419,0.19,2.407,0.553,2.961
			c0.379,0.538,0.951,0.89,1.727,1.037c0.79,0.143,2.606,0.223,5.459,0.223h4.21l13.998-8.297c2.824-1.687,4.502-2.802,5.047-3.362
			c0.549-0.558,0.843-1.555,0.879-2.996h1.151v13.505h-1.151c0-2.521-0.598-3.784-1.776-3.784c-0.464,0-1.406,0.424-2.816,1.251
			L745.305,634.234z"/>
	</g>
	<g>
		<g>
			<path fill="#FFFFFF" d="M30.916,878.029h1.99c2.298,0,3.302,0.221,3.739,0.404c0.524,0.221,0.915,0.674,1.191,1.379
				c0.214,0.558,0.477,1.905,0.477,5.156c0,2.198-0.355,4.014-1.053,5.404c-0.678,1.359-1.995,2.539-3.916,3.51
				c-1.957,1.002-4.172,1.51-6.582,1.51c-4.784,0-8.681-1.758-11.914-5.368c-3.204-3.583-4.83-9.846-4.83-18.614
				c0-8.777,1.68-14.935,4.989-18.299c3.311-3.367,7.237-5.076,11.682-5.076c4.301,0,8.005,1.464,11.008,4.346
				c3.03,2.896,4.911,6.905,5.591,11.912l0.094,0.705h3.295v-18.589h-3.313l-0.078,0.725c-0.163,1.497-0.498,2.923-0.995,4.259
				c-4.368-4.527-9.846-6.818-16.298-6.818c-7.974,0-14.379,2.858-19.035,8.494C2.34,858.657,0,865.258,0,872.685
				c0,7.53,2.47,13.839,7.338,18.75c4.875,4.919,11.062,7.414,18.393,7.414c3.637,0,7.635-0.823,11.885-2.452
				c2.956-1.133,5.363-1.707,7.148-1.707c0.426,0,0.912,0.049,1.441,0.141l0.953,0.167v-6.361c0-4.29,0.13-7.005,0.379-8.07
				c0.219-0.919,0.643-1.546,1.294-1.919c0.491-0.283,1.656-0.62,4.429-0.62h0.812v-3.425H30.916V878.029z"/>
			<path fill="#FFFFFF" d="M118.407,881.112c-0.859,3.628-2.037,6.499-3.494,8.527c-1.439,2.001-2.947,3.331-4.484,3.951
				c-1.586,0.649-3.666,0.977-6.176,0.977h-3.719c-3.985,0-5.145-0.79-5.479-1.263c-0.37-0.511-0.991-2.508-0.991-10.136V871.96
				h4.672c2.039,0,3.485,0.134,4.301,0.397c0.676,0.212,1.185,0.685,1.553,1.45c0.281,0.578,0.62,1.97,0.62,5.317v0.812h3.355v-19
				h-3.355v0.812c0,2.974-0.228,4.228-0.419,4.763c-0.225,0.649-0.705,1.125-1.464,1.455c-0.602,0.261-1.919,0.573-4.779,0.573
				h-4.484v-19.685h6.104c3.398,0,5.883,0.187,7.389,0.558c1.388,0.346,2.606,1.194,3.617,2.521c1.062,1.374,1.986,3.802,2.742,7.22
				l0.143,0.636h3.266l-1.321-14.281H78.786v3.347h0.812c2.918,0,3.936,0.375,4.284,0.6c0.544,0.353,0.908,1.033,1.075,2.021
				c0.205,1.158,0.301,3.612,0.301,7.501v24.903c0,4.201-0.094,6.812-0.277,7.769c-0.167,0.872-0.538,1.566-1.136,2.119
				c-0.321,0.299-1.296,0.799-4.248,0.799h-1.843v3.342h42.906l1.176-17.424h-3.284L118.407,881.112z"/>
			<path fill="#FFFFFF" d="M194.163,881.112c-0.852,3.623-2.03,6.492-3.503,8.529c-1.428,1.997-2.936,3.327-4.476,3.949
				c-1.588,0.649-3.663,0.977-6.176,0.977h-3.712c-3.989,0-5.154-0.792-5.493-1.258c-0.366-0.511-0.979-2.51-0.979-10.14V871.96
				h4.665c2.039,0,3.487,0.134,4.301,0.397c0.678,0.212,1.187,0.687,1.557,1.441c0.281,0.589,0.616,1.988,0.616,5.326v0.812h3.358
				v-19h-3.358v0.812c0,2.983-0.225,4.235-0.415,4.763c-0.228,0.649-0.709,1.125-1.47,1.455c-0.6,0.261-1.912,0.573-4.77,0.573
				h-4.484v-19.685h6.097c3.4,0,5.89,0.187,7.389,0.558c1.401,0.35,2.584,1.171,3.619,2.519c1.062,1.383,1.981,3.813,2.735,7.222
				l0.145,0.636h3.282l-1.339-14.281h-37.219v3.347h0.817c2.923,0,3.936,0.375,4.279,0.598c0.551,0.357,0.915,1.037,1.08,2.021
				c0.138,0.823,0.308,2.793,0.308,7.503v24.903c0,5.183-0.156,7.086-0.286,7.771c-0.165,0.872-0.533,1.564-1.133,2.117
				c-0.321,0.299-1.296,0.799-4.248,0.799h-1.843v3.342h42.903l1.183-17.424h-3.282L194.163,881.112z"/>
			<path fill="#FFFFFF" d="M267.056,881.942c-1.071,3.906-2.258,6.78-3.532,8.538c-1.241,1.709-2.541,2.822-3.858,3.311
				c-1.383,0.515-3.588,0.776-6.55,0.776h-3.788c-3.55,0-4.783-0.417-5.207-0.665c-0.665-0.392-1.062-0.919-1.209-1.609
				c-0.129-0.62-0.281-2.289-0.281-6.729v-26.588c0-5.114,0.201-7.084,0.366-7.829c0.21-0.897,0.578-1.477,1.124-1.771
				c0.359-0.196,1.41-0.522,4.435-0.522h3.025v-3.347h-25.588v3.347h1.912c3.101,0,4.15,0.35,4.498,0.56
				c0.549,0.328,0.906,0.946,1.093,1.898c0.223,1.095,0.335,3.675,0.335,7.664v24.903c0,4.188-0.111,6.858-0.335,7.947
				c-0.187,0.953-0.593,1.622-1.234,2.05c-0.469,0.315-1.542,0.689-3.987,0.689h-2.283v3.342h44.003l0.411-16.565h-3.186
				L267.056,881.942z"/>
			<path fill="#FFFFFF" d="M319.245,844.574c-7.88,0-14.555,2.465-19.839,7.329c-5.303,4.877-7.992,11.428-7.992,19.468
				c0,8.233,2.646,14.946,7.871,19.95c5.212,4.995,11.963,7.528,20.064,7.528c8.331,0,15.153-2.535,20.283-7.532
				c5.131-5.006,7.733-11.626,7.733-19.68c0-8.32-2.722-14.986-8.09-19.814C333.935,847.013,327.197,844.574,319.245,844.574z
				 M319.865,895.351c-6.104,0-10.736-1.961-13.763-5.832c-3.077-3.929-4.634-9.946-4.634-17.882c0-7.818,1.557-13.781,4.634-17.724
				c3.068-3.929,7.38-5.841,13.183-5.841c5.895,0,10.258,1.961,13.337,5.993c3.088,4.041,4.654,9.975,4.654,17.646
				c0,7.878-1.589,13.866-4.717,17.804C329.423,893.441,325.274,895.351,319.865,895.351z"/>
			<path fill="#FFFFFF" d="M406.859,848.856h0.812c1.85,0,3.449,0.248,4.754,0.736c1.191,0.448,1.979,1.035,2.34,1.74
				c0.272,0.536,0.593,1.727,0.593,4.355v27.911l-28.093-37.763l-0.246-0.326h-15.939v3.347h0.812c3.327,0,4.44,0.299,4.81,0.482
				c0.556,0.268,0.979,0.946,1.267,2.028c0.335,1.241,0.509,3.802,0.509,7.612v26.925c0,3.71-0.174,5.107-0.317,5.618
				c-0.174,0.607-0.796,1.218-1.85,1.818c-1.149,0.651-2.869,1.064-5.107,1.231l-0.754,0.054v3.286h20.249v-3.342h-0.812
				c-2.485,0-4.355-0.355-5.551-1.053c-1.138-0.665-1.825-1.363-2.044-2.084c-0.178-0.582-0.39-2.013-0.39-5.529v-32.774
				l33.834,45.616l0.241,0.328h2.811v-42.828c0-2.077,0.152-3.538,0.444-4.346c0.263-0.714,0.912-1.352,1.934-1.901
				c1.12-0.596,2.693-0.982,4.676-1.145l0.745-0.063v-3.282h-19.732V848.856z"/>
			<path fill="#FFFFFF" d="M480.08,874.604v3.425h1.988c2.304,0,3.302,0.219,3.735,0.404c0.531,0.223,0.924,0.674,1.198,1.381
				c0.217,0.551,0.475,1.894,0.475,5.154c0,2.184-0.357,4.003-1.048,5.401c-0.683,1.361-1.999,2.541-3.911,3.512
				c-1.97,1.002-4.183,1.51-6.593,1.51c-4.781,0-8.679-1.758-11.909-5.368c-3.206-3.583-4.83-9.846-4.83-18.614
				c0-8.775,1.68-14.93,4.986-18.299c3.362-3.416,7.184-5.076,11.682-5.076c4.301,0,8.009,1.464,11.015,4.346
				c3.028,2.901,4.906,6.91,5.589,11.912l0.098,0.705h3.289v-18.589h-3.309l-0.08,0.723c-0.163,1.492-0.498,2.92-0.995,4.261
				c-4.375-4.527-9.852-6.818-16.302-6.818c-7.976,0-14.382,2.858-19.031,8.494c-4.616,5.587-6.956,12.186-6.956,19.618
				c0,7.53,2.467,13.837,7.331,18.75c4.879,4.922,11.066,7.414,18.393,7.414c3.639,0,7.635-0.823,11.883-2.452
				c2.965-1.133,5.37-1.707,7.148-1.707c0.428,0,0.915,0.049,1.443,0.141l0.953,0.167v-6.361c0-4.29,0.13-7.008,0.382-8.07
				c0.219-0.917,0.64-1.544,1.283-1.919c0.5-0.283,1.673-0.62,4.44-0.62h0.812v-3.425H480.08z"/>
		</g>
		<g>
			<path fill="#FE000C" d="M606.798,878.029h1.986c2.298,0,3.298,0.219,3.735,0.404c0.526,0.223,0.919,0.674,1.196,1.377
				c0.216,0.565,0.473,1.914,0.473,5.158c0,2.195-0.353,4.012-1.051,5.401c-0.683,1.361-2.001,2.541-3.911,3.512
				c-1.963,1.002-4.179,1.51-6.586,1.51c-4.716,0-8.723-1.807-11.909-5.368c-3.206-3.583-4.833-9.846-4.833-18.614
				c0-8.772,1.678-14.93,4.986-18.299c3.315-3.367,7.244-5.076,11.68-5.076c4.302,0,8.005,1.464,11.013,4.346
				c3.025,2.892,4.908,6.899,5.591,11.912l0.098,0.705h3.286v-18.589h-3.309l-0.076,0.725c-0.163,1.499-0.498,2.929-0.997,4.261
				c-4.368-4.527-9.848-6.82-16.307-6.82c-7.969,0-14.372,2.858-19.026,8.494c-4.618,5.593-6.956,12.195-6.956,19.618
				c0,7.53,2.467,13.839,7.336,18.75c4.879,4.922,11.066,7.414,18.393,7.414c3.639,0,7.635-0.823,11.889-2.452
				c2.954-1.133,5.354-1.707,7.137-1.707c0.428,0,0.915,0.049,1.446,0.141l0.95,0.167v-6.361c0-4.29,0.132-7.008,0.384-8.072
				c0.214-0.915,0.638-1.542,1.289-1.916c0.491-0.283,1.665-0.62,4.431-0.62h0.812v-3.425h-23.149V878.029z"/>
			<path fill="#FE000C" d="M703.171,893.441c-0.759-0.596-1.372-1.437-1.827-2.499l-18.957-45.641l-0.21-0.502h-2.519
				l-14.709,35.733c-0.587,1.403-1.602,3.842-1.771,4.368c-1.484,3.862-2.753,6.405-3.762,7.565
				c-0.942,1.082-2.436,1.792-4.444,2.111l-0.687,0.109v3.224h16.463v-3.342h-0.812c-1.403,0-2.555-0.341-3.425-1.013
				c-0.812-0.631-1.209-1.555-1.209-2.82c0-0.904,0.488-3.168,2.807-8.839l1.089-2.706h17.857l3.625,8.897
				c1.506,3.652,1.624,4.44,1.626,4.594c0,0.946-0.393,1.24-0.777,1.403c-0.511,0.221-1.718,0.484-4.556,0.484h-0.812v3.342h21.246
				v-3.266l-0.729-0.071C705.092,894.412,703.914,894.032,703.171,893.441z M685.762,875.88h-15.209l7.588-18.679L685.762,875.88z"
				/>
			<path fill="#FE000C" d="M775.636,881.942c-1.066,3.9-2.253,6.771-3.534,8.538c-1.231,1.707-2.53,2.82-3.855,3.311
				c-1.381,0.515-3.583,0.776-6.546,0.776h-3.793c-3.373,0-4.685-0.361-5.198-0.667c-0.669-0.388-1.066-0.915-1.216-1.611
				c-0.127-0.605-0.279-2.26-0.279-6.724v-26.588c0-5.14,0.201-7.095,0.371-7.831c0.205-0.895,0.571-1.475,1.124-1.771
				c0.353-0.194,1.406-0.52,4.431-0.52h3.021v-3.347h-25.586v3.347h1.912c3.099,0,4.15,0.35,4.495,0.558
				c0.544,0.33,0.91,0.968,1.093,1.894c0.221,1.125,0.335,3.704,0.335,7.67v24.903c0,4.161-0.114,6.836-0.33,7.947
				c-0.192,0.95-0.598,1.62-1.241,2.053c-0.464,0.312-1.535,0.687-3.985,0.687h-2.28v3.342h44.001l0.415-16.565h-3.19
				L775.636,881.942z"/>
			<path fill="#FE000C" d="M848.302,881.942c-1.068,3.902-2.258,6.776-3.532,8.538c-1.238,1.711-2.537,2.824-3.857,3.311
				c-1.388,0.515-3.588,0.776-6.542,0.776h-3.797c-3.55,0-4.777-0.417-5.198-0.667c-0.674-0.39-1.069-0.917-1.218-1.611
				c-0.125-0.596-0.277-2.247-0.277-6.724v-26.588c0-5.133,0.203-7.093,0.368-7.833c0.203-0.892,0.567-1.47,1.127-1.767
				c0.357-0.196,1.405-0.522,4.426-0.522h3.021v-3.347h-25.581v3.347h1.914c3.101,0,4.145,0.35,4.493,0.56
				c0.542,0.326,0.91,0.962,1.093,1.892c0.219,1.125,0.335,3.704,0.335,7.67v24.903c0,4.161-0.116,6.836-0.335,7.947
				c-0.187,0.953-0.594,1.622-1.241,2.053c-0.466,0.312-1.535,0.687-3.982,0.687h-2.278v3.342h44.001l0.417-16.565h-3.193
				L848.302,881.942z"/>
			<path fill="#FE000C" d="M920.82,881.112c-0.852,3.61-2.028,6.479-3.494,8.527c-1.435,1.997-2.945,3.329-4.487,3.951
				c-1.586,0.649-3.666,0.977-6.173,0.977h-3.717c-3.989,0-5.154-0.79-5.489-1.26c-0.368-0.511-0.986-2.51-0.986-10.138V871.96
				h4.667c2.543,0,3.742,0.214,4.302,0.397c0.678,0.212,1.187,0.685,1.557,1.441c0.281,0.594,0.623,2.001,0.623,5.326v0.812h3.351
				v-19h-3.351v0.812c0,2.965-0.228,4.226-0.417,4.761c-0.232,0.652-0.712,1.127-1.475,1.457c-0.596,0.261-1.907,0.573-4.772,0.573
				h-4.484v-19.685h6.104c3.396,0,5.883,0.187,7.385,0.558c1.403,0.35,2.586,1.171,3.619,2.519c1.062,1.381,1.981,3.811,2.74,7.222
				l0.143,0.636h3.277l-1.332-14.281h-37.219v3.347h0.812c2.923,0,3.94,0.375,4.284,0.598c0.553,0.359,0.915,1.037,1.08,2.021
				c0.201,1.183,0.299,3.708,0.299,7.503v24.903c0,4.174-0.094,6.789-0.277,7.771c-0.165,0.87-0.536,1.564-1.136,2.117
				c-0.319,0.299-1.294,0.799-4.25,0.799h-1.843v3.342h42.903l1.182-17.424h-3.282L920.82,881.112z"/>
			<path fill="#FE000C" d="M998.957,892.176c-2.079-1.537-5.02-4.895-8.732-9.977c-3.641-4.986-6.479-8.326-8.607-10.116
				c3.846-0.745,6.876-2.184,9.029-4.284c2.555-2.483,3.849-5.538,3.849-9.083c0-3.048-0.995-5.703-2.963-7.885
				c-1.923-2.148-4.484-3.713-7.601-4.652c-3.036-0.917-7.026-1.381-11.845-1.381c-2.789,0-6.613,0.112-11.383,0.337l-7.907,0.413
				v3.307h1.66c3.101,0,4.159,0.353,4.516,0.562c0.558,0.33,0.91,0.944,1.085,1.887c0.21,1.1,0.319,3.683,0.319,7.673v24.903
				c0,4.188-0.109,6.86-0.319,7.958c-0.179,0.944-0.576,1.611-1.214,2.039c-0.469,0.315-1.539,0.689-3.985,0.689h-2.436v3.342
				h25.519v-3.342h-3.204c-2.575,0-3.65-0.404-4.096-0.743c-0.623-0.466-1.004-1.196-1.16-2.22
				c-0.174-1.203-0.268-3.802-0.268-7.724v-10.457h1.178c1.147,0,2.015,0.185,2.503,0.538c0.39,0.281,1.285,1.153,3.338,3.708
				c1.696,2.108,3.329,4.313,4.859,6.555c5.013,7.343,8.652,11.769,11.129,13.536l0.216,0.149h14.504v-3.315l-0.785-0.027
				C1003.394,894.472,1000.971,893.666,998.957,892.176z M969.212,848.423c0.852-0.058,1.626-0.091,2.32-0.091
				c5.602,0,9.25,0.984,10.836,2.925c1.622,1.992,2.447,4.703,2.447,8.059c0,1.934-0.245,3.581-0.721,4.888
				c-0.475,1.274-1.122,2.312-1.916,3.081c-0.803,0.77-1.879,1.368-3.197,1.778c-1.39,0.426-3.043,0.692-4.919,0.785
				c-1.66,0.087-3.275,0.152-4.85,0.203V848.423z"/>
			<path fill="#FE000C" d="M1062.067,845.509v3.347h0.812c1.975,0,3.326,0.359,4.022,1.069c0.71,0.721,1.053,1.475,1.053,2.314
				c0,0.683-0.402,2.178-2.316,5.435l-9.125,15.62l-11.227-18.85c-1.635-2.742-1.763-3.581-1.763-3.775
				c0-1.499,2.642-1.811,4.855-1.811h0.812v-3.347h-21.867v3.327l0.792,0.02c1.91,0.045,3.275,0.415,3.944,1.064
				c0.533,0.517,1.816,2.211,4.911,7.345l12.322,20.584v6.033c0,4.172-0.107,6.847-0.315,7.956
				c-0.176,0.944-0.576,1.611-1.218,2.042c-0.466,0.315-1.542,0.689-3.98,0.689h-1.626v3.342h22.9v-3.342h-0.812
				c-2.892,0-4.087-0.341-4.583-0.631c-0.642-0.366-1.057-1.011-1.27-1.968c-0.239-1.12-0.361-3.837-0.361-8.088v-6.519
				l11.075-18.79c2.115-3.572,3.864-6.057,5.194-7.387c1.252-1.249,2.936-2.037,5.009-2.338l0.694-0.103v-3.235H1062.067z"/>
		</g>
	</g>
</g>
<g>
</g>
<g>
</g>
<g>
</g>
<g>
</g>
<g>
</g>
<g>
</g>
<g>
</g>
<g>
</g>
<g>
</g>
<g>
</g>
<g>
</g>
<g>
</g>
<g>
</g>
<g>
</g>
<g>
</g>
</svg>
