<?xml version="1.0" encoding="utf-8"?>
<!-- Generator: Adobe Illustrator 27.0.1, SVG Export Plug-In . SVG Version: 6.00 Build 0)  -->
<svg version="1.1" id="Layer_1" xmlns="http://www.w3.org/2000/svg" xmlns:xlink="http://www.w3.org/1999/xlink" x="0px" y="0px"
	 width="1080px" height="1080px" viewBox="0 0 1080 1080" enable-background="new 0 0 1080 1080" xml:space="preserve">
<g>
</g>
<g>
</g>
<g>
	<g>
		<g>
			<path fill="#97CAEB" d="M694.859,802.235c-10.494,0-20.988-3.995-28.977-11.982c-15.978-15.978-15.978-41.975-0.004-57.954
				c15.978-15.97,41.975-15.972,57.954-0.002c4.226,4.226,4.23,11.079,0.004,15.305c-4.226,4.23-11.079,4.226-15.305,0.004
				c-7.545-7.545-19.803-7.536-27.348,0c-7.536,7.536-7.536,19.804,0.004,27.342c7.536,7.54,19.799,7.531,27.344,0
				c4.226-4.226,11.079-4.226,15.305,0c4.226,4.228,4.226,11.079-0.004,15.305C715.843,798.24,705.349,802.235,694.859,802.235z"/>
		</g>
		<g>
			<path fill="#97CAEB" d="M778.805,802.255c-22.594,0-40.98-18.382-40.98-40.978s18.386-40.978,40.98-40.978
				s40.98,18.382,40.98,40.978S801.4,802.255,778.805,802.255z M778.805,741.942c-10.661,0-19.333,8.674-19.333,19.335
				s8.671,19.335,19.333,19.335s19.333-8.674,19.333-19.335S789.466,741.942,778.805,741.942z"/>
		</g>
		<path fill="#97CAEB" d="M898.498,720.323c-7.223,0-13.857,2.579-19.024,6.865c-5.168-4.285-11.801-6.865-19.024-6.865
			c-16.458,0-29.848,13.388-29.848,29.844v41.266c0,5.978,4.846,10.822,10.824,10.822c5.978,0,10.824-4.844,10.824-10.822v-41.266
			c0-4.521,3.68-8.2,8.201-8.2c4.525,0,8.201,3.68,8.201,8.2v41.266c0,5.978,4.846,10.822,10.824,10.822s10.824-4.844,10.824-10.822
			v-41.266c0-4.521,3.675-8.2,8.201-8.2c4.521,0,8.2,3.68,8.2,8.2v41.266c0,5.978,4.846,10.822,10.824,10.822
			c5.978,0,10.824-4.844,10.824-10.822v-41.266C928.346,733.711,914.956,720.323,898.498,720.323z"/>
	</g>
	<g>
		<path fill="#FF40B4" d="M612.045,668.727c-17.933,0-32.472-14.539-32.472-32.472v-322.14c0-17.933,14.539-32.472,32.472-32.472
			s32.472,14.539,32.472,32.472v322.14C644.516,654.188,629.977,668.727,612.045,668.727z"/>
	</g>
	<path fill="#FF40B4" d="M801.215,414.365c-70.129,0-127.18,57.053-127.18,127.18c0,70.129,57.051,127.182,127.18,127.182
		c23.966,0,46.399-6.67,65.555-18.241c5.279,10.791,16.332,18.241,29.153,18.241c17.933,0,32.472-14.539,32.472-32.472v-94.71
		C928.395,471.419,871.343,414.365,801.215,414.365z M801.215,603.784c-34.316,0-62.236-27.92-62.236-62.239
		s27.92-62.236,62.236-62.236s62.236,27.918,62.236,62.236S835.531,603.784,801.215,603.784z"/>
	<path fill="#FF40B4" d="M505.773,414.365c-17.933,0-32.472,14.539-32.472,32.472v94.708c0,34.318-27.92,62.239-62.234,62.239
		c-34.318,0-62.239-27.92-62.239-62.239v-94.708c0-17.933-14.539-32.472-32.472-32.472s-32.472,14.539-32.472,32.472v94.708
		c0,70.129,57.053,127.182,127.182,127.182c23.965,0,46.397-6.671,65.553-18.241c5.279,10.79,16.332,18.241,29.153,18.241
		c17.933,0,32.472-14.539,32.472-32.472v-94.71v-94.708C538.245,428.904,523.706,414.365,505.773,414.365z"/>
	<g>
		<path fill="#97CAEB" d="M1058.357,479.397h-91.587c-8.658,0-16.485-5.161-19.896-13.119c-3.407-7.961-1.747-17.184,4.226-23.455
			l79.386-83.319c0.119-0.125,0.242-0.251,0.365-0.374c7.804-7.802,7.804-20.501,0-28.303c-3.781-3.781-8.808-5.863-14.152-5.863
			c-11.035,0-20.015,8.98-20.015,20.015c0,11.953-9.688,21.643-21.643,21.643c-11.955,0-21.643-9.69-21.643-21.643
			c0-34.906,28.396-63.302,63.302-63.302c16.907,0,32.806,6.585,44.762,18.54c24.615,24.615,24.681,64.62,0.202,89.318
			l-44.374,46.575h41.068c11.955,0,21.643,9.69,21.643,21.643C1080,469.706,1070.312,479.397,1058.357,479.397z"/>
	</g>
	<path fill="#FF40B4" d="M127.182,414.365C57.053,414.365,0,471.419,0,541.545c0,70.129,57.053,127.182,127.182,127.182
		c22.6,0,43.824-5.953,62.236-16.331v22.74c0,34.316-27.92,62.236-62.236,62.236c-12.862,0-25.193-3.88-35.663-11.218
		c-14.684-10.296-34.937-6.73-45.228,7.95c-10.296,14.686-6.735,34.935,7.95,45.228c21.45,15.036,46.672,22.984,72.942,22.984
		c70.127,0,127.18-57.053,127.18-127.18V541.545C254.362,471.419,197.309,414.365,127.182,414.365z M127.182,603.784
		c-34.318,0-62.239-27.92-62.239-62.239s27.92-62.236,62.239-62.236c34.316,0,62.236,27.918,62.236,62.236
		S161.498,603.784,127.182,603.784z"/>
	<g opacity="0.6">
		<circle fill="#FF40B4" cx="612.046" cy="780.669" r="21.644"/>
	</g>
</g>
<g>
</g>
<g>
</g>
<g>
</g>
<g>
</g>
<g>
</g>
<g>
</g>
<g>
</g>
<g>
</g>
<g>
</g>
<g>
</g>
<g>
</g>
<g>
</g>
<g>
</g>
<g>
</g>
<g>
</g>
</svg>
