<?xml version="1.0" encoding="utf-8"?>
<!-- Generator: Adobe Illustrator 27.0.1, SVG Export Plug-In . SVG Version: 6.00 Build 0)  -->
<svg version="1.1" id="Layer_1" xmlns="http://www.w3.org/2000/svg" xmlns:xlink="http://www.w3.org/1999/xlink" x="0px" y="0px"
	 width="1080px" height="1080px" viewBox="0 0 1080 1080" enable-background="new 0 0 1080 1080" xml:space="preserve">
<g>
	<path fill="#897124" d="M144.825,421.957c0.139,0.06,0.227,0.174,0.354,0.253c0.224,0.142,0.458,0.268,0.641,0.461
		c0.142,0.148,0.23,0.332,0.341,0.505c0.117,0.177,0.25,0.335,0.332,0.533c0.098,0.246,0.12,0.511,0.155,0.774
		c0.019,0.142,0.085,0.275,0.085,0.423v0.073v0.003V548.32l16.7,5.86c-1.894-3.833-2.573-6.447-2.807-9.146v-39.8v-34.259V430.32
		c0.505-5.847,3.015-19.138,15.693-19.138v-3.422h-32.819h-30.218L144.825,421.957z"/>
	<path fill="#897124" d="M253.853,510.405h75.909L291.8,432.302L253.853,510.405z M276.062,496.508
		c5.743-11.826,11.283-23.22,15.737-32.409c4.47,9.19,9.998,20.583,15.759,32.409H276.062z"/>
	<path fill="#9B7A24" d="M31.608,553.358c-0.142-0.063-0.811-0.524-0.994-0.713c-0.145-0.152-0.594-0.84-0.669-1.039
		c-0.098-0.243-0.243-1.045-0.243-1.196V426.992l-16.867-7.624c2.743,5.461,2.961,11.895,2.974,13.341v0.287
		c0,0.006,0,0.035,0,0.035v37.943v34.259v37.091v0.032v0.281c-0.022,2.636-0.679,21.527-15.807,21.527v3.432h32.81h30.503v-3.432
		L31.608,553.358z"/>
	<path fill="#897124" d="M34.193,421.929l0.072,0.031c0.139,0.063,0.23,0.177,0.357,0.256c0.221,0.142,0.451,0.268,0.631,0.458
		c0.145,0.148,0.23,0.328,0.341,0.502c0.113,0.177,0.252,0.338,0.331,0.537c0.095,0.237,0.114,0.493,0.148,0.748
		c0.025,0.151,0.091,0.287,0.091,0.445v59.963h104.1v-57.873l-16.694-7.513c1.897,3.839,2.573,8.132,2.797,10.838v40.655H50.06
		v-41.811c0.723-6.263,3.659-17.982,15.576-17.982v-3.422H32.81H2.851L34.193,421.929z"/>
	<path fill="#897124" d="M1023.159,421.922c0.035,0.016,0.054,0.044,0.088,0.063c0.196,0.089,0.357,0.234,0.537,0.36
		c0.174,0.129,0.36,0.24,0.502,0.398c0.025,0.025,0.06,0.038,0.085,0.063c0.104,0.123,0.139,0.272,0.224,0.401
		c0.123,0.199,0.256,0.388,0.335,0.609c0.069,0.193,0.089,0.391,0.12,0.594c0.032,0.205,0.076,0.404,0.07,0.619
		c-0.009,0.227-0.076,0.442-0.133,0.663c-0.038,0.152-0.028,0.309-0.092,0.461c-0.016,0.041-0.047,0.07-0.066,0.111
		c-0.044,0.095-0.11,0.174-0.164,0.265c-0.152,0.262-0.331,0.492-0.543,0.694c-0.044,0.041-0.063,0.104-0.113,0.142l-47.613,40.586
		l54.7,71.864c4.025,4.603,7.899,6.788,7.94,6.81c15.207,9.534,32.434,14.487,40.965,16.527l-41.41-37.22l-0.344-0.297l-4.679-5.998
		c-0.019-0.028-0.038-0.07-0.063-0.098l-0.025-0.003l-38.215-48.977l65.169-55.12c3.308-2.513,7.235-4.256,11.829-4.256v-3.422
		h-2.753h-9.518h-20.526h-0.006h-12.271h-0.013h-11.191h-9.342h-12.277v2.122L1023.159,421.922z"/>
	<path fill="#897124" d="M886.239,408.202l32.817,13.72l0.003,0.003c0.395,0.167,0.748,0.407,1.045,0.71
		c0.142,0.142,0.221,0.325,0.331,0.492c0.123,0.177,0.272,0.335,0.357,0.537c0.161,0.391,0.249,0.808,0.249,1.237v0.003v81.73
		l94.771-80.78l-14.168-5.922l-66.706,56.667v-46.275c0.493-5.847,2.993-19.144,15.69-19.144v-3.422h-32.82h-32.816v0.189
		C885.409,407.95,885.832,408.032,886.239,408.202z"/>
	<path fill="#897124" d="M789.539,408.202l32.813,13.72l0.003,0.003c0.394,0.167,0.748,0.407,1.045,0.71
		c0.142,0.142,0.221,0.325,0.332,0.492c0.123,0.177,0.271,0.335,0.357,0.537c0.161,0.391,0.25,0.808,0.25,1.237v0.003v123.165
		l16.555,5.465c-3.054-4.506-2.655-11.21-2.655-11.21V430.326c0.486-5.847,2.999-19.144,15.68-19.144v-3.422h-32.813h-32.813v0.189
		C788.709,407.95,789.132,408.032,789.539,408.202z"/>
	<path fill="#9B7A24" d="M142.17,553.355c-0.142-0.063-0.233-0.18-0.36-0.259c-0.221-0.139-0.451-0.265-0.631-0.451
		c-0.148-0.155-0.237-0.341-0.35-0.518c-0.111-0.177-0.243-0.328-0.322-0.524c-0.095-0.24-0.114-0.499-0.152-0.757
		c-0.022-0.152-0.088-0.284-0.088-0.436v-59.076h-104.1v56.983l16.508,5.863c-1.601-3.293-2.311-5.348-2.614-7.987v-40.958h76.31
		v39.8c-0.486,5.837-2.996,19.131-15.681,19.131v3.432h32.81h30.243v-3.432L142.17,553.355z"/>
	<path fill="#897124" d="M292.813,421.834c0.521,0.174,0.934,0.492,1.288,0.862c0.193,0.177,0.347,0.388,0.483,0.622
		c0.032,0.057,0.082,0.098,0.107,0.155c0.006,0.009,0.013,0.013,0.016,0.022l60.402,124.27l18.389,6.074l-63.319-130.325
		c1.711-5.888,5.613-12.331,14.446-12.331v-3.422H291.8h-32.813v3.422L292.813,421.834z"/>
	<path fill="#897124" d="M718.321,421.834c0.044,0.016,0.073,0.05,0.114,0.066c0.221,0.085,0.404,0.215,0.6,0.341
		c0.161,0.104,0.332,0.189,0.47,0.319c0.152,0.142,0.256,0.319,0.379,0.489c0.12,0.167,0.256,0.319,0.341,0.505
		c0.079,0.174,0.104,0.363,0.155,0.552c0.057,0.221,0.126,0.435,0.135,0.669c0.003,0.044,0.026,0.082,0.026,0.129v95.267
		c0,20.741,14.541,26.209,17.079,27.004h80.253V427.056l-16.331-6.828c1.632,3.64,2.229,7.567,2.444,10.099
		c0,31.045,0,85.124,0,102.948c-19.444,0-58.981,0-63.559,0c-2.494-1.354-5.989-4.742-5.989-13.101v-89.847
		c0.489-5.847,2.996-19.144,15.677-19.144v-3.422h-32.807h-32.813v3.422L718.321,421.834z"/>
	<path fill="#9B7A24" d="M229.813,553.478c-0.073-0.025-0.123-0.082-0.193-0.107c-0.066-0.032-0.139-0.022-0.205-0.057
		c-0.133-0.063-0.218-0.177-0.335-0.253c-0.186-0.126-0.366-0.24-0.521-0.398c-0.145-0.146-0.256-0.309-0.369-0.474
		c-0.117-0.177-0.23-0.347-0.313-0.54c-0.079-0.189-0.12-0.382-0.164-0.584c-0.041-0.202-0.082-0.398-0.085-0.606
		c-0.003-0.221,0.038-0.429,0.079-0.644c0.025-0.142,0.003-0.281,0.05-0.423c0.025-0.069,0.079-0.117,0.107-0.186
		c0.025-0.07,0.019-0.142,0.054-0.211l59.36-122.18l-14.326-4.729c0.17,0.477,0.347,0.953,0.486,1.427l-64.942,133.649
		c-0.091,0.148-0.192,0.312-0.284,0.458c-2.32,3.668-6.02,6.544-11.917,6.544v3.432H229.1h32.816v-3.432L229.813,553.478z"/>
	<path fill="#897124" d="M625.166,408.291l-2.071-0.518h-2.131h-51.13v-0.013h-32.817h-32.807v3.422l33.328,10.49h83.425
		c0.268,0,0.534,0.035,0.792,0.098c0.224,0.057,22.298,5.967,22.298,33.366v65.036c0,16.946-8.442,25.66-14.935,29.865l15.513,5.12
		c7.318-7.564,13.316-18.885,13.316-34.985v-65.036C657.948,424.663,636.513,411.17,625.166,408.291z"/>
	<path fill="#9B7A24" d="M820.584,553.643h-83.422c-0.268,0-0.537-0.035-0.796-0.101c-0.224-0.057-22.291-5.979-22.291-33.369
		v-92.928l-15.605-5.152c1.076,3.066,1.522,6.131,1.698,8.233v89.847c0,30.471,21.445,43.97,32.772,46.846l2.083,0.521h54.132v0.057
		h32.81h32.804v-3.432L820.584,553.643z"/>
	<path fill="#9B7A24" d="M1035.746,552.19c-0.054-0.025-4.802-2.699-9.578-8.189c-0.025-0.028-0.031-0.07-0.057-0.101
		c-0.025-0.025-0.057-0.035-0.079-0.063l-54.565-71.688l-50.426,42.982v32.94l15.583,5.143c-1.064-3.05-1.509-6.093-1.686-8.186
		v-23.444l34.155-28.889c18.528,23.747,29.764,38.145,35.901,46.022c5.048,8.107,10.718,12.792,11.895,13.704
		c14.367,12.126,39.399,14.812,54.738,15.238C1061.99,564.913,1048.307,560.067,1035.746,552.19z"/>
	<path fill="#9B7A24" d="M916.795,553.478c-0.044-0.013-0.072-0.05-0.113-0.063c-0.221-0.085-0.404-0.215-0.597-0.341
		c-0.164-0.107-0.335-0.189-0.474-0.319c-0.151-0.142-0.256-0.319-0.379-0.489c-0.12-0.167-0.253-0.322-0.341-0.505
		c-0.079-0.174-0.104-0.366-0.155-0.552c-0.06-0.224-0.126-0.439-0.136-0.672c0-0.044-0.025-0.082-0.025-0.126V427.056
		l-16.337-6.832c1.632,3.643,2.226,7.57,2.434,10.102v114.701c-0.483,5.843-2.993,19.137-15.68,19.137v3.432h32.816h32.82v-3.432
		L916.795,553.478z"/>
	<path fill="#897124" d="M637.589,520.173v-65.036c0-20.687-14.674-26.231-17.086-26.998h-80.253v119.039h80.256
		C623.045,546.382,637.589,540.914,637.589,520.173z M617.703,533.274c-4.587,0-44.121,0-63.555,0c0-21.505,0-69.74,0-91.236
		c19.434,0,58.969,0,63.555,0c2.5,1.364,5.989,4.735,5.989,13.098v65.036C623.692,528.532,620.197,531.92,617.703,533.274z"/>
	<path fill="#9B7A24" d="M387.376,564.165l-35.591-10.686c-0.054-0.019-0.088-0.06-0.142-0.082
		c-0.294-0.113-0.565-0.268-0.818-0.467c-0.085-0.063-0.164-0.123-0.24-0.196c-0.24-0.227-0.445-0.486-0.613-0.789
		c-0.019-0.038-0.048-0.063-0.066-0.101c-0.006-0.006-0.013-0.013-0.016-0.022l-16.988-34.95h-82.188l-15.368,31.626l13.316,4.395
		c2.98-6.118,6.661-13.72,10.74-22.121h64.799c4.312,8.871,8.221,16.915,11.277,23.201c-2.011,5.212-5.96,10.194-13.733,10.194
		v3.432h32.813h0.003h32.813V564.165z"/>
	<path fill="#9B7A24" d="M387.67,599.955h0.003c0.259-0.082,21.148-6.819,39.863-22.787c0.224-0.18,12.593-10.171,12.593-26.758
		l0.06-123.165l-15.605-5.152c1.077,3.069,1.525,6.137,1.701,8.24l-0.054,120.077c0,9.584-7.362,15.905-7.362,15.905
		s-22.875,23.27-38.549,35.951L387.67,599.955z"/>
	<path fill="#897124" d="M443.409,407.76h-32.816v3.422l33.842,10.652c0.044,0.016,0.073,0.05,0.117,0.069
		c0.215,0.079,0.395,0.209,0.587,0.335c0.164,0.104,0.341,0.189,0.48,0.322c0.152,0.139,0.252,0.316,0.372,0.48
		c0.123,0.17,0.259,0.325,0.348,0.518c0.079,0.17,0.104,0.36,0.151,0.543c0.063,0.227,0.13,0.442,0.139,0.676
		c0,0.048,0.025,0.085,0.025,0.133l-0.06,125.501c0,19.81-14.355,31.282-14.967,31.759c-19.671,16.795-41.113,23.671-42.016,23.955
		h-0.003l-7.229,2.27c14.85-0.155,42.455-2.314,57.845-15.302c2.194-1.705,20.271-16.716,20.271-42.682
		c0-0.025,0.028-79.915,0.06-120.096c0.47-5.843,2.996-19.131,15.662-19.131v-3.422h-32.795H443.409z"/>
	<path fill="#9B7A24" d="M620.327,553.949c-0.205-0.066-0.36-0.205-0.54-0.306h-82.769c-1.787,0-3.233-1.449-3.233-3.233V427.245
		l-15.595-5.149c1.08,3.066,1.528,6.128,1.705,8.23v114.701c-0.489,5.843-3.009,19.137-15.684,19.137v3.432h32.807h32.817v-0.057
		h53.261l2.077-0.521c3.858-0.979,8.881-3.223,13.834-6.911L620.327,553.949z"/>
</g>
<g>
</g>
<g>
</g>
<g>
</g>
<g>
</g>
<g>
</g>
<g>
</g>
<g>
</g>
<g>
</g>
<g>
</g>
<g>
</g>
<g>
</g>
<g>
</g>
<g>
</g>
<g>
</g>
<g>
</g>
</svg>
