<?xml version="1.0" encoding="utf-8"?>
<!-- Generator: Adobe Illustrator 27.0.1, SVG Export Plug-In . SVG Version: 6.00 Build 0)  -->
<svg version="1.1" id="Layer_1" xmlns="http://www.w3.org/2000/svg" xmlns:xlink="http://www.w3.org/1999/xlink" x="0px" y="0px"
	 width="1080px" height="1080px" viewBox="0 0 1080 1080" enable-background="new 0 0 1080 1080" xml:space="preserve">
<g>
	<g>
		<path fill="#5DD39E" d="M320.27,478.53v137.464h125.025l50.176-50.166V428.354H370.951L320.27,478.53z M445.295,565.828H370.45
			V478.53h74.846V565.828z"/>
		<path fill="#5DD39E" d="M515.601,428.354v137.474l50.366,50.166h74.659v18.527h-62.597l50.356,50.169h62.425V478.53
			l-50.183-50.176H515.601z M640.627,565.828H565.77V478.53h74.856V565.828z"/>
		<polygon fill="#5DD39E" points="710.932,478.53 710.932,615.994 835.951,615.994 886.137,565.828 761.098,565.828 
			761.098,547.253 886.137,547.253 886.137,497.081 761.098,497.081 761.098,478.53 886.137,478.53 886.137,428.354 
			761.098,428.354 		"/>
		<polygon fill="#5DD39E" points="1029.831,361.897 1029.831,553.386 904.792,428.354 904.792,634.521 954.961,684.69 
			954.961,559.509 1029.831,634.355 1080,584.172 1080,412.059 		"/>
		<polygon fill="#5DD39E" points="175.211,428.354 175.108,428.458 175.108,428.354 50.172,553.289 50.172,428.806 0,478.969 
			0,584.172 50.172,634.355 125.015,559.54 125.039,684.69 249.978,559.509 249.978,615.994 300.147,615.994 300.147,428.354 
			175.211,553.283 		"/>
	</g>
</g>
<polygon fill="#ABE166" points="0,412.059 0,452.115 50.172,401.932 50.172,361.897 "/>
<g>
	<g>
		<g>
			<path fill="#ABE166" d="M878.698,785.508v-80.609h20.143v80.609H878.698z"/>
		</g>
		<path fill="#ABE166" d="M794.71,704.899v80.609h52.166h20.182v-60.459l-20.182-20.151H794.71z M846.876,765.313h-31.978v-40.236
			h31.978V765.313z"/>
		<path fill="#ABE166" d="M972.275,704.899h-61.388v61.578l20.182,19.031h61.326v-60.431L972.275,704.899z M931.068,725.077h41.144
			v40.236h-41.144V725.077z"/>
	</g>
	<path fill="#ABE166" d="M784.6,734.364v-29.466l-20.178-0.052h-31.971l-20.178,20.151v9.367v24.418l-0.01,0.024h0.01v26.639h20.178
		v-26.639h31.971h0.007v26.639h20.178v-51.081H784.6z M732.451,738.618v-4.254v-9.339h31.971v13.593H732.451z"/>
	<path fill="#ABE166" d="M704.499,785.446l-26.639-26.639h3.728h20.171v-33.809l-20.171-20.151h-52.166v29.517v24.442v26.639h20.175
		v-26.366l26.494,26.477L704.499,785.446z M649.596,725.025h31.991v13.593h-31.991v-4.254V725.025z"/>
</g>
<g>
</g>
<g>
</g>
<g>
</g>
<g>
</g>
<g>
</g>
<g>
</g>
<g>
</g>
<g>
</g>
<g>
</g>
<g>
</g>
<g>
</g>
<g>
</g>
<g>
</g>
<g>
</g>
<g>
</g>
</svg>
