<?xml version="1.0" encoding="utf-8"?>
<!-- Generator: Adobe Illustrator 27.0.1, SVG Export Plug-In . SVG Version: 6.00 Build 0)  -->
<svg version="1.1" id="Layer_1" xmlns="http://www.w3.org/2000/svg" xmlns:xlink="http://www.w3.org/1999/xlink" x="0px" y="0px"
	 width="1080px" height="1080px" viewBox="0 0 1080 1080" enable-background="new 0 0 1080 1080" xml:space="preserve">
<g>
	<g>
		<path fill="#FF0000" stroke="#FF0000" stroke-width="1.75" d="M22.234,636.936C9.961,636.936,0,626.923,0,614.538v23.7
			c0,12.385,9.961,22.398,22.234,22.398c12.299,0,22.257-10.013,22.257-22.398v-23.7C44.491,626.923,34.533,636.936,22.234,636.936z
			"/>
		<g>
			<path fill="#FF0000" stroke="#FF0000" stroke-width="1.75" d="M676.984,582.012c-12.277,0-22.253-10.039-22.253-22.409v23.7
				c0,12.37,9.976,22.409,22.253,22.409c12.273,0,22.208-10.039,22.208-22.409v-23.7
				C699.192,571.972,689.256,582.012,676.984,582.012z"/>
			<path fill="#FF0000" stroke="#FF0000" stroke-width="1.75" d="M777.02,444.721h-54.556c-18.735,0-22.967,12.85-23.273,23.347
				v23.7c0.305-10.497,4.537-23.347,23.273-23.347h54.556c12.277,0,22.223-10.021,22.223-22.406v-23.7
				C799.243,434.701,789.297,444.721,777.02,444.721z"/>
		</g>
		<g>
			<path fill="#FF0000" stroke="#FF0000" stroke-width="1.75" d="M922.5,582.012c-12.295,0-22.253-10.039-22.253-22.409v23.7
				c0,12.37,9.957,22.409,22.253,22.409c12.284,0,22.234-10.039,22.234-22.409v-23.7C944.734,571.972,934.784,582.012,922.5,582.012
				z"/>
			<path fill="#FF0000" stroke="#FF0000" stroke-width="1.75" d="M1057.438,444.721h-89.484c-18.713,0-22.949,12.85-23.221,23.347
				v23.7c0.272-10.497,4.508-23.347,23.221-23.347h89.484c12.299,0,22.234-10.021,22.234-22.406v-23.698
				C1079.672,434.701,1069.737,444.721,1057.438,444.721z"/>
		</g>
		<g>
			<path fill="#FF0000" stroke="#FF0000" stroke-width="1.75" d="M228.773,582.012c-12.284,0-22.234-10.039-22.234-22.409v23.7
				c0,12.37,9.95,22.409,22.234,22.409c12.277,0,22.253-10.039,22.253-22.409v-23.7C251.026,571.972,241.05,582.012,228.773,582.012
				z"/>
			<path fill="#FF0000" stroke="#FF0000" stroke-width="1.75" d="M328.825,444.721h-54.571c-18.716,0-22.975,12.85-23.228,23.347
				v23.7c0.253-10.497,4.512-23.347,23.228-23.347h54.571c12.273,0,22.234-10.021,22.234-22.406v-23.7
				C351.059,434.701,341.098,444.721,328.825,444.721z"/>
		</g>
		<path fill="#FF0000" stroke="#FF0000" stroke-width="1.75" d="M476.933,582.012c-12.277,0-22.253-10.039-22.253-22.409v23.7
			c0,12.37,9.976,22.409,22.253,22.409s22.253-10.039,22.253-22.409v-23.7C499.186,571.972,489.209,582.012,476.933,582.012z"/>
	</g>
	<g>
		<g>
			<g>
				<path fill="#FF0000" stroke="#FF0000" stroke-width="1.75" d="M126.455,632.555c0,0-30.736-24.955-30.126-24.494
					c-14.912-11.245-22.841-23.976-23.552-37.816v21.395c-0.048,0.775-0.048,1.541,0,2.304c0.711,13.84,8.64,26.571,23.552,37.816
					c-0.611-0.462,30.126,24.494,30.126,24.494c9.585,7.761,23.567,6.28,31.287-3.354c3.335-4.128,4.943-9.109,4.943-14.052v-23.7
					c0,4.943-1.608,9.924-4.943,14.052C150.021,638.835,136.04,640.316,126.455,632.555z"/>
				<path fill="#FF0000" stroke="#FF0000" stroke-width="1.75" d="M154.406,540.432c0,0-30.754,24.981-31.357,25.447
					c-1.817,1.366-2.643,2.252-3.57,3.179c1.031,1.02,2.029,2.029,4.173,3.674l10.077,8.19c9.09-7.378,20.678-16.79,20.678-16.79
					c5.061-4.094,7.835-9.994,8.204-16.071l0.074-0.037v-23.7l-0.073,0.017C162.248,530.425,159.473,536.333,154.406,540.432z"/>
			</g>
			<path fill="#FF0000" stroke="#FF0000" stroke-width="1.75" d="M786.133,636.921h-54.578c-12.277,0-22.234-10.025-22.234-22.383
				v23.7c0,12.359,9.958,22.383,22.234,22.383h54.578c49.654,0.015,67.659-40.772,67.659-68.18v-23.7
				C853.792,596.149,835.786,636.936,786.133,636.921z"/>
			<path fill="#FF0000" stroke="#FF0000" stroke-width="1.75" d="M1079.672,618.235c-1.749,10.596-10.853,18.686-21.896,18.686
				h-80.732c-12.295,0-22.234-10.025-22.234-22.383v23.7c0,12.359,9.939,22.383,22.234,22.383h80.732
				c12.299,0,22.223-10.025,22.223-22.383c0-1.263-0.128-2.493-0.328-3.698V618.235z"/>
			<path fill="#FF0000" stroke="#FF0000" stroke-width="1.75" d="M613.271,636.936h-81.79c-12.273,0-22.237-10.013-22.237-22.398
				v23.7c0,12.385,9.965,22.398,22.237,22.398h81.79c12.091,0,21.9-9.683,22.229-21.778l0.031-0.01v-23.7l-0.031,0.009
				C635.171,627.253,625.361,636.936,613.271,636.936z"/>
		</g>
		<g>
			<path fill="#FF0000" stroke="#FF0000" stroke-width="1.75" d="M337.941,636.921H283.34c-12.295,0-22.249-10.025-22.249-22.383
				v23.7c0,12.359,9.954,22.383,22.249,22.383h54.601c27.207,0,67.67-18.169,67.67-68.18c0-4.18-0.3-8.122-0.837-11.859
				C398.928,621.638,362.878,636.921,337.941,636.921z"/>
			<path fill="#FF0000" stroke="#FF0000" stroke-width="1.75" d="M309.52,569.075h28.164c7.938,0.199,17.007,2.606,21.16,11.524
				c1.444-3.106,2.298-6.994,2.298-11.858c0-18.832-12.76-23.098-23.459-23.366H309.52c-12.277,0-22.231-10.032-22.231-22.409v23.7
				C287.29,559.043,297.244,569.075,309.52,569.075z"/>
			<path fill="#FF0000" stroke="#FF0000" stroke-width="1.75" d="M405.588,476.787c0.003,0.154,0.023,0.303,0.023,0.457v-0.463
				L405.588,476.787z"/>
			<path fill="#FF0000" stroke="#FF0000" stroke-width="1.75" d="M397.679,534.826c4.914-9.127,7.932-20.306,7.932-33.882
				c0-0.152-0.02-0.3-0.023-0.451l0.023-0.011v-23.237c0,20.142-6.626,35.028-16.263,45.723
				C392.489,526.46,395.302,530.407,397.679,534.826z"/>
		</g>
	</g>
</g>
<g>
	<g>
		<g>
			<path fill="#FFFFFF" stroke="#FF0000" stroke-width="1.75" d="M0,477.244v137.294c0,12.385,9.961,22.398,22.234,22.398
				c12.299,0,22.257-10.013,22.257-22.398V477.244c0-12.355-9.957-22.383-22.257-22.383C9.961,454.861,0,464.889,0,477.244z"/>
		</g>
		<g>
			<path fill="#FFFFFF" stroke="#FF0000" stroke-width="1.75" d="M722.464,399.948c-49.702,0-67.734,40.723-67.734,68.121v91.534
				c0,12.37,9.976,22.409,22.253,22.409c12.273,0,22.208-10.039,22.208-22.409v-91.534c0.305-10.497,4.537-23.347,23.273-23.347
				h54.556c12.277,0,22.223-10.021,22.223-22.406c0-12.362-9.946-22.368-22.223-22.368H722.464z"/>
		</g>
		<g>
			<path fill="#FFFFFF" stroke="#FF0000" stroke-width="1.75" d="M967.955,399.948c-49.669,0-67.707,40.742-67.707,68.121v91.534
				c0,12.37,9.958,22.409,22.253,22.409c12.284,0,22.234-10.039,22.234-22.409v-91.534c0.272-10.497,4.508-23.347,23.221-23.347
				h89.484c12.299,0,22.234-10.021,22.234-22.406c0-12.362-9.935-22.368-22.234-22.368H967.955z"/>
		</g>
		<g>
			<path fill="#FFFFFF" stroke="#FF0000" stroke-width="1.75" d="M274.254,399.948c-49.687,0-67.715,40.742-67.715,68.121v91.534
				c0,12.37,9.95,22.409,22.234,22.409c12.277,0,22.253-10.039,22.253-22.409v-91.534c0.253-10.497,4.512-23.347,23.228-23.347
				h54.571c12.273,0,22.234-10.021,22.234-22.406c0-12.362-9.961-22.368-22.234-22.368H274.254z"/>
		</g>
		<g>
			<path fill="#FFFFFF" stroke="#FF0000" stroke-width="1.75" d="M454.68,422.338v137.264c0,12.37,9.976,22.409,22.253,22.409
				c12.277,0,22.253-10.039,22.253-22.409V422.338c0-12.362-9.976-22.375-22.253-22.375
				C464.656,399.963,454.68,409.976,454.68,422.338z"/>
		</g>
	</g>
	<g>
		<g>
			<g>
				<path fill="#FFFFFF" stroke="#FF0000" stroke-width="1.75" d="M126.481,505.568L95.7,530.557
					c-14.294,10.803-22.212,23.548-22.923,37.384c-0.048,0.775-0.048,1.541,0,2.304c0.711,13.84,8.64,26.571,23.552,37.816
					c-0.611-0.462,30.126,24.494,30.126,24.494c9.585,7.761,23.567,6.28,31.287-3.354c3.335-4.128,4.943-9.109,4.943-14.052
					c0-6.518-2.836-12.987-8.279-17.421l-30.754-24.996c-2.144-1.646-3.142-2.654-4.173-3.674c0.927-0.927,1.753-1.813,3.57-3.179
					c0.603-0.465,31.358-25.447,31.358-25.447c5.442-4.403,8.279-10.892,8.279-17.447c0-4.932-1.608-9.89-4.943-14.015
					C150.044,499.329,136.04,497.833,126.481,505.568z"/>
			</g>
			<g>
				<path fill="#FFFFFF" stroke="#FF0000" stroke-width="1.75" d="M809.331,477.244v91.497
					c-0.249,10.527-4.508,23.418-23.243,23.418h-54.534c-12.277,0-22.234,10.013-22.234,22.379c0,12.359,9.957,22.383,22.234,22.383
					h54.578c49.654,0.015,67.659-40.772,67.659-68.18v-91.497c0-12.355-9.905-22.383-22.23-22.383
					C819.292,454.861,809.331,464.889,809.331,477.244z"/>
			</g>
			<g>
				<path fill="#FFFFFF" stroke="#FF0000" stroke-width="1.75" d="M977.045,592.159c-12.295,0-22.234,10.013-22.234,22.379
					c0,12.359,9.939,22.383,22.234,22.383h80.732c12.299,0,22.223-10.025,22.223-22.383c0-12.366-9.924-22.379-22.223-22.379
					H977.045z"/>
			</g>
			<g>
				<path fill="#FFFFFF" stroke="#FF0000" stroke-width="1.75" d="M531.481,592.159c-12.273,0-22.237,10.013-22.237,22.379
					c0,12.385,9.965,22.398,22.237,22.398h81.789c12.299,0,22.26-10.013,22.26-22.398c0-12.366-9.961-22.379-22.26-22.379H531.481z"
					/>
			</g>
		</g>
		<path fill="#FFFFFF" stroke="#FF0000" stroke-width="1.75" d="M405.611,477.244c0-12.355-9.943-22.383-22.234-22.383
			c-12.273,0-22.234,10.028-22.234,22.383c0,18.81-12.76,23.094-23.459,23.358H309.52c-12.277,0-22.231,10.006-22.231,22.364
			c0,12.377,9.954,22.409,22.231,22.409h28.164c10.698,0.268,23.459,4.534,23.459,23.366c0,18.854-12.76,23.139-23.459,23.418
			H283.34c-12.295,0-22.249,10.013-22.249,22.379c0,12.359,9.954,22.383,22.249,22.383h54.601c27.207,0,67.67-18.169,67.67-68.18
			c0-20.161-6.626-35.058-16.263-45.775C398.985,512.272,405.611,497.386,405.611,477.244z"/>
	</g>
</g>
<g>
</g>
<g>
</g>
<g>
</g>
<g>
</g>
<g>
</g>
<g>
</g>
<g>
</g>
<g>
</g>
<g>
</g>
<g>
</g>
<g>
</g>
<g>
</g>
<g>
</g>
<g>
</g>
<g>
</g>
</svg>
