<?xml version="1.0" encoding="utf-8"?>
<!-- Generator: Adobe Illustrator 27.0.1, SVG Export Plug-In . SVG Version: 6.00 Build 0)  -->
<svg version="1.1" id="Layer_1" xmlns="http://www.w3.org/2000/svg" xmlns:xlink="http://www.w3.org/1999/xlink" x="0px" y="0px"
	 width="1080px" height="1080px" viewBox="0 0 1080 1080" enable-background="new 0 0 1080 1080" xml:space="preserve">
<g>
	<path fill="#B3B3B3" d="M544.182,80.654c-184.558,0-334.179,149.622-334.179,334.18c0,184.549,149.622,334.18,334.179,334.18
		c184.558,0,334.18-149.631,334.18-334.18C878.361,230.276,728.74,80.654,544.182,80.654z M544.405,513.448
		c-54.121,0-97.983-43.862-97.983-97.972c0-54.11,43.862-97.972,97.983-97.972c54.099,0,97.961,43.862,97.961,97.972
		C642.366,469.586,598.504,513.448,544.405,513.448z"/>
	<g>
		<g>
			<g>
				<path fill="#B3B3B3" d="M367.661,869.542h-23.388c-0.89,0-1.622,0.714-1.622,1.601V941.6l-21.448-8.669
					c-0.383-0.151-0.834-0.151-1.222,0.008l-20.876,8.863v-70.659c0-0.886-0.731-1.601-1.609-1.601h-23.401
					c-0.89,0-1.605,0.714-1.605,1.601v126.586c0,0.886,0.714,1.609,1.605,1.609h23.401c0.878,0,1.609-0.723,1.609-1.609v-16.022
					l6.294-15.627l15.218-6.523l15.394,6.179l6.639,15.88v16.113c0,0.886,0.731,1.609,1.622,1.609h23.388
					c0.886,0,1.609-0.723,1.609-1.609V871.143C369.27,870.256,368.547,869.542,367.661,869.542z"/>
			</g>
			<g>
				<path fill="#B3B3B3" d="M240.533,883.887c-0.172-0.404-0.491-0.719-0.895-0.886l-33.017-13.342c-0.378-0.177-0.83-0.159-1.222,0
					l-33.189,14.107c-0.396,0.155-0.697,0.473-0.86,0.869l-13.32,32.888c-0.078,0.185-0.12,0.396-0.12,0.594v79.612
					c0,0.886,0.731,1.609,1.626,1.609h23.384c0.891,0,1.609-0.723,1.609-1.609v-16.005l6.278-15.644l15.235-6.505l15.39,6.157
					l6.656,15.915v16.083c0,0.886,0.719,1.609,1.6,1.609h23.393c0.891,0,1.609-0.723,1.609-1.609v-79.612
					c0-0.207-0.043-0.422-0.129-0.607L240.533,883.887z M228.086,918.366v23.251l-21.465-8.678c-0.378-0.159-0.83-0.172-1.231,0
					l-20.863,8.876v-23.38l6.278-15.631l15.235-6.531l15.39,6.191L228.086,918.366z"/>
			</g>
			<g>
				<path fill="#B3B3B3" d="M132.274,883.818c-0.163-0.396-0.469-0.701-0.869-0.869l-32.371-13.29c-0.392-0.177-0.843-0.159-1.239,0
					l-28.06,11.711l-28.078-11.711c-0.396-0.159-0.847-0.177-1.231,0l-32.38,13.29c-0.396,0.167-0.705,0.473-0.869,0.869
					l-7.056,16.53c-0.082,0.207-0.12,0.43-0.12,0.645v96.736c0,0.886,0.714,1.609,1.605,1.609h23.388
					c0.882,0,1.605-0.723,1.605-1.609v-95.467l14.439-5.989l15.39,6.38v95.076c0,0.886,0.719,1.609,1.605,1.609h23.388
					c0.886,0,1.622-0.723,1.622-1.609v-95.076l15.377-6.38l14.435,5.989v95.467c0,0.886,0.736,1.609,1.626,1.609h23.371
					c0.886,0,1.609-0.723,1.609-1.609v-96.736c0-0.215-0.043-0.439-0.125-0.645L132.274,883.818z"/>
			</g>
			<g>
				<path fill="#B3B3B3" d="M701.944,869.542h-23.379c-0.895,0-1.618,0.714-1.618,1.601v29.768l-6.282,15.631l-15.226,6.518
					l-15.39-6.174l-6.652-15.893v-29.85c0-0.886-0.714-1.601-1.605-1.601h-23.401c-0.895,0-1.605,0.714-1.605,1.601v30.074v0.009
					l0,0c0,0.241,0.034,0.456,0.129,0.654l14.034,33.572c0.164,0.417,0.482,0.718,0.891,0.89l20.032,8.08v53.307
					c0,0.886,0.714,1.609,1.605,1.609h23.401c0.878,0,1.605-0.723,1.605-1.609v-53.316l20.79-8.829
					c0.4-0.163,0.701-0.478,0.86-0.878l13.307-32.888c0.078-0.194,0.12-0.387,0.12-0.603v-30.074
					C703.562,870.256,702.83,869.542,701.944,869.542z"/>
			</g>
			<g>
				<path fill="#B3B3B3" d="M469.362,883.887c-0.172-0.404-0.486-0.719-0.886-0.886l-33.017-13.342
					c-0.378-0.177-0.835-0.159-1.222,0l-33.189,14.107c-0.383,0.155-0.701,0.473-0.861,0.869l-13.325,32.888
					c-0.073,0.185-0.116,0.396-0.116,0.594v79.612c0,0.886,0.731,1.609,1.622,1.609h23.401c0.869,0,1.605-0.723,1.605-1.609v-16.005
					l6.282-15.644l15.231-6.505l15.398,6.157l6.622,15.915v16.083c0,0.886,0.727,1.609,1.605,1.609h23.405
					c0.886,0,1.601-0.723,1.601-1.609v-79.612c0-0.207-0.034-0.422-0.112-0.607L469.362,883.887z M456.907,918.366v23.251
					l-21.448-8.687c-0.378-0.134-0.835-0.163-1.222,0.008l-20.863,8.867v-23.371l6.282-15.631l15.231-6.531l15.398,6.191
					L456.907,918.366z"/>
			</g>
			<g>
				<path fill="#B3B3B3" d="M965.004,869.542h-23.379c-0.886,0-1.618,0.714-1.618,1.601v95.454l-14.422,5.997l-15.407-6.368v-95.084
					c0-0.886-0.71-1.601-1.605-1.601h-23.375c-0.891,0-1.605,0.714-1.605,1.601v95.084l-15.403,6.368l-14.422-5.997v-95.454
					c0-0.886-0.74-1.601-1.618-1.601h-23.38c-0.886,0-1.622,0.714-1.622,1.601v96.745c0,0.206,0.039,0.422,0.133,0.619l7.048,16.551
					c0.176,0.383,0.482,0.701,0.878,0.86l32.367,13.29c0.4,0.168,0.852,0.168,1.234,0l28.091-11.72l28.074,11.72
					c0.185,0.086,0.404,0.129,0.611,0.129c0.211,0,0.422-0.043,0.62-0.129l32.354-13.29c0.404-0.159,0.706-0.478,0.878-0.86
					l7.056-16.551c0.095-0.198,0.125-0.413,0.125-0.619v-96.745C966.617,870.256,965.891,869.542,965.004,869.542z"/>
			</g>
			<g>
				<path fill="#B3B3B3" d="M1079.875,917.51l-14.048-33.623c-0.168-0.404-0.482-0.719-0.886-0.886l-33.013-13.342
					c-0.374-0.177-0.83-0.159-1.226,0l-33.189,14.107c-0.396,0.155-0.701,0.473-0.86,0.869l-13.307,32.888
					c-0.082,0.185-0.125,0.396-0.125,0.594v79.612c0,0.886,0.731,1.609,1.622,1.609h23.375c0.895,0,1.618-0.723,1.618-1.609v-16.005
					l6.29-15.644l15.222-6.505l15.381,6.157l6.656,15.915v16.083c0,0.886,0.714,1.609,1.609,1.609h23.384
					c0.886,0,1.622-0.723,1.622-1.609v-79.612C1080,917.91,1079.957,917.695,1079.875,917.51z M1053.385,918.366v23.251
					l-21.457-8.687c-0.374-0.134-0.83-0.163-1.226,0.008l-20.867,8.876v-23.38l6.29-15.631l15.222-6.531l15.381,6.191
					L1053.385,918.366z"/>
			</g>
			<g>
				<path fill="#B3B3B3" d="M795.664,883.887c-0.168-0.404-0.495-0.719-0.891-0.886l-33-13.342c-0.396-0.177-0.843-0.159-1.231,0
					l-33.18,14.107c-0.392,0.155-0.697,0.473-0.861,0.869l-13.32,32.888c-0.078,0.185-0.12,0.396-0.12,0.594v79.612
					c0,0.886,0.723,1.609,1.618,1.609h23.375c0.891,0,1.618-0.723,1.618-1.609v-16.005l6.294-15.644l15.222-6.505l15.394,6.157
					l6.635,15.915v16.083c0,0.886,0.74,1.609,1.626,1.609h23.371c0.891,0,1.627-0.723,1.627-1.609v-79.612
					c0-0.207-0.043-0.422-0.125-0.607L795.664,883.887z M783.217,918.366v23.251l-21.443-8.678c-0.396-0.159-0.843-0.172-1.231,0
					l-20.871,8.876v-23.38l6.294-15.631l15.222-6.531l15.394,6.191L783.217,918.366z"/>
			</g>
			<g>
				<path fill="#B3B3B3" d="M583.579,883.887c-0.168-0.404-0.495-0.719-0.89-0.886l-33.017-13.342c-0.383-0.177-0.834-0.159-1.231,0
					l-33.18,14.107c-0.383,0.155-0.706,0.473-0.86,0.869l-13.312,32.888c-0.078,0.185-0.121,0.396-0.121,0.594v79.612
					c0,0.886,0.723,1.609,1.609,1.609h23.388c0.89,0,1.605-0.723,1.605-1.609v-79.294l6.312-15.631l15.218-6.531l15.382,6.191
					l6.651,15.902v79.363c0,0.886,0.719,1.609,1.609,1.609h23.388c0.886,0,1.609-0.723,1.609-1.609v-79.612
					c0-0.207-0.043-0.422-0.121-0.607L583.579,883.887z"/>
			</g>
		</g>
		<g>
			<g>
				<polygon fill="#1A1A1A" points="441.18,373.319 474.38,346.96 446.217,415.337 				"/>
				<path fill="#1A1A1A" d="M471.991,350.134l-25.238,61.275l-4.513-37.655L471.991,350.134 M476.768,343.788l-6.02,4.78
					l-29.751,23.62l-0.875,0.695l0.133,1.11l4.513,37.655l0.913,7.618l2.922-7.094l25.238-61.275L476.768,343.788L476.768,343.788z"
					/>
			</g>
			<path fill="#1A1A1A" d="M446.437,413.726l-4.822-40.228l31.785-25.235L446.437,413.726z M442.865,374.011l4.205,35.082
				l23.513-57.088L442.865,374.011z"/>
		</g>
		<g>
			<g>
				<polygon fill="#1A1A1A" points="440.965,458.766 446.209,414.671 475.993,486.024 				"/>
				<path fill="#1A1A1A" d="M446.753,418.569l26.851,64.33l-31.58-24.575L446.753,418.569 M445.666,410.773l-0.899,7.56
					l-4.729,39.754l-0.133,1.121l0.891,0.693l31.58,24.575l6.005,4.673l-2.931-7.022l-26.851-64.33L445.666,410.773L445.666,410.773
					z"/>
			</g>
			<path fill="#1A1A1A" d="M475.013,484.741L441.4,458.583l5.033-42.313L475.013,484.741z M442.65,458.062l29.546,22.993
				l-25.122-60.188L442.65,458.062z"/>
		</g>
		<g>
			<g>
				<polygon fill="#1A1A1A" points="543.262,513.657 614.458,483.952 587.278,518.846 				"/>
				<path fill="#1A1A1A" d="M611.33,486.341l-24.494,31.447l-39.669-4.677L611.33,486.341 M617.586,481.563l-7.026,2.931
					l-64.162,26.769l-7.043,2.938l7.579,0.894l39.669,4.677l1.119,0.132l0.693-0.889l24.494-31.447L617.586,481.563L617.586,481.563
					z"/>
			</g>
			<path fill="#1A1A1A" d="M587.097,518.411l-42.233-4.979l68.31-28.5L587.097,518.411z M549.471,512.788l37.104,4.374
				l22.909-29.414L549.471,512.788z"/>
		</g>
		<g>
			<g>
				<polygon fill="#1A1A1A" points="475.537,485.538 543.938,513.62 501.853,518.662 				"/>
				<path fill="#1A1A1A" d="M478.707,487.92L540,513.085l-37.711,4.518L478.707,487.92 M472.367,483.155l4.774,6.009l23.582,29.683
					l0.695,0.875l1.109-0.133l37.711-4.518l7.636-0.915l-7.115-2.921l-61.293-25.165L472.367,483.155L472.367,483.155z"/>
			</g>
			<path fill="#1A1A1A" d="M502.032,518.227l-25.195-31.713l65.484,26.886L502.032,518.227z M480.576,489.325l21.969,27.653
				l35.133-4.208L480.576,489.325z"/>
		</g>
		<g>
			<g>
				<polygon fill="#1A1A1A" points="501.063,312.461 545.018,317.654 473.865,347.397 				"/>
				<path fill="#1A1A1A" d="M501.506,313.52l39.613,4.681l-64.124,26.804L501.506,313.52 M500.62,311.401l-0.693,0.89
					l-24.511,31.485l-4.681,6.013l7.03-2.939l64.124-26.804l7.028-2.938l-7.564-0.894l-39.613-4.681L500.62,311.401L500.62,311.401z
					"/>
			</g>
			<path fill="#1A1A1A" d="M475.149,346.416l26.095-33.52l0.331,0.038l41.842,4.945L475.149,346.416z M501.767,314.144
				l-22.927,29.45l59.978-25.071L501.767,314.144z"/>
		</g>
		<g>
			<g>
				<polygon fill="#333333" points="501.396,518.456 543.608,512.885 587.821,518.62 545.064,553.812 				"/>
				<path fill="#333333" d="M543.61,513.894l41.794,5.421l-40.344,33.206l-41.226-33.378L543.61,513.894 M543.608,511.876
					l-0.259,0.034l-39.776,5.249l-4.614,0.609l3.617,2.928l41.226,33.378l1.269,1.027l1.261-1.038l40.344-33.206l3.564-2.934
					l-4.578-0.594l-41.794-5.421L543.608,511.876L543.608,511.876z"/>
			</g>
			<path fill="#333333" d="M545.063,553.282l-42.667-34.544l41.213-5.438l0.075,0.01l43.145,5.596L545.063,553.282z M505.27,519.548
				l39.786,32.212l38.922-32.035l-40.369-5.236L505.27,519.548z"/>
		</g>
		<g>
			<g>
				<polygon fill="#333333" points="446.558,317.923 501.611,312.232 474.644,347.724 440.975,373.837 				"/>
				<path fill="#333333" d="M499.419,313.464l-25.492,33.551l-31.726,24.605l5.271-52.786L499.419,313.464 M503.803,311
					l-4.589,0.474l-51.948,5.37l-1.622,0.168l-0.162,1.623l-5.271,52.786l-0.462,4.632l3.678-2.853l31.726-24.605l0.208-0.161
					l0.159-0.209l25.492-33.551L503.803,311L503.803,311z"/>
			</g>
			<path fill="#333333" d="M441.478,372.927l5.455-54.631l53.779-5.559l-26.424,34.743L441.478,372.927z M448.01,319.37
				l-5.086,50.943l30.58-23.717l24.623-32.406L448.01,319.37z"/>
		</g>
		<g>
			<g>
				<path fill="#333333" d="M500.524,312.7l42.844-35.23l43.947,35.562l-2.661,0.102c-13.073,0.499-39.497,5.229-39.763,5.276
					l-0.152,0.027L500.524,312.7z"/>
				<path fill="#333333" d="M543.373,278.761l41.244,33.374c-13.295,0.508-39.901,5.292-39.901,5.292l-41.772-5.421L543.373,278.761
					 M543.363,276.18l-1.26,1.036l-40.43,33.245l-3.568,2.934l4.581,0.594l41.772,5.421l0.307,0.04l0.305-0.055
					c0.265-0.048,26.622-4.765,39.623-5.262l5.322-0.203l-4.14-3.35l-41.244-33.374L543.363,276.18L543.363,276.18z"/>
			</g>
			<path fill="#333333" d="M544.73,318.023l-0.09-0.011l-43.125-5.597l41.854-34.416l42.838,34.664l-1.57,0.06
				c-13.1,0.5-39.553,5.235-39.819,5.283L544.73,318.023z M504.37,311.597l40.332,5.234c1.653-0.295,25.155-4.453,38.342-5.211
				l-39.667-32.098L504.37,311.597z"/>
		</g>
		<g>
			<g>
				<polygon fill="#333333" points="446.427,513.297 440.741,458.213 476.31,485.254 502.397,518.871 				"/>
				<path fill="#333333" d="M441.973,460.406l33.628,25.565l24.58,31.674l-52.842-5.262L441.973,460.406 M439.51,456.021l0.474,4.59
					l5.365,51.978l0.168,1.623l1.624,0.162l52.842,5.262l4.632,0.461l-2.854-3.677l-24.58-31.674l-0.161-0.207l-0.209-0.159
					l-33.628-25.565L439.51,456.021L439.51,456.021z"/>
			</g>
			<path fill="#333333" d="M501.488,518.367l-54.687-5.445l-5.555-53.809l34.821,26.496L501.488,518.367z M447.875,511.844
				l50.998,5.078l-23.691-30.529l-32.483-24.695L447.875,511.844z"/>
		</g>
		<g>
			<g>
				<polygon fill="#333333" points="406.022,416.525 441.414,372.812 446.948,414.997 441.196,459.314 				"/>
				<path fill="#333333" d="M440.725,375.251l5.215,39.746l-5.438,41.897l-33.189-40.374L440.725,375.251 M442.102,370.372
					l-2.931,3.621l-33.413,41.269l-1.027,1.268l1.036,1.26l33.189,40.374l2.934,3.569l0.595-4.581l5.438-41.897l0.034-0.259
					l-0.034-0.259l-5.215-39.746L442.102,370.372L442.102,370.372z"/>
			</g>
			<path fill="#333333" d="M440.91,458.321l-34.359-41.798l34.579-42.711l5.403,41.184l-0.01,0.077L440.91,458.321z
				 M408.073,416.517l32.019,38.951l5.253-40.469l-5.026-38.308L408.073,416.517z"/>
		</g>
		<g>
			<g>
				<polygon fill="#1A1A1A" points="612.84,346.96 646.039,373.319 641.003,415.337 				"/>
				<path fill="#1A1A1A" d="M615.229,350.134l29.751,23.62l-4.513,37.655L615.229,350.134 M610.452,343.788l2.928,7.108
					l25.238,61.275l2.922,7.094l0.913-7.618l4.513-37.655l0.133-1.11l-0.875-0.695l-29.751-23.62L610.452,343.788L610.452,343.788z"
					/>
			</g>
			<path fill="#1A1A1A" d="M640.783,413.726l-26.963-65.463l31.784,25.235l-0.04,0.327L640.783,413.726z M616.637,352.005
				l23.513,57.088l4.204-35.082L616.637,352.005z"/>
		</g>
		<g>
			<g>
				<polygon fill="#1A1A1A" points="641.01,414.671 646.255,458.766 611.227,486.024 				"/>
				<path fill="#1A1A1A" d="M640.467,418.569l4.729,39.754l-31.58,24.575L640.467,418.569 M641.553,410.773l-2.932,7.026
					l-26.851,64.33l-2.931,7.022l6.005-4.673l31.58-24.575l0.891-0.693l-0.133-1.121l-4.729-39.754L641.553,410.773L641.553,410.773
					z"/>
			</g>
			<path fill="#1A1A1A" d="M612.207,484.741l28.579-68.471l5.034,42.313L612.207,484.741z M640.147,420.867l-25.123,60.188
				l29.546-22.993L640.147,420.867z"/>
		</g>
		<g>
			<g>
				<polygon fill="#1A1A1A" points="542.202,317.654 586.156,312.461 613.354,347.397 				"/>
				<path fill="#1A1A1A" d="M585.714,313.52l24.511,31.485l-64.124-26.804L585.714,313.52 M586.599,311.401l-1.12,0.132
					l-39.613,4.681l-7.564,0.894l7.028,2.938l64.124,26.804l7.03,2.939l-4.681-6.013l-24.511-31.485L586.599,311.401
					L586.599,311.401z"/>
			</g>
			<path fill="#1A1A1A" d="M612.07,346.416l-68.267-28.537l42.172-4.984L612.07,346.416z M548.4,318.523l59.98,25.071l-22.927-29.45
				L548.4,318.523z"/>
		</g>
		<g>
			<g>
				<polygon fill="#333333" points="612.576,347.724 585.608,312.232 640.662,317.923 646.245,373.837 				"/>
				<path fill="#333333" d="M587.8,313.464l51.948,5.37l5.271,52.786l-31.726-24.605L587.8,313.464 M583.417,311l2.791,3.674
					l25.492,33.551l0.159,0.209l0.208,0.161l31.726,24.605l3.678,2.853l-0.462-4.632l-5.271-52.786l-0.162-1.623l-1.622-0.168
					l-51.948-5.37L583.417,311L583.417,311z"/>
			</g>
			<path fill="#333333" d="M645.74,372.927l-32.918-25.556l-26.316-34.634l53.779,5.559L645.74,372.927z M613.715,346.596
				l30.581,23.718l-5.087-50.943l-50.115-5.18L613.715,346.596z"/>
		</g>
		<g>
			<g>
				<polygon fill="#333333" points="610.909,485.254 646.479,458.213 640.793,513.297 584.822,518.871 				"/>
				<path fill="#333333" d="M645.247,460.406l-5.365,51.978l-52.842,5.262l24.58-31.674L645.247,460.406 M647.71,456.021
					l-3.674,2.793l-33.628,25.565l-0.209,0.159l-0.161,0.207l-24.58,31.674l-2.854,3.677l4.632-0.461l52.842-5.262l1.624-0.162
					l0.168-1.623l5.365-51.978L647.71,456.021L647.71,456.021z"/>
			</g>
			<path fill="#333333" d="M585.732,518.367l25.531-32.866l34.71-26.388l-5.553,53.809L585.732,518.367z M612.038,486.394
				l-23.691,30.529l50.997-5.078l5.176-50.146L612.038,486.394z"/>
		</g>
		<g>
			<g>
				<polygon fill="#4D4D4D" points="376.986,346.981 446.938,317.631 441.641,373.493 406.101,417.001 				"/>
				<path fill="#4D4D4D" d="M445.785,319.199l-5.111,53.897l-34.29,41.979l-28.091-67.557L445.785,319.199 M448.092,316.063
					l-3.08,1.292l-67.493,28.319l-1.838,0.771l0.765,1.841l28.091,67.557l1.282,3.084l2.113-2.587l34.29-41.979l0.385-0.471
					l0.057-0.605l5.111-53.897L448.092,316.063L448.092,316.063z"/>
			</g>
			<path fill="#4D4D4D" d="M406.217,416.211l-28.695-69.009l0.543-0.227l68.401-28.7l-5.222,55.055L406.217,416.211z
				 M379.063,347.835l27.487,66.105l33.555-41.078l5.001-52.738L379.063,347.835z"/>
		</g>
		<g>
			<g>
				<polygon fill="#4D4D4D" points="446.163,512.916 502.054,518.231 545.511,553.732 475.459,582.842 				"/>
				<path fill="#4D4D4D" d="M447.73,514.07l53.927,5.129l41.927,34.252l-67.587,28.086L447.73,514.07 M444.595,511.763l1.29,3.08
					l28.267,67.467l0.771,1.839l1.841-0.765l67.587-28.086l3.085-1.282l-2.587-2.114l-41.927-34.252l-0.471-0.385l-0.605-0.058
					l-53.927-5.129L444.595,511.763L444.595,511.763z"/>
			</g>
			<path fill="#4D4D4D" d="M475.68,582.307l-28.874-68.917l55.085,5.239l42.83,34.987L475.68,582.307z M448.654,514.75
				l27.659,66.016l66.134-27.483l-41.025-33.515L448.654,514.75z"/>
		</g>
		<g>
			<g>
				<polygon fill="#4D4D4D" points="544.585,553.727 587.091,518.427 642.159,513.02 613.698,582.031 				"/>
				<path fill="#4D4D4D" d="M640.6,514.177l-27.445,66.55l-66.649-27.295l40.989-34.041L640.6,514.177 M643.718,511.861
					l-3.314,0.325l-53.105,5.215l-0.61,0.06l-0.472,0.392l-40.989,34.041l-2.562,2.127l3.082,1.262l66.649,27.295l1.846,0.756
					l0.761-1.844l27.445-66.55L643.718,511.861L643.718,511.861z"/>
			</g>
			<path fill="#4D4D4D" d="M613.475,581.496l-68.102-27.889l41.884-34.785l54.262-5.328L613.475,581.496z M547.636,553.259
				l65.196,26.699l26.848-65.099l-51.947,5.101L547.636,553.259z"/>
		</g>
		<g>
			<g>
				<polygon fill="#4D4D4D" points="474.738,249.276 543.821,277.549 501.263,312.902 446.309,318.287 				"/>
				<path fill="#4D4D4D" d="M475.283,250.58l66.619,27.265l-41.041,34.092l-52.993,5.193L475.283,250.58 M474.193,247.973
					l-0.76,1.845l-27.415,66.55l-1.267,3.077l3.312-0.325l52.993-5.193l0.611-0.06l0.472-0.392l41.041-34.092l2.562-2.128
					l-3.082-1.261l-66.619-27.265L474.193,247.973L474.193,247.973z"/>
			</g>
			<path fill="#4D4D4D" d="M446.948,317.812l28.013-68.001l68.073,27.861l-41.936,34.834L446.948,317.812z M475.604,251.348
				l-26.818,65.098l51.837-5.079l40.147-33.349L475.604,251.348z"/>
		</g>
		<g>
			<g>
				<polygon fill="#4D4D4D" points="377.85,485.104 406.115,416.09 441.398,458.565 446.796,513.551 				"/>
				<path fill="#4D4D4D" d="M406.409,418.009l34.023,40.959l5.206,53.023l-66.486-27.432L406.409,418.009 M405.82,414.17
					l-1.262,3.081l-27.256,66.55l-0.756,1.846l1.844,0.761l66.486,27.432l3.079,1.27l-0.325-3.315l-5.206-53.023l-0.06-0.611
					l-0.392-0.472l-34.024-40.959L405.82,414.17L405.82,414.17z"/>
			</g>
			<path fill="#4D4D4D" d="M446.321,512.911l-67.937-28.032l27.852-68.002l34.766,41.854L446.321,512.911z M379.922,484.239
				l65.034,26.833l-5.092-51.866l-33.281-40.065L379.922,484.239z"/>
		</g>
		<g>
			<g>
				<polygon fill="#4D4D4D" points="586.361,313.054 542.905,277.527 612.873,248.465 642.202,318.348 				"/>
				<path fill="#4D4D4D" d="M612.337,249.771l28.297,67.424l-53.875-5.107l-41.927-34.278L612.337,249.771 M613.41,247.159
					l-1.84,0.764l-67.505,28.039l-3.085,1.281l2.586,2.114l41.927,34.278l0.471,0.385l0.606,0.057l53.875,5.107l3.326,0.315
					l-1.293-3.08l-28.297-67.424L613.41,247.159L613.41,247.159z"/>
			</g>
			<path fill="#4D4D4D" d="M641.56,317.874l-55.037-5.217l-0.137-0.113l-42.69-34.902l68.957-28.642L641.56,317.874z
				 M586.993,311.517l52.716,4.996L612.02,250.54l-66.054,27.436L586.993,311.517z"/>
		</g>
		<g>
			<g>
				<polygon fill="#666666" points="308.445,416.304 377.254,346.651 406.537,416.543 378.131,485.434 				"/>
				<path fill="#666666" d="M376.911,348.421l28.543,68.125l-27.678,67.127l-67.918-67.376L376.911,348.421 M377.597,344.882
					l-2.108,2.134l-67.053,67.875l-1.403,1.42l1.417,1.406l67.918,67.376l2.12,2.103l1.138-2.76l27.678-67.127l0.317-0.769
					l-0.321-0.767l-28.543-68.125L377.597,344.882L377.597,344.882z"/>
			</g>
			<path fill="#666666" d="M377.985,484.711L309.024,416.3l68.089-68.923l28.98,69.168L377.985,484.711z M310.69,416.292
				l66.876,66.342l27.249-66.086l-28.107-67.083L310.69,416.292z"/>
		</g>
		<g>
			<g>
				<polygon fill="#666666" points="377.996,582.854 377.81,484.703 446.764,512.928 475.887,582.912 				"/>
				<path fill="#666666" d="M378.813,486.194L446,513.696l28.387,68.215l-95.394-0.056L378.813,486.194 M376.807,483.212
					l0.006,2.986l0.181,95.661l0.004,1.995l1.995,0.001l95.394,0.056l3,0.002l-1.153-2.77l-28.387-68.215l-0.319-0.768l-0.769-0.315
					l-67.187-27.501L376.807,483.212L376.807,483.212z"/>
			</g>
			<path fill="#666666" d="M475.272,582.5l-96.866-0.056l-0.002-0.588l-0.182-96.541l68.228,27.927L475.272,582.5z M379.582,581.265
				l93.921,0.056l-27.953-67.172l-66.146-27.075L379.582,581.265z"/>
		</g>
		<g>
			<g>
				<polygon fill="#666666" points="377.005,249.422 475.182,249.206 446.906,318.268 376.943,347.4 				"/>
				<path fill="#666666" d="M473.69,250.209l-27.553,67.294L377.944,345.9l0.06-95.48L473.69,250.209 M476.673,248.203l-2.987,0.007
					L378,248.42l-1.994,0.004l-0.001,1.994l-0.06,95.48l-0.002,3.001l2.771-1.154l68.194-28.396l0.767-0.319l0.315-0.769
					l27.553-67.294L476.673,248.203L476.673,248.203z"/>
			</g>
			<path fill="#666666" d="M377.354,346.785l0.062-96.953l97.155-0.214l-27.979,68.336L377.354,346.785z M378.593,251.008
				l-0.06,94.007l67.151-27.961l27.127-66.253L378.593,251.008z"/>
		</g>
		<g>
			<g>
				<polygon fill="#666666" points="474.424,249.519 543.495,179.928 613.217,248.745 543.376,277.989 				"/>
				<path fill="#666666" d="M543.502,181.34l67.944,67.062l-68.073,28.504l-67.187-27.742L543.502,181.34 M543.487,178.516
					l-1.405,1.416l-67.316,67.824l-2.103,2.118l2.759,1.139l67.187,27.742l0.769,0.317l0.767-0.321l68.073-28.504l2.769-1.159
					l-2.137-2.109l-67.944-67.062L543.487,178.516L543.487,178.516z"/>
			</g>
			<path fill="#666666" d="M543.375,277.545l-68.227-28.172l68.35-68.866l68.993,68.097L543.375,277.545z M477.224,248.954
				l66.147,27.313l67.031-28.068l-66.895-66.026L477.224,248.954z"/>
		</g>
		<g>
			<g>
				<polygon fill="#666666" points="475.148,582.579 545.057,553.271 614.043,581.754 544.852,651.422 				"/>
				<path fill="#666666" d="M545.06,554.354l67.221,27.755l-67.437,67.901l-67.927-67.088L545.06,554.354 M545.054,552.188
					l-0.767,0.322l-68.142,28.568l-2.766,1.16l2.134,2.108l67.927,67.088l1.419,1.401l1.405-1.415l67.437-67.901l2.104-2.118
					l-2.76-1.14l-67.221-27.755L545.054,552.188L545.054,552.188z"/>
			</g>
			<path fill="#666666" d="M544.848,650.842l-68.975-68.121l69.184-29.006l0.227,0.094l68.035,28.09L544.848,650.842z
				 M477.961,583.124l66.878,66.053l66.403-66.859l-66.181-27.324L477.961,583.124z"/>
		</g>
		<g>
			<g>
				<polygon fill="#808080" points="376.709,249.724 431.765,146.469 543.903,179.937 474.969,249.816 				"/>
				<path fill="#808080" d="M432.262,147.661l109.76,32.759l-67.471,68.396l-96.177-0.09L432.262,147.661 M431.267,145.276
					l-0.77,1.443l-53.888,101.065l-1.566,2.938l3.329,0.003l96.177,0.09l0.838,0.001l0.588-0.596l67.471-68.396l2.337-2.369
					l-3.189-0.952l-109.76-32.759L431.267,145.276L431.267,145.276z"/>
			</g>
			<path fill="#808080" d="M474.797,249.405h-0.247l-97.158-0.091l54.577-102.356l0.462,0.137l110.701,33.04L474.797,249.405z
				 M379.357,248.136l94.948,0.09l66.609-67.521l-108.358-32.341L379.357,248.136z"/>
		</g>
		<g>
			<g>
				<polygon fill="#808080" points="274.186,304.699 377.31,249.122 377.525,347.203 308.457,416.71 				"/>
				<path fill="#808080" d="M376.313,250.795l0.211,95.996l-67.6,68.03L275.382,305.19L376.313,250.795 M378.306,247.449
					l-2.942,1.585L274.433,303.43l-1.443,0.778l0.48,1.568l33.542,109.631l0.977,3.194l2.354-2.369l67.6-68.03l0.583-0.587
					l-0.002-0.827l-0.211-95.996L378.306,247.449L378.306,247.449z"/>
			</g>
			<path fill="#808080" d="M308.648,415.935l-33.971-111.034L376.9,249.808l0.213,97.226l-0.172,0.173L308.648,415.935z
				 M276.087,305.48L309.2,413.707l66.735-67.159l-0.209-94.767L276.087,305.48z"/>
		</g>
		<g>
			<g>
				<polygon fill="#808080" points="274.973,528.074 308.468,415.887 378.389,484.881 378.306,583.119 				"/>
				<path fill="#808080" d="M308.95,417.768l68.439,67.531l-0.082,96.155l-101.142-53.879L308.95,417.768 M307.986,414.007
					l-0.952,3.189l-32.785,109.807l-0.468,1.568l1.444,0.769l101.142,53.879l2.938,1.565l0.003-3.328l0.082-96.155l0.001-0.837
					l-0.596-0.588l-68.439-67.531L307.986,414.007L307.986,414.007z"/>
			</g>
			<path fill="#808080" d="M377.896,582.436l-0.866-0.46l-101.568-54.108l0.138-0.462l33.066-110.747l69.313,68.394v0.247
				L377.896,582.436z M276.868,527.282l99.85,53.192l0.081-94.928l-67.564-66.669L276.868,527.282z"/>
		</g>
		<g>
			<g>
				<polygon fill="#808080" points="377.695,582.532 475.694,582.3 545.298,651.429 433.272,685.673 				"/>
				<path fill="#808080" d="M475.283,583.301l68.125,67.66l-109.644,33.516l-54.395-100.948L475.283,583.301 M476.105,581.299
					l-0.827,0.002l-95.914,0.228l-3.341,0.008l1.585,2.941l54.395,100.948l0.778,1.443l1.568-0.479l109.644-33.516l3.196-0.977
					l-2.371-2.355l-68.125-67.66L476.105,581.299L476.105,581.299z"/>
			</g>
			<path fill="#808080" d="M433.474,685.181l-0.229-0.425l-54.864-101.814l0.985-0.003l96.159-0.227l0.173,0.171l68.824,68.355
				L433.474,685.181z M380.354,584.115l53.7,99.656l108.24-33.087l-67.253-66.793L380.354,584.115z"/>
		</g>
		<g>
			<g>
				<polygon fill="#999999" points="309.738,652.245 274.526,527.679 378.433,582.396 433.601,686.095 				"/>
				<path fill="#999999" d="M276.122,529.649l101.572,53.488L431.63,684.52l-121.084-33.09L276.122,529.649 M272.93,525.708
					l1.268,4.486l34.424,121.781l0.307,1.087l1.09,0.298l121.084,33.09l4.469,1.221l-2.176-4.09L379.46,582.198l-0.289-0.543
					l-0.545-0.287L277.054,527.88L272.93,525.708L272.93,525.708z"/>
			</g>
			<path fill="#999999" d="M432.792,685.448l-122.723-33.536l-0.09-0.321L275.18,528.487L378.13,582.7l0.085,0.16L432.792,685.448z
				 M311.023,650.949l119.444,32.641l-53.209-100.018l-100.195-52.762L311.023,650.949z"/>
		</g>
		<g>
			<g>
				<polygon fill="#999999" points="432.76,685.769 544.879,650.827 657.164,684.92 544.554,748.733 				"/>
				<path fill="#999999" d="M544.883,651.873l109.76,33.327l-110.091,62.386L435.27,686.034L544.883,651.873 M544.875,649.78
					l-0.587,0.183l-109.613,34.161l-4.423,1.378l4.037,2.274l109.282,61.551l0.984,0.555l0.983-0.557l110.091-62.386l4.057-2.299
					l-4.462-1.355l-109.76-33.327L544.875,649.78L544.875,649.78z"/>
			</g>
			<path fill="#999999" d="M544.553,748.264l-0.291-0.165L433.79,685.878l111.092-34.622l0.173,0.053l111.075,33.727
				L544.553,748.264z M436.749,686.191l107.8,60.717l108.607-61.543L544.885,652.49L436.749,686.191z"/>
		</g>
		<g>
			<g>
				<polygon fill="#999999" points="307.597,181.233 432.148,145.995 377.425,249.833 273.75,304.998 				"/>
				<path fill="#999999" d="M430.176,147.592l-53.492,101.504l-101.357,53.931l33.086-120.985L430.176,147.592 M434.12,144.397
					l-4.489,1.27l-121.764,34.45l-1.087,0.307l-0.298,1.089l-33.086,120.985l-1.222,4.47l4.091-2.177l101.357-53.931l0.543-0.289
					l0.287-0.544l53.492-101.503L434.12,144.397L434.12,144.397z"/>
			</g>
			<path fill="#999999" d="M274.396,304.189l33.535-122.624l0.321-0.091l123.087-34.824L377.12,249.531l-0.16,0.085L274.396,304.189
				z M308.893,182.518l-32.638,119.347l99.99-53.205l52.767-100.126L308.893,182.518z"/>
		</g>
		<g>
			<g>
				<polygon fill="#999999" points="211.134,416.049 274.116,304.169 309.067,416.31 274.947,528.664 				"/>
				<path fill="#999999" d="M273.851,306.679l34.17,109.635l-33.353,109.829l-62.385-110.095L273.851,306.679 M274.381,301.66
					l-2.273,4.038L210.54,415.066l-0.554,0.984l0.557,0.983l62.385,110.095l2.299,4.057l1.355-4.462l33.353-109.829l0.179-0.589
					l-0.183-0.587l-34.17-109.635L274.381,301.66L274.381,301.66z"/>
			</g>
			<path fill="#999999" d="M274.833,527.629l-63.227-111.582l0.163-0.29L274.007,305.2l34.631,111.112L274.833,527.629z
				 M212.959,416.046l61.544,108.61l32.9-108.34l-33.71-108.158L212.959,416.046z"/>
		</g>
		<g>
			<g>
				<polygon fill="#333333" points="640.271,414.997 645.806,372.812 681.198,416.525 646.024,459.314 				"/>
				<path fill="#333333" d="M646.495,375.251l33.413,41.269l-33.189,40.374l-5.438-41.897L646.495,375.251 M645.117,370.372
					l-0.606,4.619l-5.215,39.746l-0.034,0.259l0.034,0.259l5.438,41.897l0.595,4.581l2.934-3.569l33.189-40.374l1.036-1.26
					l-1.027-1.268l-33.413-41.269L645.117,370.372L645.117,370.372z"/>
			</g>
			<path fill="#333333" d="M646.31,458.321l-5.624-43.324l0.01-0.076l5.394-41.108l34.579,42.711L646.31,458.321z M641.875,414.998
				l5.253,40.469l32.018-38.951l-32.245-39.827L641.875,414.998z"/>
		</g>
		<g>
			<g>
				<polygon fill="#4D4D4D" points="645.579,373.493 640.281,317.631 710.233,346.981 681.119,417.001 				"/>
				<path fill="#4D4D4D" d="M641.435,319.199l67.493,28.319l-28.091,67.557l-34.29-41.979L641.435,319.199 M639.128,316.063
					l0.315,3.326l5.112,53.897l0.057,0.605l0.385,0.471l34.29,41.979l2.113,2.587l1.283-3.084l28.091-67.557l0.765-1.841
					l-1.838-0.771l-67.493-28.319L639.128,316.063L639.128,316.063z"/>
			</g>
			<path fill="#4D4D4D" d="M681.003,416.211l-35.028-42.881l-0.016-0.178l-5.205-54.877l68.943,28.927L681.003,416.211z
				 M647.117,372.862l33.554,41.078l27.486-66.105l-66.043-27.71L647.117,372.862z"/>
		</g>
		<g>
			<g>
				<polygon fill="#4D4D4D" points="645.822,458.565 681.105,416.09 709.37,485.104 640.423,513.551 				"/>
				<path fill="#4D4D4D" d="M680.811,418.009l27.256,66.55l-66.486,27.432l5.206-53.023L680.811,418.009 M681.399,414.17
					l-2.127,2.561l-34.023,40.959l-0.392,0.472l-0.06,0.611l-5.206,53.023l-0.325,3.315l3.079-1.27l66.486-27.432l1.844-0.761
					l-0.756-1.846l-27.256-66.55L681.399,414.17L681.399,414.17z"/>
			</g>
			<path fill="#4D4D4D" d="M640.898,512.911l5.32-54.18l0.115-0.139l34.651-41.715l27.852,68.002L640.898,512.911z M647.357,459.206
				l-5.093,51.866l65.035-26.833l-26.663-65.098L647.357,459.206z"/>
		</g>
		<g>
			<g>
				<polygon fill="#666666" points="680.683,416.543 709.966,346.651 778.775,416.304 709.088,485.434 				"/>
				<path fill="#666666" d="M710.308,348.421l67.054,67.875l-67.918,67.376l-27.678-67.127L710.308,348.421 M709.623,344.882
					l-1.159,2.767l-28.543,68.125l-0.321,0.767l0.317,0.769l27.678,67.127l1.138,2.76l2.12-2.103l67.918-67.376l1.417-1.406
					l-1.403-1.42l-67.054-67.875L709.623,344.882L709.623,344.882z"/>
			</g>
			<path fill="#666666" d="M709.234,484.711l-28.106-68.166l0.094-0.226l28.885-68.941l0.62,0.63l67.468,68.293l-0.417,0.415
				L709.234,484.711z M682.404,416.548l27.249,66.086l66.876-66.342l-66.019-66.827L682.404,416.548z"/>
		</g>
		<g>
			<g>
				<polygon fill="#666666" points="640.456,512.928 709.409,484.703 709.224,582.854 611.332,582.912 				"/>
				<path fill="#666666" d="M708.407,486.194l-0.181,95.661l-95.394,0.056l28.387-68.215L708.407,486.194 M710.412,483.212
					l-2.763,1.131l-67.187,27.501l-0.769,0.315l-0.319,0.768l-28.387,68.215l-1.153,2.77l3-0.002l95.394-0.056l1.995-0.001
					l0.004-1.995l0.181-95.661L710.412,483.212L710.412,483.212z"/>
			</g>
			<path fill="#666666" d="M611.948,582.5l0.339-0.817l28.482-68.441l68.229-27.927l-0.184,97.129L611.948,582.5z M641.671,514.149
				l-27.954,67.172l93.921-0.056l0.177-94.191L641.671,514.149z"/>
		</g>
		<g>
			<g>
				<polygon fill="#666666" points="640.314,318.268 612.038,249.206 710.215,249.422 710.276,347.4 				"/>
				<path fill="#666666" d="M613.529,250.209l95.686,0.211l0.06,95.48l-68.194-28.396L613.529,250.209 M610.547,248.203l1.132,2.764
					l27.553,67.294l0.315,0.769l0.767,0.319l68.194,28.396l2.771,1.154l-0.002-3.001l-0.06-95.48l-0.001-1.994l-1.994-0.004
					l-95.686-0.211L610.547,248.203L610.547,248.203z"/>
			</g>
			<path fill="#666666" d="M709.865,346.785l-69.236-28.831l-27.98-68.336l97.155,0.214L709.865,346.785z M641.535,317.054
				l67.151,27.961l-0.061-94.007l-94.216-0.208L641.535,317.054z"/>
		</g>
		<g>
			<g>
				<polygon fill="#808080" points="543.316,179.937 655.455,146.469 710.512,249.724 612.251,249.816 				"/>
				<path fill="#808080" d="M654.957,147.661l53.888,101.065l-96.177,0.09l-67.471-68.396L654.957,147.661 M655.953,145.276
					l-1.567,0.468l-109.76,32.759l-3.189,0.952l2.337,2.369l67.471,68.396l0.588,0.596l0.838-0.001l96.177-0.09l3.329-0.003
					l-1.567-2.938l-53.888-101.065L655.953,145.276L655.953,145.276z"/>
			</g>
			<path fill="#808080" d="M612.423,249.405l-0.174-0.176l-68.161-69.094l111.164-33.177l0.225,0.425l54.35,101.931L612.423,249.405
				z M546.306,180.704l66.609,67.521l94.949-0.09l-53.2-99.773L546.306,180.704z"/>
		</g>
		<g>
			<g>
				<polygon fill="#808080" points="709.694,347.203 709.91,249.122 813.034,304.699 778.764,416.71 				"/>
				<path fill="#808080" d="M710.906,250.795l100.931,54.396l-33.542,109.631l-67.6-68.03L710.906,250.795 M708.914,247.449
					l-0.007,3.342l-0.211,95.996l-0.002,0.827l0.583,0.587l67.6,68.03l2.354,2.369l0.977-3.194l33.542-109.631l0.48-1.568
					l-1.443-0.778l-100.931-54.396L708.914,247.449L708.914,247.449z"/>
			</g>
			<path fill="#808080" d="M778.572,415.935l-0.695-0.699l-67.771-68.203v-0.245l0.213-96.981l102.225,55.093l-0.141,0.462
				L778.572,415.935z M711.285,346.548l66.734,67.159l33.114-108.227l-99.639-53.699L711.285,346.548z"/>
		</g>
		<g>
			<g>
				<polygon fill="#808080" points="708.831,484.881 778.752,415.887 812.246,528.074 708.913,583.119 				"/>
				<path fill="#808080" d="M778.27,417.768l32.785,109.807l-101.142,53.879l-0.082-96.155L778.27,417.768 M779.234,414.007
					l-2.369,2.338l-68.439,67.531l-0.596,0.588l0.001,0.837l0.082,96.155l0.003,3.328l2.938-1.565l101.142-53.879l1.444-0.769
					l-0.468-1.568l-32.785-109.807L779.234,414.007L779.234,414.007z"/>
			</g>
			<path fill="#808080" d="M709.324,582.436l-0.002-0.982l-0.082-96.402l69.314-68.394l0.28,0.94l32.924,110.269l-0.427,0.227
				L709.324,582.436z M710.42,485.546l0.08,94.928l99.851-53.192l-32.366-108.405L710.42,485.546z"/>
		</g>
		<g>
			<g>
				<polygon fill="#808080" points="541.922,651.429 611.526,582.3 709.524,582.532 653.947,685.673 				"/>
				<path fill="#808080" d="M611.937,583.301l95.914,0.228l-54.396,100.948l-109.644-33.516L611.937,583.301 M611.115,581.299
					l-0.587,0.583l-68.125,67.66l-2.371,2.355l3.196,0.977l109.644,33.516l1.568,0.479l0.778-1.443l54.396-100.948l1.585-2.941
					l-3.341-0.008l-95.914-0.228L611.115,581.299L611.115,581.299z"/>
			</g>
			<path fill="#808080" d="M653.745,685.181l-0.462-0.141l-110.584-33.803l0.699-0.695l68.297-67.83h0.245l96.899,0.23
				L653.745,685.181z M544.927,650.684l108.239,33.087l53.699-99.656l-94.685-0.224L544.927,650.684z"/>
		</g>
		<g>
			<g>
				<polygon fill="#999999" points="708.787,582.396 812.694,527.679 777.482,652.245 653.619,686.095 				"/>
				<path fill="#999999" d="M811.097,529.649L776.673,651.43L655.59,684.52l53.936-101.383L811.097,529.649 M814.29,525.708
					l-4.124,2.172l-101.572,53.488l-0.545,0.287l-0.289,0.543l-53.936,101.383l-2.176,4.09l4.469-1.221l121.084-33.09l1.09-0.298
					l0.307-1.087l34.424-121.781L814.29,525.708L814.29,525.708z"/>
			</g>
			<path fill="#999999" d="M654.427,685.448L709.09,582.7l0.16-0.085l102.79-54.128l-34.89,123.425L654.427,685.448z
				 M709.96,583.573l-53.208,100.018l119.445-32.641l33.96-120.138L709.96,583.573z"/>
		</g>
		<g>
			<g>
				<polygon fill="#999999" points="709.795,249.833 655.072,145.995 779.623,181.233 813.47,304.998 				"/>
				<path fill="#999999" d="M657.044,147.592l121.764,34.45l33.086,120.985l-101.357-53.931L657.044,147.592 M653.1,144.397
					l2.175,4.127l53.492,101.503l0.287,0.544l0.543,0.289l101.357,53.931l4.091,2.177l-1.222-4.47l-33.086-120.985l-0.298-1.089
					l-1.087-0.307l-121.764-34.45L653.1,144.397L653.1,144.397z"/>
			</g>
			<path fill="#999999" d="M812.823,304.189L710.1,249.531L655.882,146.65l123.406,34.915l0.088,0.321L812.823,304.189z
				 M710.973,248.659l99.992,53.205l-32.64-119.347l-120.12-33.985L710.973,248.659z"/>
		</g>
		<g>
			<g>
				<polygon fill="#999999" points="778.153,416.31 813.104,304.169 876.085,416.049 812.272,528.664 				"/>
				<path fill="#999999" d="M813.369,306.679l61.568,109.368l-62.385,110.095l-33.353-109.829L813.369,306.679 M812.838,301.66
					l-1.379,4.424l-34.17,109.635l-0.183,0.587l0.179,0.589l33.353,109.829l1.355,4.462l2.299-4.057l62.385-110.095l0.557-0.983
					l-0.554-0.984l-61.568-109.368L812.838,301.66L812.838,301.66z"/>
			</g>
			<path fill="#999999" d="M812.386,527.629l-33.805-111.318l0.054-0.173L813.213,305.2l62.402,110.848l-0.165,0.29L812.386,527.629
				z M779.816,416.316l32.9,108.34l61.543-108.61L813.526,308.16L779.816,416.316z"/>
		</g>
		<g>
			<g>
				<path fill="#999999" d="M431.256,146.437l1.911-1.162c4.01-2.438,98.354-59.756,110.544-62.528l0.376-0.085l111.61,62.855
					l-112.191,34.994L431.256,146.437z"/>
				<path fill="#999999" d="M543.932,83.722l109.256,61.53l-109.687,34.213l-109.815-33.335
					C433.687,146.129,531.761,86.489,543.932,83.722 M544.241,81.601l-0.752,0.171c-12.347,2.807-106.826,60.207-110.842,62.649
					l-3.821,2.324l4.279,1.299l109.815,33.335l0.589,0.179l0.588-0.183l109.687-34.213l4.422-1.379l-4.036-2.273l-109.256-61.53
					L544.241,81.601L544.241,81.601z"/>
			</g>
			<path fill="#999999" d="M543.504,180.082l-0.173-0.053L432.253,146.31l1.127-0.685c4.008-2.438,98.296-59.722,110.421-62.478
				l0.222-0.05l0.198,0.111l110.445,62.2L543.504,180.082z M435.121,145.948l108.38,32.899l108.209-33.753L543.846,84.35
				C531.757,87.497,446.008,139.347,435.121,145.948z"/>
		</g>
	</g>
</g>
<g>
</g>
<g>
</g>
<g>
</g>
<g>
</g>
<g>
</g>
<g>
</g>
<g>
</g>
<g>
</g>
<g>
</g>
<g>
</g>
<g>
</g>
<g>
</g>
<g>
</g>
<g>
</g>
<g>
</g>
</svg>
