<?xml version="1.0" encoding="utf-8"?>
<!-- Generator: Adobe Illustrator 27.0.1, SVG Export Plug-In . SVG Version: 6.00 Build 0)  -->
<svg version="1.1" id="Layer_1" xmlns="http://www.w3.org/2000/svg" xmlns:xlink="http://www.w3.org/1999/xlink" x="0px" y="0px"
	 width="1080px" height="1080px" viewBox="0 0 1080 1080" enable-background="new 0 0 1080 1080" xml:space="preserve">
<g>
	<g>
		<circle fill="#E5E7E6" cx="558.959" cy="401.514" r="394.278"/>
	</g>
	<g>
	</g>
	<g>
	</g>
	<g>
		<g>
			<g>
				<path fill="#F30B6D" d="M558.959,51.908c195.784,0,355.065,159.283,355.065,355.068c0,195.782-159.281,355.063-355.065,355.063
					S203.894,602.759,203.894,406.976C203.894,211.191,363.175,51.908,558.959,51.908 M558.959,7.083
					c-220.859,0-399.89,179.031-399.89,399.893c0,220.854,179.031,399.887,399.89,399.887c220.856,0,399.89-179.033,399.89-399.887
					C958.849,186.114,779.815,7.083,558.959,7.083L558.959,7.083z"/>
			</g>
			<g>
				<path fill="#F30B6D" d="M547.889,62.98c195.783,0,355.064,159.281,355.064,355.063c0,195.784-159.281,355.066-355.064,355.066
					S192.825,613.826,192.825,418.042C192.825,222.26,352.107,62.98,547.889,62.98 M547.889,18.155
					c-220.853,0-399.888,179.042-399.888,399.887c0,220.854,179.036,399.89,399.888,399.89
					c220.849,0,399.889-179.036,399.889-399.89C947.778,197.197,768.739,18.155,547.889,18.155L547.889,18.155z"/>
			</g>
			<g>
				<g>
					<path fill="#01A0C6" d="M570.029,40.839c195.784,0,355.065,159.282,355.065,355.065c0,195.782-159.281,355.063-355.065,355.063
						c-195.783,0-355.063-159.281-355.063-355.063C214.966,200.12,374.246,40.839,570.029,40.839 M570.029-3.986
						c-220.854,0-399.887,179.036-399.887,399.89c0,220.846,179.033,399.887,399.887,399.887s399.89-179.041,399.89-399.887
						C969.918,175.05,790.883-3.986,570.029-3.986L570.029-3.986z"/>
				</g>
			</g>
		</g>
		<g>
			<g>
				<g>
					<path fill="#F30B6D" d="M705.35,562.181c-5.737,0-11.47-2.187-15.85-6.562c-8.754-8.752-8.759-22.945-0.005-31.702
						l11.414-11.418c4.206-4.208,9.905-6.569,15.854-6.569h21.606c24.369,0,44.189-19.809,44.189-44.154V345.819
						c0-24.381-19.82-44.217-44.189-44.217l-65.72,0.026v160.148c0,49.069-39.908,88.987-88.961,88.987H481.702
						c-12.382,0-22.419-10.035-22.419-22.416c0-12.382,10.037-22.416,22.419-22.416h101.987c24.331,0,44.123-19.809,44.123-44.154
						V279.218c0-12.377,10.032-22.412,22.409-22.416l88.139-0.033c49.1,0,89.036,39.948,89.036,89.05v115.957
						c0,49.069-39.937,88.987-89.027,88.987h-12.316l-4.849,4.849C716.824,559.991,711.087,562.181,705.35,562.181z"/>
				</g>
				<g>
					<path fill="#F30B6D" d="M315.577,562.181c-5.735,0-11.47-2.187-15.847-6.562c-8.757-8.752-8.759-22.945-0.007-31.702
						l4.852-4.854v-239.89c0-12.382,10.035-22.416,22.416-22.416h88.122c49.076,0,89.008,39.951,89.008,89.057v182.158
						c0,12.382-10.037,22.416-22.419,22.416s-22.419-10.035-22.419-22.416V345.815c0-24.385-19.816-44.224-44.17-44.224h-65.706
						v226.756c0,5.944-2.359,11.644-6.562,15.847l-11.414,11.418C327.054,559.991,321.314,562.181,315.577,562.181z"/>
				</g>
			</g>
			<g>
				<g>
					<path fill="#F30B6D" d="M726.923,562.181H705.35c-12.382,0-22.419-10.035-22.419-22.417c0-12.382,10.037-22.416,22.419-22.416
						h21.573c24.355,0,44.17-19.797,44.17-44.13V357.259c0-24.364-19.816-44.187-44.17-44.187l-65.706,0.014v160.132
						c0,49.055-39.922,88.963-88.994,88.963H470.255c-12.382,0-22.419-10.035-22.419-22.417c0-12.382,10.037-22.416,22.419-22.416
						h101.968c24.35,0,44.156-19.797,44.156-44.13V290.672c0-12.379,10.037-22.414,22.414-22.416l88.125-0.016
						c49.081,0,89.013,39.934,89.013,89.02v115.959C815.93,522.273,775.999,562.181,726.923,562.181z"/>
				</g>
				<g>
					<path fill="#F30B6D" d="M315.577,562.181c-12.382,0-22.416-10.035-22.416-22.417V290.606c0-12.382,10.035-22.416,22.416-22.416
						h88.108c49.067,0,88.989,39.939,88.989,89.034v182.167c0,12.382-10.037,22.416-22.419,22.416
						c-12.382,0-22.419-10.035-22.419-22.416V357.224c0-24.371-19.806-44.201-44.152-44.201h-65.692v226.742
						C337.993,552.146,327.959,562.181,315.577,562.181z"/>
				</g>
			</g>
			<g>
				<path fill="#F30B6D" d="M638.798,313.089c-5.733,0-11.461-2.183-15.836-6.55c-8.764-8.747-8.778-22.94-0.028-31.702
					l11.433-11.456c8.74-8.761,22.94-8.771,31.699-0.028c8.764,8.747,8.778,22.94,0.028,31.702l-11.433,11.454
					C650.287,310.894,644.54,313.089,638.798,313.089z"/>
			</g>
			<g>
				<path fill="#F30B6D" d="M315.577,313.023c-5.73,0-11.461-2.183-15.838-6.553c-8.761-8.747-8.773-22.94-0.026-31.702
					l11.414-11.433c8.742-8.766,22.933-8.778,31.702-0.026c8.761,8.747,8.773,22.94,0.026,31.702l-11.414,11.433
					C327.063,310.831,321.319,313.023,315.577,313.023z"/>
			</g>
			<g>
				<g>
					<path fill="#01A0C6" d="M594.989,539.448H493.022c-12.382,0-22.419-10.035-22.419-22.416c0-12.382,10.037-22.416,22.419-22.416
						h101.968c24.345,0,44.152-19.823,44.152-44.187V267.913c0-12.377,10.032-22.412,22.409-22.416l88.139-0.031
						c49.071,0,88.984,39.927,88.984,89.003v115.959c0,49.062-39.913,88.975-88.975,88.975h-21.611
						c-12.382,0-22.419-10.035-22.419-22.416s10.037-22.416,22.419-22.416h21.611c24.341,0,44.138-19.801,44.138-44.142V334.469
						c0-24.355-19.797-44.17-44.138-44.17l-65.72,0.023v160.106C683.979,499.513,644.056,539.448,594.989,539.448z"/>
				</g>
				<g>
					<path fill="#01A0C6" d="M338.343,539.448c-12.382,0-22.416-10.035-22.416-22.416V267.868c0-12.382,10.035-22.416,22.416-22.416
						h88.103c49.071,0,88.994,39.93,88.994,89.008v182.139c0,12.382-10.037,22.416-22.419,22.416s-22.419-10.035-22.419-22.416
						V334.459c0-24.357-19.806-44.175-44.156-44.175H360.76v226.747C360.76,529.413,350.725,539.448,338.343,539.448z"/>
				</g>
			</g>
		</g>
	</g>
</g>
<g>
	<g>
		<path fill="#EC147D" d="M616.268,976.405c-2.382,0-4.764-0.908-6.583-2.724c-3.641-3.636-3.646-9.534-0.01-13.177l4.753-4.759
			c3.637-3.64,9.534-3.645,13.176-0.009s3.646,9.534,0.01,13.177l-4.753,4.759C621.041,975.495,618.655,976.405,616.268,976.405z"/>
	</g>
	<g>
		<path fill="#EC147D" d="M482.505,976.373c-2.383,0-4.766-0.908-6.586-2.726c-3.639-3.638-3.641-9.537-0.004-13.177l4.747-4.751
			c3.638-3.638,9.534-3.642,13.177-0.004c3.639,3.638,3.641,9.537,0.004,13.177l-4.747,4.751
			C487.276,975.463,484.891,976.373,482.505,976.373z"/>
	</g>
	<g>
		<path fill="#EC147D" d="M157.412,976.44c-2.385,0-4.771-0.91-6.59-2.73c-3.638-3.638-3.636-9.539,0.003-13.177l4.753-4.751
			c3.641-3.636,9.541-3.631,13.176,0.004c3.638,3.638,3.636,9.539-0.003,13.175l-4.753,4.751
			C162.179,975.532,159.795,976.44,157.412,976.44z"/>
	</g>
	<g>
		<g>
			<path fill="#EC147D" d="M415.246,1075.118h-8.978c-4.219,0-8.542-0.808-12.851-2.403c-4.825-1.787-7.288-7.147-5.502-11.973
				c1.786-4.826,7.148-7.285,11.972-5.503c2.262,0.839,4.349,1.246,6.38,1.246h8.978c10.115,0,18.345-8.244,18.345-18.375v-48.175
				c0-10.129-8.229-18.37-18.345-18.37h-8.978c-10.112,0-18.339,8.242-18.339,18.37v48.175c0,5.147-4.171,9.316-9.316,9.316
				s-9.316-4.17-9.316-9.316v-48.175c0-20.404,16.586-37.003,36.972-37.003h8.978c20.39,0,36.978,16.599,36.978,37.003v48.175
				C452.224,1058.517,435.636,1075.118,415.246,1075.118z"/>
		</g>
		<g>
			<path fill="#EC147D" d="M874.951,1075.1h-36.639c-5.146,0-9.316-4.17-9.316-9.316V962.229c0-5.147,4.171-9.316,9.316-9.316
				s9.316,4.17,9.316,9.316v94.239h27.323c10.114,0,18.342-8.235,18.342-18.355c0-5.147,4.171-9.316,9.316-9.316
				s9.316,4.17,9.316,9.316C911.926,1058.508,895.339,1075.1,874.951,1075.1z"/>
		</g>
		<g>
			<path fill="#EC147D" d="M766.306,1075.1h-8.982c-20.39,0-36.978-16.592-36.978-36.988v-48.18
				c0-20.409,16.588-37.012,36.978-37.012h8.982c20.391,0,36.98,16.604,36.98,37.012c0,5.147-4.171,9.316-9.316,9.316
				s-9.316-4.17-9.316-9.316c0-10.133-8.231-18.379-18.347-18.379h-8.982c-10.115,0-18.345,8.246-18.345,18.379v48.18
				c0,10.12,8.229,18.355,18.345,18.355h8.982c10.116,0,18.347-8.235,18.347-18.355c0-5.147,4.171-9.316,9.316-9.316
				s9.316,4.17,9.316,9.316C803.285,1058.508,786.696,1075.1,766.306,1075.1z"/>
		</g>
		<g>
			<path fill="#EC147D" d="M766.306,1026.024h-36.643c-5.145,0-9.316-4.17-9.316-9.316s4.171-9.316,9.316-9.316h36.643
				c5.146,0,9.316,4.17,9.316,9.316S771.451,1026.024,766.306,1026.024z"/>
		</g>
		<g>
			<path fill="#EC147D" d="M226.478,1075.258c-5.146,0-9.316-4.17-9.316-9.316v-75.873c0-10.133-8.232-18.379-18.349-18.379h-27.332
				v94.252c0,5.147-4.171,9.316-9.316,9.316c-5.145,0-9.316-4.17-9.316-9.316V962.373c0-5.147,4.171-9.316,9.316-9.316h36.648
				c20.392,0,36.982,16.604,36.982,37.012v75.873C235.795,1071.089,231.624,1075.258,226.478,1075.258z"/>
		</g>
		<g>
			<path fill="#EC147D" d="M940.036,1079.842c-2.392,0-4.782-0.915-6.602-2.741c-3.631-3.647-3.618-9.546,0.027-13.177l2.02-2.011
				v-99.675c0-5.147,4.17-9.316,9.316-9.316c5.147,0,9.316,4.17,9.316,9.316v103.546c0,2.479-0.986,4.853-2.741,6.602l-4.762,4.742
				C944.793,1078.939,942.414,1079.842,940.036,1079.842z"/>
		</g>
		<g>
			<path fill="#EC147D" d="M657.655,1075.194h-8.982c-5.146,0-9.316-4.17-9.316-9.316s4.171-9.317,9.316-9.317h8.982
				c10.125,0,18.364-8.235,18.364-18.357v-48.197c0-10.129-8.238-18.37-18.364-18.37l-27.317,0.007v66.561
				c0,20.397-16.585,36.99-36.97,36.99h-41.815c-5.146,0-9.316-4.17-9.316-9.316s4.171-9.317,9.316-9.317h41.815
				c10.111,0,18.337-8.235,18.337-18.357v-75.875c0-5.144,4.17-9.316,9.314-9.316l36.634-0.009
				c20.403,0,36.999,16.599,36.999,37.003v48.197C694.651,1058.601,678.056,1075.194,657.655,1075.194z"/>
		</g>
		<g>
			<path fill="#EC147D" d="M487.252,1075.194c-5.146,0-9.316-4.17-9.316-9.316V962.306c0-5.147,4.171-9.316,9.316-9.316h36.626
				c20.397,0,36.991,16.604,36.991,37.014v75.713c0,5.147-4.171,9.316-9.316,9.316s-9.316-4.17-9.316-9.316v-75.713
				c0-10.135-8.236-18.381-18.358-18.381h-27.31v94.255C496.569,1071.024,492.398,1075.194,487.252,1075.194z"/>
		</g>
		<g>
			<path fill="#EC147D" d="M306.599,1075.258h-8.976c-20.383,0-36.964-16.592-36.964-36.988v-48.18
				c0-20.408,16.581-37.012,36.964-37.012h8.976c20.398,0,36.993,16.604,36.993,37.012c0,5.147-4.171,9.316-9.316,9.316
				s-9.316-4.17-9.316-9.316c0-10.133-8.236-18.379-18.36-18.379h-8.976c-10.107,0-18.331,8.246-18.331,18.379v48.18
				c0,10.12,8.224,18.355,18.331,18.355h8.976c10.124,0,18.36-8.235,18.36-18.355c0-5.147,4.171-9.316,9.316-9.316
				s9.316,4.17,9.316,9.316C343.592,1058.666,326.997,1075.258,306.599,1075.258z"/>
		</g>
		<g>
			<path fill="#EC147D" d="M306.599,1026.182h-36.624c-5.145,0-9.316-4.17-9.316-9.316s4.171-9.316,9.316-9.316h36.624
				c5.146,0,9.316,4.17,9.316,9.316S311.745,1026.182,306.599,1026.182z"/>
		</g>
	</g>
	<g>
		<g>
			<path fill="#EC147D" d="M410.497,1079.864h-8.996c-4.285,0-8.619-0.814-12.881-2.421c-2.962-1.115-5.154-3.658-5.822-6.753
				c-0.668-3.093,0.28-6.315,2.519-8.551l4.747-4.748c3.638-3.64,9.538-3.642,13.176-0.002c1.113,1.113,1.886,2.437,2.317,3.843
				h4.94c10.113,0,18.341-8.24,18.341-18.368v-48.166c0-10.135-8.228-18.381-18.341-18.381h-8.996
				c-10.104,0-18.325,8.246-18.325,18.381v35.288c0.725,0.409,1.407,0.921,2.025,1.537c3.638,3.638,3.638,9.539,0,13.177
				l-4.753,4.753c-2.665,2.666-6.672,3.462-10.154,2.018c-3.481-1.442-5.751-4.837-5.751-8.607v-48.166
				c0-20.411,16.579-37.014,36.958-37.014h8.996c20.388,0,36.974,16.604,36.974,37.014v48.166
				C447.471,1063.265,430.885,1079.864,410.497,1079.864z"/>
		</g>
		<g>
			<path fill="#EC147D" d="M870.209,1079.842h-36.667c-5.146,0-9.316-4.17-9.316-9.316V966.995c0-2.472,0.982-4.844,2.73-6.591
				l4.769-4.766c3.64-3.636,9.539-3.634,13.177,0.004c3.637,3.64,3.635,9.539-0.004,13.177l-2.039,2.036v90.354h27.351
				c10.106,0,18.328-8.226,18.328-18.335c0-2.47,0.98-4.837,2.725-6.584l4.756-4.762c3.637-3.642,9.537-3.642,13.176-0.009
				c3.64,3.638,3.645,9.537,0.008,13.177l-2.255,2.259C904.911,1065.426,889.211,1079.842,870.209,1079.842z"/>
		</g>
		<g>
			<path fill="#EC147D" d="M761.531,1079.842h-8.965c-20.39,0-36.978-16.584-36.978-36.968v-48.2
				c0-20.4,16.588-36.996,36.978-36.996h8.965c15.5,0,28.805,9.577,34.304,23.125c1.734,0.354,3.387,1.204,4.731,2.55
				c3.634,3.642,3.627,9.541-0.016,13.175l-4.753,4.742c-2.667,2.659-6.671,3.456-10.151,2.011c-3.479-1.444-5.746-4.84-5.746-8.607
				c0-10.126-8.241-18.364-18.369-18.364h-8.965c-10.115,0-18.345,8.237-18.345,18.364v48.2c0,10.109,8.229,18.335,18.345,18.335
				h8.965c10.129,0,18.369-8.226,18.369-18.335c0-2.468,0.979-4.835,2.722-6.582l4.753-4.762c3.636-3.64,9.533-3.645,13.176-0.013
				c3.642,3.636,3.648,9.534,0.012,13.177l-2.254,2.259C796.271,1065.423,780.554,1079.842,761.531,1079.842z"/>
		</g>
		<g>
			<path fill="#EC147D" d="M761.531,1030.777h-36.626c-5.146,0-9.316-4.17-9.316-9.316c0-5.147,4.171-9.316,9.316-9.316h32.78
				l2.048-2.04c3.646-3.629,9.546-3.616,13.176,0.031c3.63,3.647,3.617,9.546-0.03,13.177l-4.775,4.753
				C766.357,1029.802,763.994,1030.777,761.531,1030.777z"/>
		</g>
		<g>
			<path fill="#EC147D" d="M157.409,1080c-1.202,0-2.414-0.231-3.568-0.71c-3.479-1.444-5.746-4.839-5.746-8.607v-103.56
				c0-5.147,4.171-9.316,9.316-9.316h36.639c20.385,0,36.97,16.604,36.97,37.014v62.983c0.742,0.414,1.439,0.939,2.068,1.571
				c3.626,3.651,3.606,9.55-0.046,13.177l-4.773,4.742c-2.67,2.652-6.671,3.433-10.146,1.991c-3.473-1.446-5.736-4.84-5.736-8.602
				v-75.862c0-10.135-8.226-18.381-18.337-18.381h-27.323v81.376c0.729,0.409,1.413,0.926,2.033,1.546
				c3.634,3.642,3.627,9.541-0.016,13.175l-4.753,4.742C162.21,1079.057,159.83,1080,157.409,1080z"/>
		</g>
		<g>
			<path fill="#EC147D" d="M940.036,1079.842c-5.147,0-9.316-4.17-9.316-9.316V966.995c0-2.472,0.981-4.844,2.732-6.591l4.762-4.757
				c3.638-3.636,9.537-3.636,13.175,0.007c3.638,3.64,3.634,9.539-0.007,13.175l-2.029,2.029v99.668
				C949.352,1075.672,945.182,1079.842,940.036,1079.842z"/>
		</g>
		<g>
			<path fill="#EC147D" d="M652.894,1079.935h-8.963c-3.768,0-7.166-2.27-8.608-5.752c-1.442-3.48-0.645-7.487,2.019-10.153
				l4.742-4.742c3.64-3.636,9.537-3.636,13.177,0c0.507,0.507,0.945,1.059,1.311,1.644c8.367-1.707,14.682-9.114,14.682-17.968
				v-48.198c0-10.126-8.236-18.364-18.36-18.364h-27.31v66.561c0,20.386-16.591,36.97-36.986,36.97h-41.804
				c-5.146,0-9.316-4.17-9.316-9.316s4.171-9.316,9.316-9.316h41.804c10.12,0,18.354-8.226,18.354-18.337v-75.878
				c0-5.147,4.171-9.316,9.316-9.316h36.626c20.398,0,36.993,16.597,36.993,36.996v48.198
				C689.887,1063.352,673.293,1079.935,652.894,1079.935z"/>
		</g>
		<g>
			<path fill="#EC147D" d="M482.503,1079.935c-1.202,0-2.412-0.231-3.566-0.71c-3.48-1.442-5.749-4.84-5.749-8.607V967.057
				c0-5.147,4.171-9.316,9.316-9.316h36.62c20.394,0,36.985,16.606,36.985,37.016v75.711c0,5.147-4.171,9.316-9.316,9.316
				s-9.316-4.17-9.316-9.316v-75.711c0-10.138-8.233-18.384-18.352-18.384h-27.304v81.382c0.725,0.407,1.406,0.921,2.023,1.537
				c3.637,3.64,3.632,9.539-0.008,13.177l-4.747,4.742C487.307,1078.99,484.926,1079.935,482.503,1079.935z"/>
		</g>
		<g>
			<path fill="#EC147D" d="M301.835,1080h-8.966c-20.385,0-36.969-16.583-36.969-36.968v-48.2c0-20.4,16.584-36.996,36.969-36.996
				h8.966c15.498,0,28.801,9.579,34.301,23.125c1.738,0.352,3.394,1.204,4.739,2.552c3.632,3.645,3.621,9.546-0.023,13.177
				l-4.758,4.742c-2.667,2.659-6.671,3.453-10.15,2.005c-3.477-1.444-5.743-4.84-5.743-8.604c0-10.126-8.239-18.364-18.366-18.364
				h-8.966c-10.11,0-18.336,8.237-18.336,18.364v48.2c0,10.109,8.226,18.335,18.336,18.335h8.966
				c10.126,0,18.366-8.226,18.366-18.335c0-2.47,0.98-4.84,2.726-6.586l4.758-4.762c3.637-3.64,9.533-3.642,13.177-0.005
				c3.639,3.638,3.641,9.537,0.004,13.177l-2.256,2.256C336.57,1065.584,320.855,1080,301.835,1080z"/>
		</g>
		<g>
			<path fill="#EC147D" d="M301.835,1030.935h-36.618c-5.146,0-9.316-4.17-9.316-9.316s4.171-9.316,9.316-9.316h32.765l2.036-2.031
				c3.644-3.638,9.542-3.627,13.177,0.016c3.634,3.643,3.627,9.541-0.016,13.175l-4.764,4.753
				C306.669,1029.956,304.303,1030.935,301.835,1030.935z"/>
		</g>
	</g>
	<g>
		<g>
			<path fill="#00ADEE" d="M419.941,1070.396h-8.965c-4.265,0-8.59-0.801-12.853-2.383c-4.824-1.791-7.284-7.151-5.494-11.978
				c1.79-4.822,7.158-7.278,11.975-5.494c2.214,0.821,4.298,1.222,6.372,1.222h8.965c10.127,0,18.367-8.231,18.367-18.348v-48.193
				c0-10.129-8.24-18.368-18.367-18.368h-8.965c-10.117,0-18.349,8.24-18.349,18.368v48.193c0,5.147-4.171,9.316-9.316,9.316
				c-5.146,0-9.316-4.17-9.316-9.316v-48.193c0-20.402,16.59-37.001,36.982-37.001h8.965c20.402,0,37,16.599,37,37.001v48.193
				C456.941,1053.806,440.343,1070.396,419.941,1070.396z"/>
		</g>
		<g>
			<path fill="#00ADEE" d="M879.683,1070.394h-36.676c-5.146,0-9.316-4.17-9.316-9.316V957.525c0-5.147,4.171-9.316,9.316-9.316
				s9.316,4.17,9.316,9.316v94.237h27.36c10.104,0,18.325-8.237,18.325-18.364c0-5.147,4.171-9.316,9.316-9.316
				s9.316,4.17,9.316,9.316C916.64,1053.797,900.061,1070.394,879.683,1070.394z"/>
		</g>
		<g>
			<path fill="#00ADEE" d="M771.009,1070.394h-8.976c-20.388,0-36.975-16.597-36.975-36.996v-48.184
				c0-20.397,16.587-36.99,36.975-36.99h8.976c20.392,0,36.982,16.592,36.982,36.99c0,5.147-4.171,9.316-9.316,9.316
				s-9.316-4.17-9.316-9.316c0-10.122-8.232-18.357-18.349-18.357h-8.976c-10.114,0-18.342,8.235-18.342,18.357v48.184
				c0,10.126,8.228,18.364,18.342,18.364h8.976c10.117,0,18.349-8.237,18.349-18.364c0-5.147,4.171-9.316,9.316-9.316
				s9.316,4.17,9.316,9.316C807.991,1053.797,791.401,1070.394,771.009,1070.394z"/>
		</g>
		<g>
			<path fill="#00ADEE" d="M771.009,1021.329h-36.635c-5.146,0-9.316-4.17-9.316-9.316s4.171-9.316,9.316-9.316h36.635
				c5.146,0,9.316,4.17,9.316,9.316S776.155,1021.329,771.009,1021.329z"/>
		</g>
		<g>
			<path fill="#00ADEE" d="M231.18,1070.552c-5.146,0-9.316-4.17-9.316-9.316v-75.875c0-10.129-8.232-18.368-18.348-18.368h-27.323
				v94.243c0,5.147-4.171,9.316-9.316,9.316s-9.316-4.17-9.316-9.316v-103.56c0-5.147,4.171-9.316,9.316-9.316h36.639
				c20.392,0,36.981,16.599,36.981,37.001v75.875C240.496,1066.382,236.325,1070.552,231.18,1070.552z"/>
		</g>
		<g>
			<path fill="#00ADEE" d="M949.495,1070.394c-5.147,0-9.316-4.17-9.316-9.316V957.54c0-5.147,4.17-9.316,9.316-9.316
				c5.147,0,9.316,4.17,9.316,9.316v103.538C958.811,1066.224,954.641,1070.394,949.495,1070.394z"/>
		</g>
		<g>
			<path fill="#00ADEE" d="M598.06,1070.488h-41.804c-5.146,0-9.316-4.17-9.316-9.316s4.171-9.316,9.316-9.316h41.804
				c10.12,0,18.352-8.237,18.352-18.364v-75.86c0-5.144,4.169-9.314,9.313-9.316l36.635-0.013c20.393,0,36.981,16.595,36.981,36.994
				v48.195c0,20.391-16.588,36.981-36.978,36.981h-8.987c-5.146,0-9.316-4.17-9.316-9.316s4.171-9.316,9.316-9.316h8.987
				c10.115,0,18.345-8.231,18.345-18.348v-48.195c0-10.124-8.229-18.361-18.345-18.361l-27.318,0.011v66.546
				C635.046,1053.891,618.454,1070.488,598.06,1070.488z"/>
		</g>
		<g>
			<path fill="#00ADEE" d="M491.964,1070.488c-5.146,0-9.316-4.17-9.316-9.316V957.609c0-5.147,4.171-9.316,9.316-9.316h36.626
				c20.393,0,36.983,16.599,36.983,37.003v75.695c0,5.147-4.171,9.316-9.316,9.316s-9.316-4.17-9.316-9.316v-75.695
				c0-10.129-8.232-18.37-18.35-18.37h-27.31v94.246C501.28,1066.318,497.11,1070.488,491.964,1070.488z"/>
		</g>
		<g>
			<path fill="#00ADEE" d="M311.311,1070.552h-8.976c-20.386,0-36.972-16.597-36.972-36.996v-48.184
				c0-20.397,16.586-36.99,36.972-36.99h8.976c20.394,0,36.985,16.592,36.985,36.99c0,5.147-4.171,9.316-9.316,9.316
				s-9.316-4.17-9.316-9.316c0-10.122-8.233-18.357-18.352-18.357h-8.976c-10.112,0-18.339,8.235-18.339,18.357v48.184
				c0,10.126,8.227,18.364,18.339,18.364h8.976c10.12,0,18.352-8.237,18.352-18.364c0-5.147,4.171-9.316,9.316-9.316
				s9.316,4.17,9.316,9.316C348.296,1053.955,331.705,1070.552,311.311,1070.552z"/>
		</g>
		<g>
			<path fill="#00ADEE" d="M311.311,1021.487h-36.632c-5.145,0-9.316-4.17-9.316-9.316c0-5.147,4.171-9.316,9.316-9.316h36.632
				c5.146,0,9.316,4.17,9.316,9.316C320.627,1017.317,316.456,1021.487,311.311,1021.487z"/>
		</g>
	</g>
</g>
<g>
</g>
<g>
</g>
<g>
</g>
<g>
</g>
<g>
</g>
<g>
</g>
<g>
</g>
<g>
</g>
<g>
</g>
<g>
</g>
<g>
</g>
<g>
</g>
<g>
</g>
<g>
</g>
<g>
</g>
</svg>
