<?xml version="1.0" encoding="utf-8"?>
<!-- Generator: Adobe Illustrator 27.0.1, SVG Export Plug-In . SVG Version: 6.00 Build 0)  -->
<svg version="1.1" id="Layer_1" xmlns="http://www.w3.org/2000/svg" xmlns:xlink="http://www.w3.org/1999/xlink" x="0px" y="0px"
	 width="1080px" height="1080px" viewBox="0 0 1080 1080" enable-background="new 0 0 1080 1080" xml:space="preserve">
<g>
	<g>
		<path fill="#C19C0B" d="M33.69,1037.78c-9.983-6.141-17.666-14.943-23.044-26.396c-5.378-11.447-8.062-24.998-8.062-40.643
			c0-15.639,2.65-29.185,7.962-40.638c5.306-11.452,12.95-20.249,22.938-26.396c9.983-6.147,21.819-9.22,35.51-9.22
			c13.685,0,25.555,3.073,35.61,9.22c10.061,6.147,17.738,14.91,23.044,26.29c5.306,11.386,7.962,24.898,7.962,40.537
			s-2.689,29.224-8.062,40.743c-5.378,11.525-13.061,20.361-23.044,26.502c-9.988,6.147-21.825,9.22-35.51,9.22
			C55.443,1047,43.679,1043.927,33.69,1037.78z M108.062,1018.505c9.287-11.308,13.93-27.298,13.93-47.97
			c0-20.667-4.604-36.59-13.824-47.764s-22.276-16.764-39.173-16.764c-16.758,0-29.786,5.629-39.073,16.864
			c-9.287,11.246-13.93,27.131-13.93,47.664c0,20.528,4.643,36.484,13.93,47.87c9.287,11.38,22.315,17.07,39.073,17.07
			S98.775,1029.818,108.062,1018.505z"/>
		<path fill="#C19C0B" d="M172.061,896.164h15.506l-3.352,57.401h-8.591L172.061,896.164z"/>
		<path fill="#C19C0B" d="M242.245,896.164h47.97c23.746,0,42.041,6.425,54.89,19.275c12.844,12.85,19.275,31.212,19.275,55.096
			c0,23.879-6.464,42.313-19.381,55.302c-12.922,12.989-31.184,19.486-54.785,19.486h-47.97V896.164z M289.592,1034.011
			c20.244,0,35.471-5.345,45.665-16.029c10.194-10.684,15.294-26.502,15.294-47.447c0-42.035-20.322-63.058-60.959-63.058h-34.357
			v126.534H289.592z"/>
		<path fill="#C19C0B" d="M434.766,896.164h12.989v149.16h-12.989V896.164z"/>
		<path fill="#C19C0B" d="M647.195,896.164l-64.528,149.16h-11.937l-64.528-149.16h13.618l56.984,132.402l56.984-132.402H647.195z"
			/>
		<path fill="#C19C0B" d="M705.644,896.164h12.989v149.16h-12.989V896.164z"/>
		<path fill="#C19C0B" d="M911.782,896.164v149.16h-10.055l-94.693-127.163v127.163h-12.148v-149.16h10.261l94.481,127.163V896.164
			H911.782z"/>
		<path fill="#C19C0B" d="M988.035,896.164H1080v11.102h-79.187v56.566h75v11.519h-75v58.866H1080v11.107h-91.965V896.164z"/>
	</g>
	<g>
		<g>
			<path fill="#F1C40F" d="M535.798,109.082c-122.294,0-221.789,99.495-221.789,221.787c0,23.496,3.703,46.135,10.504,67.405
				c45.204-71.589,124.974-119.273,215.718-119.273c86.762,0,163.497,43.59,209.578,109.984c5.039-18.535,7.778-38.007,7.778-58.116
				C757.588,208.577,658.093,109.082,535.798,109.082z"/>
			<path fill="#876E08" d="M535.798,585.87c-86.761,0-163.497-43.589-209.579-109.983c-5.039,18.535-7.777,38.007-7.777,58.115
				c0,122.292,99.495,221.787,221.789,221.787s221.787-99.495,221.787-221.787c0-23.495-3.703-46.135-10.503-67.403
				C706.309,538.187,626.54,585.87,535.798,585.87z"/>
			<path fill="#C19C0B" d="M722.444,157.376c42.367,45.547,68.353,106.528,68.353,173.493c0,34.143-6.793,66.716-19.021,96.504
				c15.012,32.468,23.451,68.572,23.451,106.63c0,71.986-30.03,137.05-78.162,183.46c93.618-58.966,155.997-163.19,155.997-281.767
				C873.062,319.4,813.065,216.908,722.444,157.376z"/>
			<path fill="#C19C0B" d="M363.397,717.464c-48.134-46.41-78.165-111.475-78.165-183.461c0-34.142,6.793-66.713,19.02-96.502
				c-15.012-32.469-23.453-68.573-23.453-106.631c0-59.161,20.307-113.634,54.241-156.944
				c-77.632,60.987-127.643,155.618-127.643,261.771C207.397,554.273,269.778,658.498,363.397,717.464z"/>
		</g>
	</g>
</g>
<g>
</g>
<g>
</g>
<g>
</g>
<g>
</g>
<g>
</g>
<g>
</g>
<g>
</g>
<g>
</g>
<g>
</g>
<g>
</g>
<g>
</g>
<g>
</g>
<g>
</g>
<g>
</g>
<g>
</g>
</svg>
