<?xml version="1.0" encoding="utf-8"?>
<!-- Generator: Adobe Illustrator 27.0.1, SVG Export Plug-In . SVG Version: 6.00 Build 0)  -->
<svg version="1.1" id="Layer_1" xmlns="http://www.w3.org/2000/svg" xmlns:xlink="http://www.w3.org/1999/xlink" x="0px" y="0px"
	 width="1080px" height="1080px" viewBox="0 0 1080 1080" enable-background="new 0 0 1080 1080" xml:space="preserve">
<g>
	<g>
		<path fill="#D93C95" d="M699.204,213.194H385.366L505.908,20.013c7.63-12.164,21.34-19.904,35.81-20.013c0.238,0,0.238,0,0.467,0
			l0,0c14.576,0,28.418,7.52,36.153,20.013L699.204,213.194z"/>
	</g>
	<path fill="#00ADEE" d="M349.317,539.396c0,7.84,1.998,15.698,6.298,22.552l148.085,236.856
		c7.726,12.611,21.549,20.132,36.258,20.132c14.727,0,28.532-7.52,36.267-20.132l148.181-236.856
		c4.205-6.855,6.422-14.713,6.422-22.552c0-7.963-2.217-15.927-6.422-22.781L576.226,279.759
		c-7.734-12.496-21.539-20.123-36.267-20.123c-14.709,0-28.532,7.626-36.258,20.123L355.615,516.615
		C351.315,523.469,349.317,531.433,349.317,539.396z M539.959,383.038L637.6,539.396l-97.642,156.02L444.524,542.83l-2.102-3.434
		L539.959,383.038z M1038.14,281.747c-7.64-13.709-21.901-22.111-37.485-22.111H704.513c-15.708,0-29.874,8.402-37.39,22.111
		c-3.634,6.307-5.29,13.49-5.29,20.683c0,7.954,2.094,15.589,6.404,22.549l120.979,193.733c7.069,12.721,7.069,28.195,0.219,41.134
		L607.86,850.665c-7.744,12.506-21.549,20.246-36.268,20.246H387.126l13.605,21.663l0,0l4.548,7.188l14.575,23.11l85.712,137.116
		c7.734,12.387,21.577,20.013,36.153,20.013l0,0c0.238,0,0.238,0,0.467,0c14.49-0.109,28.189-7.739,35.82-20.236l104.502-167.19
		L888.96,561.948c4.196-7.079,6.412-14.713,6.412-22.552c0-7.963-2.216-15.927-6.412-22.781L781.699,345.115h141.759l-15.26,24.432
		l-13.49,21.678c-4.415,6.964-6.518,14.922-6.518,22.658c0,14.271,7.183,28.214,20.122,36.377
		c7.079,4.428,14.937,6.431,22.567,6.431c13.92,0,27.524-6.746,35.601-19.252l8.744-13.604l0,0l61.584-98.855
		c4.528-6.96,6.64-14.595,6.64-22.549C1043.448,295.238,1041.556,288.055,1038.14,281.747z M290.368,559.08
		c-6.64-12.825-6.64-27.867,0.209-40.368l121.114-193.733c4.3-6.96,6.612-14.595,6.612-22.549c0-7.193-1.874-14.376-5.3-20.683
		c-7.725-13.709-21.882-22.111-37.485-22.111H79.367c-15.602,0-29.968,8.402-37.485,22.111c-3.653,6.307-5.432,13.49-5.432,20.683
		c0,7.954,2.33,15.589,6.536,22.549l147.742,236.303c0.219,0.438,0.437,0.886,0.885,1.442l162.471,256.212h101.067L290.368,559.08z
		 M156.564,345.115h141.768l-70.889,113.554L156.564,345.115z"/>
</g>
<g>
</g>
<g>
</g>
<g>
</g>
<g>
</g>
<g>
</g>
<g>
</g>
<g>
</g>
<g>
</g>
<g>
</g>
<g>
</g>
<g>
</g>
<g>
</g>
<g>
</g>
<g>
</g>
<g>
</g>
</svg>
