<svg xmlns:xlink="http://www.w3.org/1999/xlink" width="258.882" xmlns="http://www.w3.org/2000/svg" height="341.927" id="screenshot-769b0fc0-75e1-80d2-8002-e5f9eeb25a1a" viewBox="69 -10 258.882 341.927" style="-webkit-print-color-adjust: exact;" fill="none" version="1.1"><g id="shape-769b0fc0-75e1-80d2-8002-e5f9eeb25a1a"><g class="fills" id="fills-769b0fc0-75e1-80d2-8002-e5f9eeb25a1a"><path color-rendering="auto" d="M136.526,-10.000L100.570,40.642L100.570,69.268L69.282,84.150L69.000,84.018L69.000,270.778L190.987,328.409L198.441,331.927L205.896,328.409L327.882,270.778L327.882,84.018L327.652,84.126L296.356,69.239L296.356,40.642L295.261,39.102L260.398,-10.000L224.441,40.642L224.441,40.692L198.277,3.843L172.317,40.409L171.388,39.102L136.526,-10.000ZM142.887,19.417L156.794,39.002L116.258,39.002L130.003,19.647L142.887,19.417ZM266.757,19.417L280.667,39.002L240.130,39.002L253.872,19.647L266.757,19.417ZM204.638,33.262L218.545,52.846L178.012,52.846L191.754,33.490L204.638,33.262ZM112.414,48.873L131.639,48.873L131.639,113.610L112.414,104.527L112.414,48.873ZM141.510,48.873L160.640,48.873L160.640,127.308L141.510,118.272L141.510,48.873ZM236.288,48.873L255.512,48.873L255.512,118.205L236.288,127.287L236.288,48.873ZM265.381,48.873L284.509,48.873L284.509,104.505L265.381,113.541L265.381,48.873ZM174.166,62.716L193.392,62.716L193.392,142.781L174.166,133.697L174.166,62.716ZM203.263,62.716L222.390,62.716L222.390,133.853L203.263,142.891L203.263,62.716ZM296.352,83.992L313.279,90.913L296.352,98.909L296.352,83.992ZM100.570,84.018L100.570,98.933L83.647,90.937L100.570,84.018ZM83.908,107.549L190.987,158.134L190.987,311.918L83.907,261.334L83.908,107.549ZM312.973,107.549L312.973,261.334L205.896,311.918L205.896,158.133L312.973,107.549Z" font-family="sans-serif" image-rendering="auto" color-interpolation-filters="linearRGB" text-rendering="auto" writing-mode="lr-tb" baseline-shift="baseline" word-spacing="normal" text-anchor="start" visibility="visible" fill-rule="nonzero" style="text-decoration-color: rgb(0, 0, 0); isolation: auto; text-transform: none; text-indent: 0px; white-space: normal; text-align: start; line-height: normal; text-decoration-style: solid; text-decoration-line: none; opacity: 1; fill: rgb(255, 255, 255); fill-opacity: 1;" color-interpolation="sRGB" ry="0" direction="ltr" font-weight="400" rx="0" text-decoration="none" overflow="visible" shape-rendering="auto" font-size="medium" letter-spacing="normal" display="inline" font-style="normal" clip-rule="nonzero" font-variant="normal" color="#000" mask="none" font-stretch="normal"/></g></g></svg>